<?xml version="1.0" standalone="no"?>
<!DOCTYPE svg PUBLIC "-//W3C//DTD SVG 1.1//EN" "http://www.w3.org/Graphics/SVG/1.1/DTD/svg11.dtd" >
<svg xmlns="http://www.w3.org/2000/svg" xmlns:xlink="http://www.w3.org/1999/xlink" version="1.1">
<metadata>
Created by FontForge 20161003 at Sat Aug 31 06:58:22 2019
 By www-data
Copyright (c) 2018 by Gumpita Rahayu. All rights reserved.
</metadata>
<defs>
<font id="MohaveMedium" horiz-adv-x="234" >
  <font-face 
    font-family="MohaveMedium"
    font-weight="500"
    font-stretch="normal"
    units-per-em="1000"
    panose-1="0 0 6 0 0 0 0 0 0 0"
    ascent="780"
    descent="-220"
    x-height="548"
    cap-height="750"
    bbox="-170 -403 959 982"
    underline-thickness="72"
    underline-position="-152"
    unicode-range="U+0020-FB02"
  />
<missing-glyph horiz-adv-x="489" 
d="M74 0v750h340v-750h-340zM153 78h183v594h-183v-594z" />
    <glyph glyph-name="fi" unicode="fi" horiz-adv-x="561" 
d="M102 0v447h-100v101h100v35q0 78 47.5 127.5t126.5 49.5h50v-109h-50q-30 0 -47.5 -18.5t-17.5 -49.5v-35h115v-101h-115v-447h-109zM390 594v126h109v-126h-109zM390 0v548h109v-548h-109z" />
    <glyph glyph-name="fl" unicode="fl" horiz-adv-x="561" 
d="M102 0v447h-100v101h100v35q0 78 47.5 127.5t126.5 49.5h50v-109h-50q-30 0 -47.5 -18.5t-17.5 -49.5v-35h115v-101h-115v-447h-109zM390 0v750h109v-750h-109z" />
    <glyph glyph-name="f_f" unicode="ff" horiz-adv-x="654" 
d="M102 0v447h-100v101h100v35q0 78 47.5 127.5t126.5 49.5h50v-109h-50q-30 0 -47.5 -18.5t-17.5 -49.5v-35h115v-101h-115v-447h-109zM429 0v447h-100v101h100v35q0 78 47.5 127.5t126.5 49.5h50v-109h-50q-30 0 -47.5 -18.5t-17.5 -49.5v-35h115v-101h-115v-447h-109z
" />
    <glyph glyph-name="f_f_i" unicode="ffi" horiz-adv-x="888" 
d="M102 0v447h-100v101h100v35q0 78 47.5 127.5t126.5 49.5h50v-109h-50q-30 0 -47.5 -18.5t-17.5 -49.5v-35h115v-101h-115v-447h-109zM429 0v447h-100v101h100v35q0 78 47.5 127.5t126.5 49.5h50v-109h-50q-30 0 -47.5 -18.5t-17.5 -49.5v-35h115v-101h-115v-447h-109z
M717 594v126h109v-126h-109zM717 0v548h109v-548h-109z" />
    <glyph glyph-name="f_f_l" unicode="ffl" horiz-adv-x="888" 
d="M102 0v447h-100v101h100v35q0 78 47.5 127.5t126.5 49.5h50v-109h-50q-30 0 -47.5 -18.5t-17.5 -49.5v-35h115v-101h-115v-447h-109zM429 0v447h-100v101h100v35q0 78 47.5 127.5t126.5 49.5h50v-109h-50q-30 0 -47.5 -18.5t-17.5 -49.5v-35h115v-101h-115v-447h-109z
M717 0v750h109v-750h-109z" />
    <glyph glyph-name=".notdef" horiz-adv-x="489" 
d="M74 0v750h340v-750h-340zM153 78h183v594h-183v-594z" />
    <glyph glyph-name="uni0000" horiz-adv-x="600" 
 />
    <glyph glyph-name="uni0000" horiz-adv-x="600" 
 />
    <glyph glyph-name="nonmarkingreturn" horiz-adv-x="333" 
 />
    <glyph glyph-name="space" unicode=" " horiz-adv-x="232" 
 />
    <glyph glyph-name="exclam" unicode="!" horiz-adv-x="291" 
d="M87 210v540h117v-540h-117zM87 0v150h117v-150h-117z" />
    <glyph glyph-name="quotedbl" unicode="&#x22;" horiz-adv-x="457" 
d="M67 509l40 241h109l-40 -241h-109zM241 509l40 241h109l-40 -241h-109z" />
    <glyph glyph-name="numbersign" unicode="#" horiz-adv-x="599" 
d="M551 484h-85v-168h85v-116h-85v-200h-117v200l-98 1v-201h-117v201h-87v116h87v168h-87v116h87v149h117v-149h98v149h117v-149h85v-117zM349 316v168l-98 1v-168z" />
    <glyph glyph-name="dollar" unicode="$" horiz-adv-x="487" 
d="M427 546h-117v35q0 51 -42 65v-222q73 -7 116 -57t43 -127v-71q0 -77 -43 -127t-116 -57v-85h-55v86q-70 10 -110.5 59t-40.5 124v36h117v-36q0 -46 34 -61v202q-70 10 -110.5 59t-40.5 124v88q0 75 40.5 124t110.5 59v86h55v-85q73 -7 116 -57t43 -127v-35zM179 493
q0 -46 34 -61v210q-34 -15 -34 -61v-88zM310 240q0 51 -42 65v-201q42 14 42 65v71z" />
    <glyph glyph-name="percent" unicode="%" horiz-adv-x="696" 
d="M166 404q-56 0 -90 34t-34 90v113q0 55 34 89.5t90 34.5q55 0 88.5 -34t33.5 -90v-113q0 -56 -33.5 -90t-88.5 -34zM136 0l331 750h93l-331 -750h-93zM166 493q14 0 23.5 9.5t9.5 25.5v113q0 16 -9.5 26t-23.5 10q-16 0 -25.5 -10t-9.5 -26v-113q0 -16 9.5 -25.5
t25.5 -9.5zM531 -15q-55 0 -89 33.5t-34 89.5v114q0 56 34 90t89 34t88.5 -34t33.5 -90v-114q0 -55 -33.5 -89t-88.5 -34zM531 73q15 0 24.5 9.5t9.5 25.5v114q0 16 -9.5 25.5t-24.5 9.5q-16 0 -25.5 -9.5t-9.5 -25.5v-114q0 -16 9.5 -25.5t25.5 -9.5z" />
    <glyph glyph-name="ampersand" unicode="&#x26;" horiz-adv-x="523" 
d="M248 -15q-83 0 -132.5 50.5t-49.5 134.5v50q0 56 23 98.5t63 64.5l-86 156v41q0 84 49.5 134.5t132.5 50.5t133 -51t50 -134v-35h-117v35q0 31 -17.5 49.5t-48.5 18.5q-30 0 -47.5 -18.5t-17.5 -49.5v-41l146 -257l27 176h99l-46 -318l65 -116v-24h-107l-14 26
q-41 -41 -105 -41zM248 102q34 0 51 22l-88 154q-28 -19 -28 -58v-50q0 -31 17.5 -49.5t47.5 -18.5z" />
    <glyph glyph-name="quotesingle" unicode="'" horiz-adv-x="283" 
d="M67 509l40 241h109l-40 -241h-109z" />
    <glyph glyph-name="parenleft" unicode="(" horiz-adv-x="330" 
d="M245 -180q-83 0 -132.5 50.5t-49.5 134.5v590q0 84 49.5 134.5t132.5 50.5h66v-117h-66q-30 0 -47.5 -18.5t-17.5 -49.5v-590q0 -31 17.5 -49.5t47.5 -18.5h66v-117h-66z" />
    <glyph glyph-name="parenright" unicode=")" horiz-adv-x="331" 
d="M20 -180v117h65q31 0 48.5 18.5t17.5 49.5v590q0 31 -17.5 49.5t-48.5 18.5h-65v117h65q83 0 133 -51t50 -134v-590q0 -83 -50 -134t-133 -51h-65z" />
    <glyph glyph-name="asterisk" unicode="*" horiz-adv-x="447" 
d="M394 639l-89 -52l89 -51l-40 -69l-90 52v-98h-80v96l-89 -51l-40 69l90 52l-90 52l39 70l90 -52v93h80v-94l90 52z" />
    <glyph glyph-name="plus" unicode="+" horiz-adv-x="538" 
d="M487 333v-117h-159v-139h-117v139h-160v117h160v140h117v-140h159z" />
    <glyph glyph-name="comma" unicode="," horiz-adv-x="283" 
d="M67 -66l40 198h109l-40 -198h-109z" />
    <glyph glyph-name="hyphen" unicode="-" horiz-adv-x="421" 
d="M63 216v117h295v-117h-295z" />
    <glyph glyph-name="period" unicode="." horiz-adv-x="291" 
d="M87 0v132h117v-132h-117z" />
    <glyph glyph-name="slash" unicode="/" horiz-adv-x="372" 
d="M-7 -50l268 830h118l-268 -830h-118z" />
    <glyph glyph-name="zero" unicode="0" horiz-adv-x="492" 
d="M246 766q83 0 133 -51t50 -134v-412q0 -83 -50 -134t-133 -51t-133 51t-50 134v412q0 83 50 134t133 51zM246 649q-31 0 -48.5 -18.5t-17.5 -49.5v-326l104 384q-17 10 -38 10zM246 101q31 0 48.5 18.5t17.5 49.5v323l-104 -381q17 -10 38 -10z" />
    <glyph glyph-name="one" unicode="1" horiz-adv-x="317" 
d="M126 0v547h-112v117h28q40 0 62 20t22 55v11h117v-750h-117z" />
    <glyph glyph-name="two" unicode="2" horiz-adv-x="450" 
d="M405 490q0 -51 -25 -93t-60.5 -72t-71 -58t-60.5 -63t-25 -74v-13h242v-117h-365v106q0 48 13.5 88.5t35.5 69t48.5 53t53 44.5t48.5 39t35.5 42t13.5 48v91q0 31 -17.5 49.5t-47.5 18.5q-31 0 -48.5 -18.5t-17.5 -49.5v-35h-117v35q0 84 49.5 134.5t133.5 50.5
q83 0 132.5 -50.5t49.5 -134.5v-91z" />
    <glyph glyph-name="three" unicode="3" horiz-adv-x="459" 
d="M400 581v-69q0 -77 -43 -126q43 -51 43 -127v-90q0 -84 -49.5 -134.5t-133.5 -50.5q-83 0 -132.5 50.5t-49.5 134.5v36h117v-36q0 -31 17.5 -49.5t47.5 -18.5q31 0 48.5 18.5t17.5 49.5v90q0 31 -17.5 49.5t-48.5 18.5h-72v117h72q31 0 48.5 18.5t17.5 49.5v69
q0 31 -17.5 49.5t-48.5 18.5q-30 0 -47.5 -18.5t-17.5 -49.5v-35h-117v35q0 84 49.5 134.5t132.5 50.5q84 0 133.5 -50.5t49.5 -134.5z" />
    <glyph glyph-name="four" unicode="4" horiz-adv-x="480" 
d="M392 255h60v-116h-60v-139h-117v139h-258v102l270 509h105v-495zM275 255v267l-136 -267h136z" />
    <glyph glyph-name="five" unicode="5" horiz-adv-x="476" 
d="M256 496q78 0 126.5 -51t48.5 -134v-142q0 -84 -49.5 -134.5t-132.5 -50.5q-84 0 -133.5 50.5t-49.5 134.5v36h117v-36q0 -31 17.5 -49.5t48.5 -18.5q30 0 47.5 18.5t17.5 49.5v142q0 31 -17.5 49.5t-49.5 18.5q-30 0 -47 -18.5t-17 -49.5v-8h-117v447h342v-117h-225
v-160q29 23 73 23z" />
    <glyph glyph-name="six" unicode="6" horiz-adv-x="483" 
d="M429 546h-117v35q0 31 -17.5 49.5t-48.5 18.5t-48.5 -18.5t-17.5 -49.5v-108q29 23 74 23q78 0 126.5 -51t48.5 -134v-142q0 -83 -50 -134t-133 -51t-133 51t-50 134v412q0 83 50 134t133 51t133 -51t50 -134v-35zM245 379q-30 0 -47.5 -18.5t-17.5 -49.5v-142
q0 -31 17.5 -49.5t48.5 -18.5t48.5 18.5t17.5 49.5v142q0 31 -18 49.5t-49 18.5z" />
    <glyph glyph-name="seven" unicode="7" horiz-adv-x="392" 
d="M13 750h359v-108l-184 -642h-122l190 633h-243v117z" />
    <glyph glyph-name="eight" unicode="8" horiz-adv-x="482" 
d="M424 581v-71q0 -77 -43 -126q43 -51 43 -127v-88q0 -83 -50 -134t-133 -51t-133 51t-50 134v88q0 77 44 127q-44 47 -44 126v71q0 83 50 134t133 51t133 -51t50 -134zM307 510v71q0 31 -17.5 49.5t-48.5 18.5t-48.5 -18.5t-17.5 -49.5v-71q0 -31 17.5 -49.5t48.5 -18.5
t48.5 18.5t17.5 49.5zM307 169v88q0 31 -17.5 49.5t-48.5 18.5t-48.5 -18.5t-17.5 -49.5v-88q0 -31 17.5 -49.5t48.5 -18.5t48.5 18.5t17.5 49.5z" />
    <glyph glyph-name="nine" unicode="9" horiz-adv-x="484" 
d="M238 766q83 0 133 -51t50 -134v-412q0 -83 -50 -134t-133 -51t-133 51t-50 134v36h117v-36q0 -31 17.5 -49.5t48.5 -18.5t48.5 18.5t17.5 49.5v108q-29 -23 -74 -23q-78 0 -126.5 51t-48.5 134v142q0 83 50 134t133 51zM239 371q30 0 47.5 18.5t17.5 49.5v142
q0 31 -17.5 49.5t-48.5 18.5t-48.5 -18.5t-17.5 -49.5v-142q0 -31 18 -49.5t49 -18.5z" />
    <glyph glyph-name="colon" unicode=":" horiz-adv-x="291" 
d="M87 244v132h117v-132h-117zM87 72v132h117v-132h-117z" />
    <glyph glyph-name="semicolon" unicode=";" horiz-adv-x="285" 
d="M80 233l9 143h117l-9 -143h-117zM66 18l31 186h109l-31 -186h-109z" />
    <glyph glyph-name="less" unicode="&#x3c;" horiz-adv-x="433" 
d="M372 0l-338 231v84l338 228v-125l-211 -144l211 -148v-126z" />
    <glyph glyph-name="equal" unicode="=" horiz-adv-x="532" 
d="M93 316v117h346v-117h-346zM93 116v117h346v-117h-346z" />
    <glyph glyph-name="greater" unicode="&#x3e;" horiz-adv-x="434" 
d="M61 0v126l210 148l-210 144v125l337 -228v-84z" />
    <glyph glyph-name="question" unicode="?" horiz-adv-x="429" 
d="M134 177v26q0 48 14.5 86t35 62t40.5 44.5t34.5 44t14.5 50.5v91q0 31 -17.5 49.5t-47.5 18.5q-31 0 -48.5 -18.5t-17.5 -49.5v-35h-117v35q0 83 50 134t133 51t132.5 -50.5t49.5 -134.5v-91q0 -41 -14.5 -74.5t-35 -57t-40.5 -45.5t-34.5 -50t-14.5 -60v-26h-117zM134 0
v136h117v-136h-117z" />
    <glyph glyph-name="at" unicode="@" horiz-adv-x="692" 
d="M348 765q124 0 199 -75.5t75 -198.5v-491h-109v26q-39 -41 -103 -41q-63 0 -103 48t-40 126v133q0 78 42 126t109 48q62 0 95 -35v60q0 75 -45 120t-120 45q-74 0 -120.5 -45.5t-46.5 -119.5v-425q0 -71 46.5 -114.5t121.5 -43.5h187v-109h-187q-124 0 -200.5 73.5
t-76.5 193.5v425q0 123 76.5 198.5t199.5 75.5zM444 86q31 0 50 20t19 53v133q0 33 -19 52.5t-50 19.5t-49.5 -19.5t-18.5 -52.5v-133q0 -33 18.5 -53t49.5 -20z" />
    <glyph glyph-name="A" unicode="A" horiz-adv-x="458" 
d="M293 750l146 -750h-120l-21 127h-137l-23 -127h-119l148 750h126zM179 244h101l-50 299z" />
    <glyph glyph-name="B" unicode="B" horiz-adv-x="505" 
d="M405 379q46 -51 46 -128v-70q0 -82 -48.5 -131.5t-129.5 -49.5h-195v750h185q81 0 129.5 -49.5t48.5 -130.5v-75q0 -69 -36 -116zM195 633v-201h68q28 0 44.5 17t16.5 46v75q0 29 -16.5 46t-44.5 17h-68zM334 181v70q0 29 -16.5 46.5t-44.5 17.5h-78v-198h78
q28 0 44.5 17.5t16.5 46.5z" />
    <glyph glyph-name="C" unicode="C" horiz-adv-x="470" 
d="M432 205v-36q0 -83 -50 -134t-133 -51t-132.5 50.5t-49.5 134.5v412q0 84 49.5 134.5t132.5 50.5t133 -51t50 -134v-35h-117v35q0 31 -17.5 49.5t-48.5 18.5q-30 0 -47.5 -18.5t-17.5 -49.5v-412q0 -31 17.5 -49.5t47.5 -18.5q31 0 48.5 18.5t17.5 49.5v36h117z" />
    <glyph glyph-name="D" unicode="D" horiz-adv-x="503" 
d="M78 0v750h180q83 0 133 -51t50 -134v-380q0 -83 -50 -134t-133 -51h-180zM195 117h63q31 0 48.5 18.5t17.5 49.5v380q0 31 -17.5 49.5t-48.5 18.5h-63v-516z" />
    <glyph glyph-name="E" unicode="E" horiz-adv-x="429" 
d="M385 750v-117h-190v-184h163v-117h-163v-215h190v-117h-307v750h307z" />
    <glyph glyph-name="F" unicode="F" horiz-adv-x="411" 
d="M78 0v750h307v-117h-190v-260h163v-117h-163v-256h-117z" />
    <glyph glyph-name="G" unicode="G" horiz-adv-x="488" 
d="M249 -16q-83 0 -132.5 50.5t-49.5 134.5v412q0 84 49.5 134.5t132.5 50.5t133 -51t50 -134v-35h-117v35q0 31 -17.5 49.5t-48.5 18.5q-30 0 -47.5 -18.5t-17.5 -49.5v-412q0 -31 17.5 -49.5t47.5 -18.5q31 0 48.5 18.5t17.5 49.5v85h-74v117h191v-202q0 -83 -50 -134
t-133 -51z" />
    <glyph glyph-name="H" unicode="H" horiz-adv-x="503" 
d="M78 0v750h117v-377h113v377h117v-750h-117v256h-113v-256h-117z" />
    <glyph glyph-name="I" unicode="I" horiz-adv-x="272" 
d="M195 0h-117v750h117v-750z" />
    <glyph glyph-name="J" unicode="J" horiz-adv-x="329" 
d="M12 -7v117h63q30 0 47.5 18.5t17.5 49.5v572h117v-572q0 -84 -49.5 -134.5t-132.5 -50.5h-63z" />
    <glyph glyph-name="K" unicode="K" horiz-adv-x="498" 
d="M480 750l-182 -273l181 -477h-126l-136 357l-22 -34v-323h-117v750h117v-236l159 236h126z" />
    <glyph glyph-name="L" unicode="L" horiz-adv-x="382" 
d="M195 750v-633h170v-117h-287v750h117z" />
    <glyph glyph-name="M" unicode="M" horiz-adv-x="658" 
d="M474 750h107v-750h-109v381l-104 -381h-78l-103 378v-378h-109v750h107l144 -547z" />
    <glyph glyph-name="N" unicode="N" horiz-adv-x="513" 
d="M326 750h109v-750h-90l-158 436v-436h-109v750h89l159 -436v436z" />
    <glyph glyph-name="O" unicode="O" horiz-adv-x="499" 
d="M249 -16q-83 0 -132.5 50.5t-49.5 134.5v412q0 84 49.5 134.5t132.5 50.5t133 -51t50 -134v-412q0 -83 -50 -134t-133 -51zM249 101q31 0 48.5 18.5t17.5 49.5v412q0 31 -17.5 49.5t-48.5 18.5q-30 0 -47.5 -18.5t-17.5 -49.5v-412q0 -31 17.5 -49.5t47.5 -18.5z" />
    <glyph glyph-name="P" unicode="P" horiz-adv-x="472" 
d="M78 0v750h185q81 0 129.5 -49.5t48.5 -130.5v-95q0 -81 -48.5 -130.5t-129.5 -49.5h-68v-295h-117zM195 412h68q28 0 44.5 17t16.5 46v95q0 29 -16.5 46t-44.5 17h-68v-221z" />
    <glyph glyph-name="Q" unicode="Q" horiz-adv-x="499" 
d="M432 581v-412q0 -82 -49 -133l33 -128h-119l-20 78q-18 -2 -28 -2q-83 0 -132.5 50.5t-49.5 134.5v412q0 84 49.5 134.5t132.5 50.5t133 -51t50 -134zM184 169q0 -30 16.5 -48.5t45.5 -19.5l-31 118h100v362q0 31 -17.5 49.5t-48.5 18.5q-30 0 -47.5 -18.5t-17.5 -49.5
v-412z" />
    <glyph glyph-name="R" unicode="R" horiz-adv-x="506" 
d="M441 455q0 -86 -54 -137q54 -37 54 -105v-213h-117v213q0 28 -16.5 45t-44.5 17h-68v-275h-117v750h185q81 0 129.5 -49.5t48.5 -130.5v-115zM324 455v115q0 29 -16.5 46t-44.5 17h-68v-241h68q28 0 44.5 17t16.5 46z" />
    <glyph glyph-name="S" unicode="S" horiz-adv-x="467" 
d="M235 -16q-84 0 -133.5 50.5t-49.5 134.5v36h117v-36q0 -31 17.5 -49.5t48.5 -18.5q30 0 47.5 18.5t17.5 49.5v71q0 31 -17.5 49.5t-47.5 18.5q-84 0 -133.5 50.5t-49.5 134.5v88q0 84 49.5 134.5t133.5 50.5q83 0 132.5 -50.5t49.5 -134.5v-35h-117v35q0 31 -17.5 49.5
t-47.5 18.5q-31 0 -48.5 -18.5t-17.5 -49.5v-88q0 -31 17.5 -49.5t48.5 -18.5q83 0 132.5 -50.5t49.5 -134.5v-71q0 -84 -49.5 -134.5t-132.5 -50.5z" />
    <glyph glyph-name="T" unicode="T" horiz-adv-x="374" 
d="M128 0v633h-115v117h348v-117h-116v-633h-117z" />
    <glyph glyph-name="U" unicode="U" horiz-adv-x="511" 
d="M438 750v-581q0 -83 -50 -134t-133 -51t-132.5 50.5t-49.5 134.5v581h117v-581q0 -31 17.5 -49.5t47.5 -18.5q31 0 48.5 18.5t17.5 49.5v581h117z" />
    <glyph glyph-name="V" unicode="V" horiz-adv-x="458" 
d="M319 750h120l-146 -750h-126l-148 750h119l92 -532z" />
    <glyph glyph-name="W" unicode="W" horiz-adv-x="672" 
d="M521 750h119l-96 -750h-126l-82 438l-83 -438h-126l-96 750h120l55 -495l82 495h96l82 -495z" />
    <glyph glyph-name="X" unicode="X" horiz-adv-x="453" 
d="M434 750l-147 -375l147 -375h-119l-88 221l-89 -221h-119l148 375l-148 375h120l88 -220l87 220h120z" />
    <glyph glyph-name="Y" unicode="Y" horiz-adv-x="459" 
d="M332 750h120l-163 -396v-354h-117v354l-165 396h120l103 -271z" />
    <glyph glyph-name="Z" unicode="Z" horiz-adv-x="432" 
d="M399 750v-86l-240 -547h240v-117h-366l-1 86l241 547h-240v117h366z" />
    <glyph glyph-name="bracketleft" unicode="[" horiz-adv-x="342" 
d="M74 -180v960h249v-117h-132v-726h132v-117h-249z" />
    <glyph glyph-name="backslash" unicode="\" horiz-adv-x="372" 
d="M375 -50h-118l-268 830h118z" />
    <glyph glyph-name="bracketright" unicode="]" horiz-adv-x="342" 
d="M20 -180v117h131v726h-131v117h248v-960h-248z" />
    <glyph glyph-name="asciicircum" unicode="^" horiz-adv-x="456" 
d="M33 485l155 265h84l151 -265h-116l-77 147l-79 -147h-118z" />
    <glyph glyph-name="underscore" unicode="_" horiz-adv-x="549" 
d="M87 -137v117h375v-117h-375z" />
    <glyph glyph-name="grave" unicode="`" horiz-adv-x="227" 
d="M112 608l-95 172h117l61 -172h-83z" />
    <glyph glyph-name="a" unicode="a" horiz-adv-x="444" 
d="M216 561q79 0 126.5 -50.5t47.5 -132.5v-378h-110v29q-38 -42 -105 -42q-68 0 -105.5 41t-37.5 108q0 94 86 137q21 11 69.5 26.5t70.5 31.5t22 44v11q0 30 -17 47.5t-47 17.5t-47.5 -17.5t-17.5 -47.5v-26h-109v18q0 82 47.5 132.5t126.5 50.5zM208 89q33 0 52.5 18
t19.5 55v82q-14 -11 -49.5 -23t-41.5 -14q-48 -20 -48 -59q0 -25 17.5 -42t49.5 -17z" />
    <glyph glyph-name="b" unicode="b" horiz-adv-x="461" 
d="M270 561q61 0 100.5 -41.5t39.5 -133.5v-224q0 -93 -39.5 -134t-100.5 -41q-63 0 -98 40v-27h-109v750h109v-229q35 40 98 40zM301 162v224q0 30 -17.5 47.5t-47.5 17.5t-47 -17.5t-17 -47.5v-224q0 -30 17 -48t47 -18t47.5 18t17.5 48z" />
    <glyph glyph-name="c" unicode="c" horiz-adv-x="425" 
d="M394 180v-10q0 -83 -47 -133t-126 -50t-126.5 50t-47.5 133v208q0 82 47.5 132.5t126.5 50.5q78 0 125.5 -50.5t47.5 -132.5v-10h-109v18q0 30 -17 47.5t-47 17.5t-47.5 -17.5t-17.5 -47.5v-224q0 -30 17.5 -48t47.5 -18t47 18t17 48v18h109z" />
    <glyph glyph-name="d" unicode="d" horiz-adv-x="461" 
d="M290 750h109v-750h-109v27q-35 -40 -98 -40q-62 0 -101.5 41t-39.5 134v224q0 92 40 133.5t101 41.5q63 0 98 -40v229zM225 96q30 0 47.5 18t17.5 48v224q0 30 -17.5 47.5t-47.5 17.5t-47 -17.5t-17 -47.5v-224q0 -30 17 -48t47 -18z" />
    <glyph glyph-name="e" unicode="e" horiz-adv-x="439" 
d="M394 248h-238v-86q0 -30 17.5 -48t47.5 -18t47 18t17 48v18h109v-10q0 -83 -47 -133t-126 -50t-126.5 50t-47.5 133v208q0 82 47.5 132.5t126.5 50.5q78 0 125.5 -50.5t47.5 -132.5v-130zM221 451q-30 0 -47.5 -17.5t-17.5 -47.5v-36h129v36q0 30 -17 47.5t-47 17.5z" />
    <glyph glyph-name="f" unicode="f" horiz-adv-x="327" 
d="M102 0v447h-100v101h100v35q0 78 47.5 127.5t126.5 49.5h50v-109h-50q-30 0 -47.5 -18.5t-17.5 -49.5v-35h115v-101h-115v-447h-109z" />
    <glyph glyph-name="g" unicode="g" horiz-adv-x="454" 
d="M282 548h110v-550q0 -82 -48 -131.5t-126 -49.5q-79 0 -126.5 50t-47.5 133v19h109v-27q0 -30 17.5 -48t47.5 -18t47 18t17 48v105q-35 -40 -97 -40t-101.5 41t-39.5 134v154q0 92 40 133.5t101 41.5q62 0 97 -40v27zM218 166q30 0 47 18t17 48v154q0 30 -17 47.5
t-47 17.5t-47 -17.5t-17 -47.5v-154q0 -30 17 -48t47 -18z" />
    <glyph glyph-name="h" unicode="h" horiz-adv-x="466" 
d="M270 561q59 0 98.5 -37.5t39.5 -114.5v-409h-109v386q0 30 -17 48t-46 18q-30 0 -47 -18t-17 -48v-386h-109v750h109v-229q35 40 98 40z" />
    <glyph glyph-name="i" unicode="i" 
d="M63 594v126h109v-126h-109zM63 0v548h109v-548h-109z" />
    <glyph glyph-name="j" unicode="j" 
d="M63 594v126h109v-126h-109zM-36 -183v109h34q30 0 47.5 18.5t17.5 49.5v554h109v-546q0 -84 -47.5 -134.5t-126.5 -50.5h-34z" />
    <glyph glyph-name="k" unicode="k" horiz-adv-x="440" 
d="M284 375l158 -375h-115l-114 276l-41 -55v-221h-109v750h109v-369l126 167h114z" />
    <glyph glyph-name="l" unicode="l" 
d="M63 0v750h109v-750h-109z" />
    <glyph glyph-name="m" unicode="m" horiz-adv-x="702" 
d="M507 561q59 0 98 -37.5t39 -114.5v-409h-109v386q0 29 -17 47t-46 18q-30 0 -47 -17.5t-17 -47.5v-386h-109v386q0 29 -17 47t-46 18q-30 0 -47 -17.5t-17 -47.5v-386h-109v548h109v-27q35 40 98 40q85 0 120 -66q36 66 117 66z" />
    <glyph glyph-name="n" unicode="n" horiz-adv-x="464" 
d="M270 561q64 0 101 -46.5t37 -128.5v-386h-109v386q0 29 -17 47t-46 18q-30 0 -47 -17.5t-17 -47.5v-386h-109v548h109v-30q36 43 98 43z" />
    <glyph glyph-name="o" unicode="o" horiz-adv-x="441" 
d="M221 -13q-79 0 -126.5 50t-47.5 133v208q0 82 47.5 132.5t126.5 50.5q78 0 125.5 -50.5t47.5 -132.5v-208q0 -83 -47 -133t-126 -50zM221 96q30 0 47 18t17 48v224q0 30 -17 47.5t-47 17.5t-47.5 -17.5t-17.5 -47.5v-224q0 -30 17.5 -48t47.5 -18z" />
    <glyph glyph-name="p" unicode="p" horiz-adv-x="461" 
d="M270 561q61 0 100.5 -41.5t39.5 -133.5v-224q0 -93 -39.5 -134t-100.5 -41q-63 0 -98 40v-207h-109v728h109v-27q35 40 98 40zM301 162v224q0 30 -17.5 47.5t-47.5 17.5t-47 -17.5t-17 -47.5v-224q0 -30 17 -48t47 -18t47.5 18t17.5 48z" />
    <glyph glyph-name="q" unicode="q" horiz-adv-x="461" 
d="M289 548h110v-720h-110v199q-35 -40 -97 -40t-101.5 41t-39.5 134v224q0 92 40 133.5t101 41.5q62 0 97 -40v27zM225 96q30 0 47 18t17 48v224q0 30 -17 47.5t-47 17.5t-47 -17.5t-17 -47.5v-224q0 -30 17 -48t47 -18z" />
    <glyph glyph-name="r" unicode="r" horiz-adv-x="296" 
d="M270 555h25v-110h-59q-30 0 -47 -15.5t-17 -44.5v-385h-109v548h109v-33q37 40 98 40z" />
    <glyph glyph-name="s" unicode="s" horiz-adv-x="421" 
d="M212 -13q-79 0 -126.5 49t-47.5 130v12h109v-20q0 -28 17.5 -45t47.5 -17q29 0 45.5 17.5t16.5 45.5t-17 46.5t-46 18.5q-79 0 -126 45.5t-47 120.5q0 77 47 124t126 47q78 0 125 -49t47 -130v-12h-109v20q0 28 -17 44.5t-46 16.5t-46.5 -17t-17.5 -44q0 -28 17.5 -46.5
t46.5 -18.5q78 0 125 -46t47 -120q0 -77 -46.5 -124.5t-124.5 -47.5z" />
    <glyph glyph-name="t" unicode="t" horiz-adv-x="339" 
d="M267 -7q-80 0 -127 47t-47 130v277h-92v101h92v132h110v-132h114v-101h-114v-277q0 -31 17 -49.5t47 -18.5h50v-109h-50z" />
    <glyph glyph-name="u" unicode="u" horiz-adv-x="465" 
d="M293 548h110v-548h-110v27q-35 -40 -98 -40q-61 0 -99.5 41t-38.5 134v386h109v-386q0 -30 17 -48t47 -18t46.5 18t16.5 48v386z" />
    <glyph glyph-name="v" unicode="v" horiz-adv-x="425" 
d="M302 548h119l-143 -548h-129l-146 548h119l92 -373z" />
    <glyph glyph-name="w" unicode="w" horiz-adv-x="586" 
d="M456 548h114l-94 -548h-114l-68 329l-70 -329h-114l-94 548h114l46 -363l69 363h97l68 -363z" />
    <glyph glyph-name="x" unicode="x" horiz-adv-x="406" 
d="M403 548l-145 -274l145 -274h-113l-86 163l-87 -163h-114l147 274l-147 274h114l87 -163l86 163h113z" />
    <glyph glyph-name="y" unicode="y" horiz-adv-x="423" 
d="M301 548h119l-201 -728h-112l49 177l-153 551h119l91 -365z" />
    <glyph glyph-name="z" unicode="z" horiz-adv-x="395" 
d="M369 548v-86l-208 -353h207v-109h-343v86l216 353h-214v109h342z" />
    <glyph glyph-name="braceleft" unicode="{" horiz-adv-x="367" 
d="M281 -180q-83 0 -132.5 50.5t-49.5 134.5v196q0 19 -10.5 30t-28.5 11h-50v117h50q18 0 28.5 11.5t10.5 29.5v195q0 84 49.5 134.5t132.5 50.5h66v-117h-66q-30 0 -47.5 -18.5t-17.5 -49.5v-195q0 -59 -47 -99q47 -42 47 -100v-196q0 -31 17.5 -49.5t47.5 -18.5h66v-117
h-66z" />
    <glyph glyph-name="bar" unicode="|" horiz-adv-x="304" 
d="M210 -150h-117v930h117v-930z" />
    <glyph glyph-name="braceright" unicode="}" horiz-adv-x="367" 
d="M20 -180v117h65q31 0 48.5 18.5t17.5 49.5v196q0 59 46 100q-46 39 -46 99v195q0 31 -17.5 49.5t-48.5 18.5h-65v117h65q83 0 133 -51t50 -134v-195q0 -18 10.5 -29.5t28.5 -11.5h50v-117h-50q-18 0 -28.5 -11t-10.5 -30v-196q0 -83 -50 -134t-133 -51h-65z" />
    <glyph glyph-name="asciitilde" unicode="~" horiz-adv-x="595" 
d="M74 186v27q0 64 34.5 99.5t100.5 35.5q40 0 69.5 -13.5t51 -27t39.5 -13.5q38 0 38 38v22h113v-30q0 -63 -32 -98.5t-88 -35.5q-35 0 -66 15.5t-56 31t-47 15.5q-21 0 -33 -12t-12 -33v-21h-112z" />
    <glyph glyph-name="uni00A0" unicode="&#xa0;" horiz-adv-x="232" 
 />
    <glyph glyph-name="exclamdown" unicode="&#xa1;" horiz-adv-x="291" 
d="M87 398v150h117v-150h-117zM87 -202v540h117v-540h-117z" />
    <glyph glyph-name="cent" unicode="&#xa2;" horiz-adv-x="467" 
d="M413 368h-109v18q0 46 -37 60v-345q37 14 37 61v18h109v-10q0 -75 -39.5 -124t-106.5 -57v-89h-55v89q-68 9 -107 57.5t-39 123.5v208q0 74 39.5 123t106.5 58v89h55v-89q67 -8 106.5 -57t39.5 -124v-10zM175 162q0 -46 37 -61v345q-37 -14 -37 -60v-224z" />
    <glyph glyph-name="sterling" unicode="&#xa3;" horiz-adv-x="531" 
d="M488 545h-117v35q0 31 -17.5 49.5t-48.5 18.5q-30 0 -47.5 -18.5t-17.5 -49.5v-153h113v-102h-113v-223h197v-102h-382v102h68v223h-68v102h68v153q0 84 49.5 134.5t132.5 50.5q84 0 133.5 -50.5t49.5 -134.5v-35z" />
    <glyph glyph-name="currency" unicode="&#xa4;" horiz-adv-x="554" 
d="M114 62l-56 56l72 73q-23 41 -23 91q0 49 23 90l-72 72l56 56l72 -72q42 24 92 24q52 0 90 -23l72 71l56 -56l-72 -71q23 -40 23 -91q0 -54 -24 -91l73 -73l-56 -56l-73 73q-39 -24 -89 -24t-91 25zM278 208q30 0 51.5 21t21.5 53q0 33 -21.5 53.5t-51.5 20.5
q-31 0 -53 -20.5t-22 -53.5q0 -32 22 -53t53 -21z" />
    <glyph glyph-name="yen" unicode="&#xa5;" horiz-adv-x="506" 
d="M476 750l-161 -390h87v-102h-89v-65h89v-102h-89v-91h-117v91h-91v102h91v65h-91v102h89l-163 390h120l103 -251l102 251h120z" />
    <glyph glyph-name="brokenbar" unicode="&#xa6;" horiz-adv-x="304" 
d="M210 414h-117v366h117v-366zM210 -150h-117v366h117v-366z" />
    <glyph glyph-name="section" unicode="&#xa7;" horiz-adv-x="485" 
d="M244 -36q-78 0 -126 51t-48 134v10h109v-18q0 -31 18 -49.5t47 -18.5q28 0 45.5 17t17.5 45q0 29 -17.5 47t-46.5 18q-78 0 -125.5 46t-47.5 121q0 70 42 114q-43 43 -43 114q0 76 47.5 123t124.5 47q78 0 126 -51t48 -134v-10h-109v18q0 31 -18 49.5t-47 18.5
q-28 0 -45 -17t-17 -44q0 -29 17.5 -47.5t45.5 -18.5q78 0 125.5 -45.5t47.5 -120.5q0 -71 -42 -115q43 -43 43 -113q0 -77 -47.5 -124t-124.5 -47zM243 301q29 1 46 17.5t17 44.5q0 29 -17.5 47t-46.5 18q-28 0 -45.5 -17t-17.5 -44q0 -30 17.5 -48t46.5 -18z" />
    <glyph glyph-name="dieresis" unicode="&#xa8;" horiz-adv-x="382" 
d="M63 653v127h96v-127h-96zM223 653v127h96v-127h-96z" />
    <glyph glyph-name="copyright" unicode="&#xa9;" horiz-adv-x="826" 
d="M412 -15q-163 0 -262.5 107.5t-99.5 283.5q0 175 99.5 282t262.5 107q164 0 264 -105t100 -277q0 -179 -100 -288.5t-264 -109.5zM412 61q130 0 209 88.5t79 233.5q0 138 -79 222t-209 84q-128 0 -207 -86t-79 -227q0 -142 79 -228.5t207 -86.5zM413 140q-51 0 -81 30.5
t-30 80.5v248q0 50 30 80.5t81 30.5q50 0 80 -30.5t30 -80.5v-23h-76v23q0 15 -9 25t-25 10t-25.5 -10t-9.5 -25v-248q0 -15 9.5 -25t25.5 -10t25 10t9 25v23h76v-23q0 -50 -30 -80.5t-80 -30.5z" />
    <glyph glyph-name="ordfeminine" unicode="&#xaa;" horiz-adv-x="328" 
d="M160 760q48 0 76.5 -30.5t28.5 -79.5v-227h-71v16q-22 -24 -60 -24q-40 0 -62 25t-22 65q0 57 51 82q13 7 41 17t40 19.5t12 25.5v6q0 35 -34 35q-16 0 -25 -9.5t-9 -25.5v-17h-70v12q0 50 28.5 80t75.5 30zM157 480q37 0 37 39v48q-5 -4 -13 -7.5t-19 -7.5t-16 -6
q-25 -12 -25 -33q0 -13 9.5 -23t26.5 -10z" />
    <glyph glyph-name="guillemotleft" unicode="&#xab;" horiz-adv-x="603" 
d="M265 0l-248 216v69l248 216v-133l-134 -118l134 -117v-133zM554 0l-248 216v69l248 216v-133l-133 -118l133 -117v-133z" />
    <glyph glyph-name="logicalnot" unicode="&#xac;" horiz-adv-x="557" 
d="M347 110v106h-278v117h395v-223h-117z" />
    <glyph glyph-name="uni00AD" unicode="&#xad;" horiz-adv-x="421" 
d="M73 216v117h295v-117h-295z" />
    <glyph glyph-name="registered" unicode="&#xae;" horiz-adv-x="826" 
d="M412 -15q-163 0 -262.5 107.5t-99.5 283.5q0 175 99.5 282t262.5 107q164 0 264 -105t100 -277q0 -179 -100 -288.5t-264 -109.5zM412 61q130 0 209 88.5t79 233.5q0 138 -79 222t-209 84q-128 0 -207 -86t-79 -227q0 -142 79 -228.5t207 -86.5zM302 150v450h111
q50 0 79.5 -30t29.5 -80v-70q0 -52 -31 -81q31 -22 31 -62v-127h-76v127q0 15 -9 24t-24 9h-35v-160h-76zM378 386h35q15 0 24 9.5t9 24.5v70q0 15 -9 24.5t-24 9.5h-35v-138z" />
    <glyph glyph-name="macron" unicode="&#xaf;" horiz-adv-x="359" 
d="M63 750h234v-80h-234v80z" />
    <glyph glyph-name="degree" unicode="&#xb0;" horiz-adv-x="412" 
d="M205 488q-57 0 -97.5 39t-40.5 99q0 61 40.5 100t97.5 39t98 -39t41 -100q0 -60 -41 -99t-98 -39zM205 568q25 0 42 16t17 42t-17 42.5t-42 16.5t-41.5 -16.5t-16.5 -42.5t16.5 -42t41.5 -16z" />
    <glyph glyph-name="plusminus" unicode="&#xb1;" horiz-adv-x="524" 
d="M321 418h139v-117h-139v-119h-117v119h-140v117h140v120h117v-120zM64 0v117h396v-117h-396z" />
    <glyph glyph-name="uni00B2" unicode="&#xb2;" horiz-adv-x="294" 
d="M35 330v70q0 39 15 70t36 49t42.5 33.5t36.5 32.5t15 37v57q0 15 -9.5 25t-25.5 10q-15 0 -24.5 -10t-9.5 -25v-23h-76v23q0 50 30.5 80.5t79.5 30.5q50 0 80.5 -30.5t30.5 -80.5v-57q0 -31 -14.5 -56t-35 -41.5t-41.5 -32t-35.5 -35.5t-14.5 -43v-8h141v-76h-221z" />
    <glyph glyph-name="uni00B3" unicode="&#xb3;" horiz-adv-x="300" 
d="M142 320q-50 0 -80.5 30.5t-30.5 80.5v23h76v-23q0 -15 9.5 -25t25.5 -10q15 0 24.5 10t9.5 25v58q0 15 -9.5 25t-24.5 10h-46v76h46q15 0 24.5 9.5t9.5 25.5v44q0 15 -9.5 25t-24.5 10q-16 0 -25.5 -10t-9.5 -25v-23h-76v23q0 50 30.5 80.5t80.5 30.5q49 0 79.5 -30.5
t30.5 -80.5v-44q0 -47 -25 -73q25 -28 25 -73v-58q0 -50 -30.5 -80.5t-79.5 -30.5z" />
    <glyph glyph-name="acute" unicode="&#xb4;" horiz-adv-x="227" 
d="M32 608l61 172h117l-95 -172h-83z" />
    <glyph glyph-name="uni00B5" unicode="&#xb5;" horiz-adv-x="520" 
d="M330 548h110v-548h-110v27q-35 -40 -98 -40q-11 0 -29 2v-139h-110v698h110v-384q0 -31 16.5 -49.5t46.5 -18.5t47 18.5t17 49.5v384z" />
    <glyph glyph-name="paragraph" unicode="&#xb6;" horiz-adv-x="478" 
d="M384 -150h-117v510h-54q-82 0 -130.5 49.5t-48.5 131.5v29q0 81 49 130.5t130 49.5h171v-900z" />
    <glyph glyph-name="periodcentered" unicode="&#xb7;" horiz-adv-x="275" 
d="M87 214v120h101v-120h-101z" />
    <glyph glyph-name="cedilla" unicode="&#xb8;" horiz-adv-x="279" 
d="M137 -52q50 6 82 -23t32 -72q0 -49 -31 -79t-82 -30h-82v81h82q32 0 32 28q0 13 -8.5 21t-23.5 8h-45l-36 19v120h80v-73z" />
    <glyph glyph-name="uni00B9" unicode="&#xb9;" horiz-adv-x="217" 
d="M81 330v324h-69v76h19q23 0 36.5 12t13.5 33v7h76v-452h-76z" />
    <glyph glyph-name="ordmasculine" unicode="&#xba;" horiz-adv-x="319" 
d="M159 415q-47 0 -75.5 30.5t-28.5 80.5v124q0 50 28.5 80t75.5 30q48 0 77 -30t29 -80v-124q0 -50 -29 -80.5t-77 -30.5zM159 486q16 0 25.5 9.5t9.5 24.5v135q0 16 -9.5 25.5t-25.5 9.5q-33 0 -33 -35v-135q0 -15 9 -24.5t24 -9.5z" />
    <glyph glyph-name="guillemotright" unicode="&#xbb;" horiz-adv-x="603" 
d="M49 0v133l133 117l-133 118v133l248 -216v-69zM338 0v133l133 117l-133 118v133l248 -216v-69z" />
    <glyph glyph-name="onequarter" unicode="&#xbc;" horiz-adv-x="764" 
d="M81 300v324h-69v76h19q23 0 36.5 12t13.5 33v7h76v-452h-76zM125 0l331 750h93l-331 -750h-93zM620 0v79h-151v66l160 305h67v-294h35v-77h-35v-79h-76zM548 156h72v144z" />
    <glyph glyph-name="onehalf" unicode="&#xbd;" horiz-adv-x="751" 
d="M81 300v324h-69v76h19q23 0 36.5 12t13.5 33v7h76v-452h-76zM125 0l331 750h93l-331 -750h-93zM492 0v70q0 39 15 70t36 49t42.5 33.5t36.5 32.5t15 37v57q0 15 -9.5 25t-25.5 10q-15 0 -24.5 -10t-9.5 -25v-23h-76v23q0 50 30.5 80.5t79.5 30.5q50 0 80.5 -30.5
t30.5 -80.5v-57q0 -31 -14.5 -56t-35.5 -41.5t-41.5 -32t-35 -35.5t-14.5 -43v-8h141v-76h-221z" />
    <glyph glyph-name="threequarters" unicode="&#xbe;" horiz-adv-x="847" 
d="M142 290q-50 0 -80.5 30.5t-30.5 80.5v23h76v-23q0 -15 9.5 -25t25.5 -10q15 0 24.5 10t9.5 25v58q0 15 -9.5 25t-24.5 10h-46v76h46q15 0 24.5 9.5t9.5 25.5v44q0 15 -9.5 25t-24.5 10q-16 0 -25.5 -10t-9.5 -25v-23h-76v23q0 50 30.5 80.5t80.5 30.5q49 0 79.5 -30.5
t30.5 -80.5v-44q0 -47 -25 -73q25 -28 25 -73v-58q0 -50 -30.5 -80.5t-79.5 -30.5zM208 0l331 750h93l-331 -750h-93zM703 0v79h-151v66l160 305h67v-294h35v-77h-35v-79h-76zM631 156h72v144z" />
    <glyph glyph-name="questiondown" unicode="&#xbf;" horiz-adv-x="430" 
d="M295 548v-136h-117v136h117zM295 371v-26q0 -48 -14.5 -86t-34.5 -62t-40.5 -44.5t-35 -44t-14.5 -50.5v-91q0 -31 17.5 -49.5t48.5 -18.5q30 0 47.5 18.5t17.5 49.5v35h117v-35q0 -84 -49.5 -134.5t-132.5 -50.5q-84 0 -133.5 50.5t-49.5 134.5v91q0 41 14.5 74.5
t34.5 56.5t40.5 45t35 50t14.5 61v26h117z" />
    <glyph glyph-name="Agrave" unicode="&#xc0;" horiz-adv-x="458" 
d="M273 810h-83l-95 172h117zM293 750l146 -750h-120l-21 127h-137l-23 -127h-119l148 750h126zM179 244h101l-50 299z" />
    <glyph glyph-name="Aacute" unicode="&#xc1;" horiz-adv-x="458" 
d="M365 982l-95 -172h-83l61 172h117zM293 750l146 -750h-120l-21 127h-137l-23 -127h-119l148 750h126zM179 244h101l-50 299z" />
    <glyph glyph-name="Acircumflex" unicode="&#xc2;" horiz-adv-x="458" 
d="M229 915l-60 -83h-103l116 150h92l116 -150h-103zM293 750l146 -750h-120l-21 127h-137l-23 -127h-119l148 750h126zM179 244h101l-50 299z" />
    <glyph glyph-name="Atilde" unicode="&#xc3;" horiz-adv-x="458" 
d="M172 858v-26h-88v33q0 38 19 59.5t50 21.5q42 0 76 -26q30 -22 43 -22t13 18v26h88v-35q0 -37 -19 -58.5t-50 -21.5q-38 0 -78 27q-29 21 -40 21q-14 0 -14 -17zM293 750l146 -750h-120l-21 127h-137l-23 -127h-119l148 750h126zM179 244h101l-50 299z" />
    <glyph glyph-name="Adieresis" unicode="&#xc4;" horiz-adv-x="458" 
d="M198 982v-127h-96v127h96zM358 982v-127h-96v127h96zM293 750l146 -750h-120l-21 127h-137l-23 -127h-119l148 750h126zM179 244h101l-50 299z" />
    <glyph glyph-name="Aring" unicode="&#xc5;" horiz-adv-x="458" 
d="M229 772q-43 0 -73.5 29t-30.5 75t30.5 75.5t73.5 29.5q44 0 74.5 -29.5t30.5 -75.5t-30.5 -75t-74.5 -29zM229 914q-15 0 -26 -10.5t-11 -27.5q0 -16 11 -26.5t26 -10.5t26.5 10.5t11.5 26.5q0 17 -11 27.5t-27 10.5zM293 750l146 -750h-120l-21 127h-137l-23 -127h-119
l148 750h126zM179 244h101l-50 299z" />
    <glyph glyph-name="AE" unicode="&#xc6;" horiz-adv-x="655" 
d="M19 0l148 750h445v-117h-192v-184h165v-117h-165v-215h192v-117h-309v127h-141l-24 -127h-119zM183 244h120v389h-48z" />
    <glyph glyph-name="Ccedilla" unicode="&#xc7;" horiz-adv-x="470" 
d="M432 546h-117v35q0 31 -17.5 49.5t-48.5 18.5q-30 0 -47.5 -18.5t-17.5 -49.5v-412q0 -31 17.5 -49.5t47.5 -18.5q31 0 48.5 18.5t17.5 49.5v36h117v-36q0 -71 -37 -119t-100 -61v-41q50 6 82 -23t32 -72q0 -49 -31 -79t-82 -30h-82v81h82q32 0 32 28q0 13 -8.5 21
t-23.5 8h-45l-36 19v85q-68 11 -108 60t-40 123v412q0 84 49.5 134.5t132.5 50.5t133 -51t50 -134v-35z" />
    <glyph glyph-name="Egrave" unicode="&#xc8;" horiz-adv-x="429" 
d="M174 810l-95 172h117l61 -172h-83zM385 750v-117h-190v-184h163v-117h-163v-215h190v-117h-307v750h307z" />
    <glyph glyph-name="Eacute" unicode="&#xc9;" horiz-adv-x="429" 
d="M171 810l61 172h117l-95 -172h-83zM385 750v-117h-190v-184h163v-117h-163v-215h190v-117h-307v750h307z" />
    <glyph glyph-name="Ecircumflex" unicode="&#xca;" horiz-adv-x="429" 
d="M50 832l116 150h92l116 -150h-103l-58 83l-60 -83h-103zM385 750v-117h-190v-184h163v-117h-163v-215h190v-117h-307v750h307z" />
    <glyph glyph-name="Edieresis" unicode="&#xcb;" horiz-adv-x="429" 
d="M86 855v127h96v-127h-96zM246 855v127h96v-127h-96zM385 750v-117h-190v-184h163v-117h-163v-215h190v-117h-307v750h307z" />
    <glyph glyph-name="Igrave" unicode="&#xcc;" horiz-adv-x="272" 
d="M98 810l-95 172h117l61 -172h-83zM195 0h-117v750h117v-750z" />
    <glyph glyph-name="Iacute" unicode="&#xcd;" horiz-adv-x="272" 
d="M95 810l61 172h117l-95 -172h-83zM195 0h-117v750h117v-750z" />
    <glyph glyph-name="Icircumflex" unicode="&#xce;" horiz-adv-x="272" 
d="M-26 832l116 150h92l116 -150h-103l-58 83l-60 -83h-103zM195 0h-117v750h117v-750z" />
    <glyph glyph-name="Idieresis" unicode="&#xcf;" horiz-adv-x="272" 
d="M10 855v127h96v-127h-96zM170 855v127h96v-127h-96zM195 0h-117v750h117v-750z" />
    <glyph glyph-name="Eth" unicode="&#xd0;" horiz-adv-x="503" 
d="M258 750q83 0 133 -51t50 -134v-380q0 -83 -50 -134t-133 -51h-180v326h-62v99h62v325h180zM324 185v380q0 31 -17.5 49.5t-48.5 18.5h-63v-208h66v-99h-66v-209h63q31 0 48.5 18.5t17.5 49.5z" />
    <glyph glyph-name="Ntilde" unicode="&#xd1;" horiz-adv-x="513" 
d="M199 858v-26h-88v33q0 38 19 59.5t50 21.5q42 0 76 -26q30 -22 43 -22t13 18v26h88v-35q0 -37 -19 -58.5t-50 -21.5q-37 0 -78 27q-29 21 -40 21q-14 0 -14 -17zM326 750h109v-750h-90l-158 436v-436h-109v750h89l159 -436v436z" />
    <glyph glyph-name="Ograve" unicode="&#xd2;" horiz-adv-x="499" 
d="M210 810l-95 172h117l61 -172h-83zM249 -16q-83 0 -132.5 50.5t-49.5 134.5v412q0 84 49.5 134.5t132.5 50.5t133 -51t50 -134v-412q0 -83 -50 -134t-133 -51zM249 101q31 0 48.5 18.5t17.5 49.5v412q0 31 -17.5 49.5t-48.5 18.5q-30 0 -47.5 -18.5t-17.5 -49.5v-412
q0 -31 17.5 -49.5t47.5 -18.5z" />
    <glyph glyph-name="Oacute" unicode="&#xd3;" horiz-adv-x="499" 
d="M207 810l61 172h117l-95 -172h-83zM249 -16q-83 0 -132.5 50.5t-49.5 134.5v412q0 84 49.5 134.5t132.5 50.5t133 -51t50 -134v-412q0 -83 -50 -134t-133 -51zM249 101q31 0 48.5 18.5t17.5 49.5v412q0 31 -17.5 49.5t-48.5 18.5q-30 0 -47.5 -18.5t-17.5 -49.5v-412
q0 -31 17.5 -49.5t47.5 -18.5z" />
    <glyph glyph-name="Ocircumflex" unicode="&#xd4;" horiz-adv-x="499" 
d="M86 832l116 150h92l116 -150h-103l-58 83l-60 -83h-103zM249 -16q-83 0 -132.5 50.5t-49.5 134.5v412q0 84 49.5 134.5t132.5 50.5t133 -51t50 -134v-412q0 -83 -50 -134t-133 -51zM249 101q31 0 48.5 18.5t17.5 49.5v412q0 31 -17.5 49.5t-48.5 18.5q-30 0 -47.5 -18.5
t-17.5 -49.5v-412q0 -31 17.5 -49.5t47.5 -18.5z" />
    <glyph glyph-name="Otilde" unicode="&#xd5;" horiz-adv-x="499" 
d="M324 827q-38 0 -78 27q-29 21 -40 21q-14 0 -14 -17v-26h-88v33q0 38 19 59.5t50 21.5q42 0 76 -26q30 -22 43 -22t13 18v26h88v-35q0 -37 -19 -58.5t-50 -21.5zM249 -16q-83 0 -132.5 50.5t-49.5 134.5v412q0 84 49.5 134.5t132.5 50.5t133 -51t50 -134v-412
q0 -83 -50 -134t-133 -51zM249 101q31 0 48.5 18.5t17.5 49.5v412q0 31 -17.5 49.5t-48.5 18.5q-30 0 -47.5 -18.5t-17.5 -49.5v-412q0 -31 17.5 -49.5t47.5 -18.5z" />
    <glyph glyph-name="Odieresis" unicode="&#xd6;" horiz-adv-x="499" 
d="M122 855v127h96v-127h-96zM282 855v127h96v-127h-96zM249 -16q-83 0 -132.5 50.5t-49.5 134.5v412q0 84 49.5 134.5t132.5 50.5t133 -51t50 -134v-412q0 -83 -50 -134t-133 -51zM249 101q31 0 48.5 18.5t17.5 49.5v412q0 31 -17.5 49.5t-48.5 18.5q-30 0 -47.5 -18.5
t-17.5 -49.5v-412q0 -31 17.5 -49.5t47.5 -18.5z" />
    <glyph glyph-name="multiply" unicode="&#xd7;" horiz-adv-x="460" 
d="M412 177l-84 -83l-98 99l-99 -99l-83 83l99 99l-98 98l83 83l98 -98l98 98l83 -83l-98 -98z" />
    <glyph glyph-name="Oslash" unicode="&#xd8;" horiz-adv-x="499" 
d="M493 783l-70 -138q9 -28 9 -64v-412q0 -83 -50 -134t-133 -51q-85 0 -135 53l-36 -71h-72l70 138q-9 30 -9 65v412q0 84 49.5 134.5t132.5 50.5q85 0 136 -54l36 71h72zM184 581v-265l131 258v7q0 31 -17.5 49.5t-48.5 18.5q-30 0 -47.5 -18.5t-17.5 -49.5zM315 169v264
l-131 -258v-6q0 -31 17.5 -49.5t47.5 -18.5q31 0 48.5 18.5t17.5 49.5z" />
    <glyph glyph-name="Ugrave" unicode="&#xd9;" horiz-adv-x="511" 
d="M216 810l-95 172h117l61 -172h-83zM438 750v-581q0 -83 -50 -134t-133 -51t-132.5 50.5t-49.5 134.5v581h117v-581q0 -31 17.5 -49.5t47.5 -18.5q31 0 48.5 18.5t17.5 49.5v581h117z" />
    <glyph glyph-name="Uacute" unicode="&#xda;" horiz-adv-x="511" 
d="M213 810l61 172h117l-95 -172h-83zM438 750v-581q0 -83 -50 -134t-133 -51t-132.5 50.5t-49.5 134.5v581h117v-581q0 -31 17.5 -49.5t47.5 -18.5q31 0 48.5 18.5t17.5 49.5v581h117z" />
    <glyph glyph-name="Ucircumflex" unicode="&#xdb;" horiz-adv-x="511" 
d="M92 832l116 150h92l116 -150h-103l-58 83l-60 -83h-103zM438 750v-581q0 -83 -50 -134t-133 -51t-132.5 50.5t-49.5 134.5v581h117v-581q0 -31 17.5 -49.5t47.5 -18.5q31 0 48.5 18.5t17.5 49.5v581h117z" />
    <glyph glyph-name="Udieresis" unicode="&#xdc;" horiz-adv-x="511" 
d="M128 855v127h96v-127h-96zM288 855v127h96v-127h-96zM438 750v-581q0 -83 -50 -134t-133 -51t-132.5 50.5t-49.5 134.5v581h117v-581q0 -31 17.5 -49.5t47.5 -18.5q31 0 48.5 18.5t17.5 49.5v581h117z" />
    <glyph glyph-name="Yacute" unicode="&#xdd;" horiz-adv-x="459" 
d="M366 982l-95 -172h-83l61 172h117zM332 750h120l-163 -396v-354h-117v354l-165 396h120l103 -271z" />
    <glyph glyph-name="Thorn" unicode="&#xde;" horiz-adv-x="472" 
d="M78 0v750h117v-98h68q81 0 129.5 -49.5t48.5 -131.5v-94q0 -81 -48.5 -131t-129.5 -50h-68v-196h-117zM195 313h68q28 0 44.5 17.5t16.5 46.5v94q0 29 -16.5 46.5t-44.5 17.5h-68v-222z" />
    <glyph glyph-name="germandbls" unicode="&#xdf;" horiz-adv-x="499" 
d="M408 379q46 -53 46 -128v-82q0 -81 -49 -131t-130 -50h-38v117h38q29 0 45.5 17.5t16.5 46.5v82q0 29 -16.5 46.5t-45.5 17.5h-37v117h27q29 0 45.5 17t16.5 46v78q0 34 -20.5 55t-53.5 21t-53 -21t-20 -55v-693h-117v693q0 87 52 140t138 53t138.5 -53t52.5 -140v-78
q0 -69 -36 -116z" />
    <glyph glyph-name="agrave" unicode="&#xe0;" horiz-adv-x="444" 
d="M260 608h-83l-95 172h117zM216 561q79 0 126.5 -50.5t47.5 -132.5v-378h-110v29q-38 -42 -105 -42q-68 0 -105.5 41t-37.5 108q0 94 86 137q21 11 69.5 26.5t70.5 31.5t22 44v11q0 30 -17 47.5t-47 17.5t-47.5 -17.5t-17.5 -47.5v-26h-109v18q0 82 47.5 132.5t126.5 50.5
zM208 89q33 0 52.5 18t19.5 55v82q-14 -11 -49.5 -23t-41.5 -14q-48 -20 -48 -59q0 -25 17.5 -42t49.5 -17z" />
    <glyph glyph-name="aacute" unicode="&#xe1;" horiz-adv-x="444" 
d="M352 780l-95 -172h-83l61 172h117zM216 561q79 0 126.5 -50.5t47.5 -132.5v-378h-110v29q-38 -42 -105 -42q-68 0 -105.5 41t-37.5 108q0 94 86 137q21 11 69.5 26.5t70.5 31.5t22 44v11q0 30 -17 47.5t-47 17.5t-47.5 -17.5t-17.5 -47.5v-26h-109v18q0 82 47.5 132.5
t126.5 50.5zM208 89q33 0 52.5 18t19.5 55v82q-14 -11 -49.5 -23t-41.5 -14q-48 -20 -48 -59q0 -25 17.5 -42t49.5 -17z" />
    <glyph glyph-name="acircumflex" unicode="&#xe2;" horiz-adv-x="444" 
d="M216 713l-60 -83h-103l116 150h92l116 -150h-103zM216 561q79 0 126.5 -50.5t47.5 -132.5v-378h-110v29q-38 -42 -105 -42q-68 0 -105.5 41t-37.5 108q0 94 86 137q21 11 69.5 26.5t70.5 31.5t22 44v11q0 30 -17 47.5t-47 17.5t-47.5 -17.5t-17.5 -47.5v-26h-109v18
q0 82 47.5 132.5t126.5 50.5zM208 89q33 0 52.5 18t19.5 55v82q-14 -11 -49.5 -23t-41.5 -14q-48 -20 -48 -59q0 -25 17.5 -42t49.5 -17z" />
    <glyph glyph-name="atilde" unicode="&#xe3;" horiz-adv-x="444" 
d="M159 656v-26h-88v33q0 38 19 59.5t50 21.5q42 0 76 -26q30 -22 43 -22t13 18v26h88v-35q0 -37 -19 -58.5t-50 -21.5q-37 0 -78 27q-29 21 -40 21q-14 0 -14 -17zM216 561q79 0 126.5 -50.5t47.5 -132.5v-378h-110v29q-38 -42 -105 -42q-68 0 -105.5 41t-37.5 108
q0 94 86 137q21 11 69.5 26.5t70.5 31.5t22 44v11q0 30 -17 47.5t-47 17.5t-47.5 -17.5t-17.5 -47.5v-26h-109v18q0 82 47.5 132.5t126.5 50.5zM208 89q33 0 52.5 18t19.5 55v82q-14 -11 -49.5 -23t-41.5 -14q-48 -20 -48 -59q0 -25 17.5 -42t49.5 -17z" />
    <glyph glyph-name="adieresis" unicode="&#xe4;" horiz-adv-x="444" 
d="M185 780v-127h-96v127h96zM345 780v-127h-96v127h96zM216 561q79 0 126.5 -50.5t47.5 -132.5v-378h-110v29q-38 -42 -105 -42q-68 0 -105.5 41t-37.5 108q0 94 86 137q21 11 69.5 26.5t70.5 31.5t22 44v11q0 30 -17 47.5t-47 17.5t-47.5 -17.5t-17.5 -47.5v-26h-109v18
q0 82 47.5 132.5t126.5 50.5zM208 89q33 0 52.5 18t19.5 55v82q-14 -11 -49.5 -23t-41.5 -14q-48 -20 -48 -59q0 -25 17.5 -42t49.5 -17z" />
    <glyph glyph-name="aring" unicode="&#xe5;" horiz-adv-x="444" 
d="M216 570q-43 0 -73.5 29t-30.5 75t30.5 75.5t73.5 29.5q44 0 74.5 -29.5t30.5 -75.5t-30.5 -75t-74.5 -29zM216 712q-15 0 -26 -10.5t-11 -27.5q0 -16 11 -26.5t26 -10.5t26.5 10.5t11.5 26.5q0 17 -11 27.5t-27 10.5zM216 561q79 0 126.5 -50.5t47.5 -132.5v-378h-110
v29q-38 -42 -105 -42q-68 0 -105.5 41t-37.5 108q0 94 86 137q21 11 69.5 26.5t70.5 31.5t22 44v11q0 30 -17 47.5t-47 17.5t-47.5 -17.5t-17.5 -47.5v-26h-109v18q0 82 47.5 132.5t126.5 50.5zM208 89q33 0 52.5 18t19.5 55v82q-14 -11 -49.5 -23t-41.5 -14
q-48 -20 -48 -59q0 -25 17.5 -42t49.5 -17z" />
    <glyph glyph-name="ae" unicode="&#xe6;" horiz-adv-x="672" 
d="M628 248h-238v-86q0 -30 17.5 -48t47.5 -18t47 18t17 48v18h109v-10q0 -83 -47 -133t-126 -50q-98 0 -146 74q-39 -74 -134 -74q-68 0 -105.5 41t-37.5 108q0 94 86 137q21 11 69.5 26.5t70.5 31.5t22 44v11q0 30 -17 47.5t-47 17.5t-47.5 -17.5t-17.5 -47.5v-26h-109v18
q0 82 47.5 132.5t126.5 50.5q71 0 120 -44q46 44 119 44q78 0 125.5 -50.5t47.5 -132.5v-130zM390 386v-36h129v36q0 30 -17 47.5t-47 17.5t-47.5 -17.5t-17.5 -47.5zM280 162v82q-14 -11 -49.5 -23t-41.5 -14q-48 -20 -48 -59q0 -25 17.5 -42t49.5 -17q33 0 52.5 18
t19.5 55z" />
    <glyph glyph-name="ccedilla" unicode="&#xe7;" horiz-adv-x="425" 
d="M394 368h-109v18q0 30 -17 47.5t-47 17.5t-47.5 -17.5t-17.5 -47.5v-224q0 -30 17.5 -48t47.5 -18t47 18t17 48v18h109v-10q0 -69 -34 -116.5t-93 -61.5v-44q50 6 82 -23t32 -72q0 -49 -31 -79t-82 -30h-82v81h82q32 0 32 28q0 13 -8.5 21t-23.5 8h-45l-36 19v89
q-65 11 -102.5 59t-37.5 121v208q0 82 47.5 132.5t126.5 50.5q78 0 125.5 -50.5t47.5 -132.5v-10z" />
    <glyph glyph-name="egrave" unicode="&#xe8;" horiz-adv-x="439" 
d="M265 608h-83l-95 172h117zM394 248h-238v-86q0 -30 17.5 -48t47.5 -18t47 18t17 48v18h109v-10q0 -83 -47 -133t-126 -50t-126.5 50t-47.5 133v208q0 82 47.5 132.5t126.5 50.5q78 0 125.5 -50.5t47.5 -132.5v-130zM221 451q-30 0 -47.5 -17.5t-17.5 -47.5v-36h129v36
q0 30 -17 47.5t-47 17.5z" />
    <glyph glyph-name="eacute" unicode="&#xe9;" horiz-adv-x="439" 
d="M357 780l-95 -172h-83l61 172h117zM394 248h-238v-86q0 -30 17.5 -48t47.5 -18t47 18t17 48v18h109v-10q0 -83 -47 -133t-126 -50t-126.5 50t-47.5 133v208q0 82 47.5 132.5t126.5 50.5q78 0 125.5 -50.5t47.5 -132.5v-130zM221 451q-30 0 -47.5 -17.5t-17.5 -47.5v-36
h129v36q0 30 -17 47.5t-47 17.5z" />
    <glyph glyph-name="ecircumflex" unicode="&#xea;" horiz-adv-x="439" 
d="M221 713l-60 -83h-103l116 150h92l116 -150h-103zM394 248h-238v-86q0 -30 17.5 -48t47.5 -18t47 18t17 48v18h109v-10q0 -83 -47 -133t-126 -50t-126.5 50t-47.5 133v208q0 82 47.5 132.5t126.5 50.5q78 0 125.5 -50.5t47.5 -132.5v-130zM221 451q-30 0 -47.5 -17.5
t-17.5 -47.5v-36h129v36q0 30 -17 47.5t-47 17.5z" />
    <glyph glyph-name="edieresis" unicode="&#xeb;" horiz-adv-x="439" 
d="M190 780v-127h-96v127h96zM350 780v-127h-96v127h96zM394 248h-238v-86q0 -30 17.5 -48t47.5 -18t47 18t17 48v18h109v-10q0 -83 -47 -133t-126 -50t-126.5 50t-47.5 133v208q0 82 47.5 132.5t126.5 50.5q78 0 125.5 -50.5t47.5 -132.5v-130zM221 451q-30 0 -47.5 -17.5
t-17.5 -47.5v-36h129v36q0 30 -17 47.5t-47 17.5z" />
    <glyph glyph-name="igrave" unicode="&#xec;" 
d="M79 608l-95 172h117l61 -172h-83zM63 0v548h109v-548h-109z" />
    <glyph glyph-name="iacute" unicode="&#xed;" 
d="M76 608l61 172h117l-95 -172h-83zM63 0v548h109v-548h-109z" />
    <glyph glyph-name="icircumflex" unicode="&#xee;" 
d="M-45 630l116 150h92l116 -150h-103l-58 83l-60 -83h-103zM63 0v548h109v-548h-109z" />
    <glyph glyph-name="idieresis" unicode="&#xef;" 
d="M-9 653v127h96v-127h-96zM151 653v127h96v-127h-96zM63 0v548h109v-548h-109z" />
    <glyph glyph-name="eth" unicode="&#xf0;" horiz-adv-x="461" 
d="M443 688v-66l-44 -12v-4v-606h-109v27q-35 -40 -98 -40q-62 0 -101.5 41t-39.5 134v224q0 92 40 133.5t101 41.5q63 0 98 -40v60l-62 -16v66l51 14q-17 27 -54 27h-26v78h65q88 0 122 -77zM225 96q30 0 47.5 18t17.5 48v224q0 30 -17.5 47.5t-47.5 17.5t-47 -17.5
t-17 -47.5v-224q0 -30 17 -48t47 -18z" />
    <glyph glyph-name="ntilde" unicode="&#xf1;" horiz-adv-x="464" 
d="M178 656v-26h-88v33q0 38 19 59.5t50 21.5q42 0 76 -26q30 -22 43 -22t13 18v26h88v-35q0 -37 -19 -58.5t-50 -21.5q-38 0 -78 27q-29 21 -40 21q-14 0 -14 -17zM270 561q64 0 101 -46.5t37 -128.5v-386h-109v386q0 29 -17 47t-46 18q-30 0 -47 -17.5t-17 -47.5v-386
h-109v548h109v-30q36 43 98 43z" />
    <glyph glyph-name="ograve" unicode="&#xf2;" horiz-adv-x="441" 
d="M182 608l-95 172h117l61 -172h-83zM221 -13q-79 0 -126.5 50t-47.5 133v208q0 82 47.5 132.5t126.5 50.5q78 0 125.5 -50.5t47.5 -132.5v-208q0 -83 -47 -133t-126 -50zM221 96q30 0 47 18t17 48v224q0 30 -17 47.5t-47 17.5t-47.5 -17.5t-17.5 -47.5v-224
q0 -30 17.5 -48t47.5 -18z" />
    <glyph glyph-name="oacute" unicode="&#xf3;" horiz-adv-x="441" 
d="M179 608l61 172h117l-95 -172h-83zM221 -13q-79 0 -126.5 50t-47.5 133v208q0 82 47.5 132.5t126.5 50.5q78 0 125.5 -50.5t47.5 -132.5v-208q0 -83 -47 -133t-126 -50zM221 96q30 0 47 18t17 48v224q0 30 -17 47.5t-47 17.5t-47.5 -17.5t-17.5 -47.5v-224
q0 -30 17.5 -48t47.5 -18z" />
    <glyph glyph-name="ocircumflex" unicode="&#xf4;" horiz-adv-x="441" 
d="M58 630l116 150h92l116 -150h-103l-58 83l-60 -83h-103zM221 -13q-79 0 -126.5 50t-47.5 133v208q0 82 47.5 132.5t126.5 50.5q78 0 125.5 -50.5t47.5 -132.5v-208q0 -83 -47 -133t-126 -50zM221 96q30 0 47 18t17 48v224q0 30 -17 47.5t-47 17.5t-47.5 -17.5
t-17.5 -47.5v-224q0 -30 17.5 -48t47.5 -18z" />
    <glyph glyph-name="otilde" unicode="&#xf5;" horiz-adv-x="441" 
d="M296 625q-38 0 -78 27q-29 21 -40 21q-14 0 -14 -17v-26h-88v33q0 38 19 59.5t50 21.5q42 0 76 -26q30 -22 43 -22t13 18v26h88v-35q0 -37 -19 -58.5t-50 -21.5zM221 -13q-79 0 -126.5 50t-47.5 133v208q0 82 47.5 132.5t126.5 50.5q78 0 125.5 -50.5t47.5 -132.5v-208
q0 -83 -47 -133t-126 -50zM221 96q30 0 47 18t17 48v224q0 30 -17 47.5t-47 17.5t-47.5 -17.5t-17.5 -47.5v-224q0 -30 17.5 -48t47.5 -18z" />
    <glyph glyph-name="odieresis" unicode="&#xf6;" horiz-adv-x="441" 
d="M94 653v127h96v-127h-96zM254 653v127h96v-127h-96zM221 -13q-79 0 -126.5 50t-47.5 133v208q0 82 47.5 132.5t126.5 50.5q78 0 125.5 -50.5t47.5 -132.5v-208q0 -83 -47 -133t-126 -50zM221 96q30 0 47 18t17 48v224q0 30 -17 47.5t-47 17.5t-47.5 -17.5t-17.5 -47.5
v-224q0 -30 17.5 -48t47.5 -18z" />
    <glyph glyph-name="divide" unicode="&#xf7;" horiz-adv-x="527" 
d="M206 372v132h117v-132h-117zM46 216v117h435v-117h-435zM206 46v132h117v-132h-117z" />
    <glyph glyph-name="oslash" unicode="&#xf8;" horiz-adv-x="441" 
d="M413 568l-45 -85q26 -44 26 -105v-208q0 -83 -47 -133t-126 -50q-59 0 -102 29l-19 -36h-72l45 85q-26 44 -26 105v208q0 82 47.5 132.5t126.5 50.5q58 0 101 -29l19 36h72zM156 386v-166l113 212q-17 19 -48 19q-30 0 -47.5 -17.5t-17.5 -47.5zM285 162v166l-113 -213
q17 -19 49 -19q30 0 47 18t17 48z" />
    <glyph glyph-name="ugrave" unicode="&#xf9;" horiz-adv-x="465" 
d="M276 608h-83l-95 172h117zM293 548h110v-548h-110v27q-35 -40 -98 -40q-61 0 -99.5 41t-38.5 134v386h109v-386q0 -30 17 -48t47 -18t46.5 18t16.5 48v386z" />
    <glyph glyph-name="uacute" unicode="&#xfa;" horiz-adv-x="465" 
d="M368 780l-95 -172h-83l61 172h117zM293 548h110v-548h-110v27q-35 -40 -98 -40q-61 0 -99.5 41t-38.5 134v386h109v-386q0 -30 17 -48t47 -18t46.5 18t16.5 48v386z" />
    <glyph glyph-name="ucircumflex" unicode="&#xfb;" horiz-adv-x="465" 
d="M232 713l-60 -83h-103l116 150h92l116 -150h-103zM293 548h110v-548h-110v27q-35 -40 -98 -40q-61 0 -99.5 41t-38.5 134v386h109v-386q0 -30 17 -48t47 -18t46.5 18t16.5 48v386z" />
    <glyph glyph-name="udieresis" unicode="&#xfc;" horiz-adv-x="465" 
d="M201 780v-127h-96v127h96zM361 780v-127h-96v127h96zM293 548h110v-548h-110v27q-35 -40 -98 -40q-61 0 -99.5 41t-38.5 134v386h109v-386q0 -30 17 -48t47 -18t46.5 18t16.5 48v386z" />
    <glyph glyph-name="yacute" unicode="&#xfd;" horiz-adv-x="423" 
d="M348 780l-95 -172h-83l61 172h117zM301 548h119l-201 -728h-112l49 177l-153 551h119l91 -365z" />
    <glyph glyph-name="thorn" unicode="&#xfe;" horiz-adv-x="461" 
d="M270 561q61 0 100.5 -41.5t39.5 -133.5v-224q0 -93 -39.5 -134t-100.5 -41q-63 0 -98 40v-207h-109v930h109v-229q35 40 98 40zM301 162v224q0 30 -17.5 47.5t-47.5 17.5t-47 -17.5t-17 -47.5v-224q0 -30 17 -48t47 -18t47.5 18t17.5 48z" />
    <glyph glyph-name="ydieresis" unicode="&#xff;" horiz-adv-x="423" 
d="M181 780v-127h-96v127h96zM341 780v-127h-96v127h96zM301 548h119l-201 -728h-112l49 177l-153 551h119l91 -365z" />
    <glyph glyph-name="Amacron" unicode="&#x100;" horiz-adv-x="458" 
d="M347 898v-80h-234v80h234zM293 750l146 -750h-120l-21 127h-137l-23 -127h-119l148 750h126zM179 244h101l-50 299z" />
    <glyph glyph-name="amacron" unicode="&#x101;" horiz-adv-x="444" 
d="M334 696v-80h-234v80h234zM216 561q79 0 126.5 -50.5t47.5 -132.5v-378h-110v29q-38 -42 -105 -42q-68 0 -105.5 41t-37.5 108q0 94 86 137q21 11 69.5 26.5t70.5 31.5t22 44v11q0 30 -17 47.5t-47 17.5t-47.5 -17.5t-17.5 -47.5v-26h-109v18q0 82 47.5 132.5t126.5 50.5
zM208 89q33 0 52.5 18t19.5 55v82q-14 -11 -49.5 -23t-41.5 -14q-48 -20 -48 -59q0 -25 17.5 -42t49.5 -17z" />
    <glyph glyph-name="Abreve" unicode="&#x102;" horiz-adv-x="458" 
d="M229 853q-55 0 -89 32t-34 85v12h75v-12q0 -23 13.5 -36.5t34.5 -13.5t34 13.5t13 36.5v12h75v-12q0 -53 -33.5 -85t-88.5 -32zM293 750l146 -750h-120l-21 127h-137l-23 -127h-119l148 750h126zM179 244h101l-50 299z" />
    <glyph glyph-name="abreve" unicode="&#x103;" horiz-adv-x="444" 
d="M216 651q-55 0 -89 32t-34 85v12h75v-12q0 -23 13.5 -36.5t34.5 -13.5t34 13.5t13 36.5v12h75v-12q0 -53 -33.5 -85t-88.5 -32zM216 561q79 0 126.5 -50.5t47.5 -132.5v-378h-110v29q-38 -42 -105 -42q-68 0 -105.5 41t-37.5 108q0 94 86 137q21 11 69.5 26.5t70.5 31.5
t22 44v11q0 30 -17 47.5t-47 17.5t-47.5 -17.5t-17.5 -47.5v-26h-109v18q0 82 47.5 132.5t126.5 50.5zM208 89q33 0 52.5 18t19.5 55v82q-14 -11 -49.5 -23t-41.5 -14q-48 -20 -48 -59q0 -25 17.5 -42t49.5 -17z" />
    <glyph glyph-name="Aogonek" unicode="&#x104;" horiz-adv-x="458" 
d="M423 -156h18v-80h-26q-65 0 -102.5 33t-37.5 86q0 66 59 117h-15l-21 127h-137l-23 -127h-119l148 750h126l146 -750h-26q-58 -47 -58 -98q0 -25 18.5 -41.5t49.5 -16.5zM179 244h101l-50 299z" />
    <glyph glyph-name="aogonek" unicode="&#x105;" horiz-adv-x="444" 
d="M375 -156h18v-80h-26q-65 0 -102.5 33t-37.5 86q0 66 59 117h-6v29q-38 -42 -105 -42q-68 0 -105.5 41t-37.5 108q0 94 86 137q21 11 69.5 26.5t70.5 31.5t22 44v11q0 30 -17 47.5t-47 17.5t-47.5 -17.5t-17.5 -47.5v-26h-109v18q0 82 47.5 132.5t126.5 50.5t126.5 -50.5
t47.5 -132.5v-378h-25q-58 -47 -58 -98q0 -25 18.5 -41.5t49.5 -16.5zM208 89q33 0 52.5 18t19.5 55v82q-14 -11 -49.5 -23t-41.5 -14q-48 -20 -48 -59q0 -25 17.5 -42t49.5 -17z" />
    <glyph glyph-name="Cacute" unicode="&#x106;" horiz-adv-x="470" 
d="M207 810l61 172h117l-95 -172h-83zM432 205v-36q0 -83 -50 -134t-133 -51t-132.5 50.5t-49.5 134.5v412q0 84 49.5 134.5t132.5 50.5t133 -51t50 -134v-35h-117v35q0 31 -17.5 49.5t-48.5 18.5q-30 0 -47.5 -18.5t-17.5 -49.5v-412q0 -31 17.5 -49.5t47.5 -18.5
q31 0 48.5 18.5t17.5 49.5v36h117z" />
    <glyph glyph-name="cacute" unicode="&#x107;" horiz-adv-x="425" 
d="M179 608l61 172h117l-95 -172h-83zM394 180v-10q0 -83 -47 -133t-126 -50t-126.5 50t-47.5 133v208q0 82 47.5 132.5t126.5 50.5q78 0 125.5 -50.5t47.5 -132.5v-10h-109v18q0 30 -17 47.5t-47 17.5t-47.5 -17.5t-17.5 -47.5v-224q0 -30 17.5 -48t47.5 -18t47 18t17 48
v18h109z" />
    <glyph glyph-name="Ccircumflex" unicode="&#x108;" horiz-adv-x="470" 
d="M86 832l116 150h92l116 -150h-103l-58 83l-60 -83h-103zM432 205v-36q0 -83 -50 -134t-133 -51t-132.5 50.5t-49.5 134.5v412q0 84 49.5 134.5t132.5 50.5t133 -51t50 -134v-35h-117v35q0 31 -17.5 49.5t-48.5 18.5q-30 0 -47.5 -18.5t-17.5 -49.5v-412q0 -31 17.5 -49.5
t47.5 -18.5q31 0 48.5 18.5t17.5 49.5v36h117z" />
    <glyph glyph-name="ccircumflex" unicode="&#x109;" horiz-adv-x="425" 
d="M58 630l116 150h92l116 -150h-103l-58 83l-60 -83h-103zM394 180v-10q0 -83 -47 -133t-126 -50t-126.5 50t-47.5 133v208q0 82 47.5 132.5t126.5 50.5q78 0 125.5 -50.5t47.5 -132.5v-10h-109v18q0 30 -17 47.5t-47 17.5t-47.5 -17.5t-17.5 -47.5v-224q0 -30 17.5 -48
t47.5 -18t47 18t17 48v18h109z" />
    <glyph glyph-name="Cdotaccent" unicode="&#x10a;" horiz-adv-x="470" 
d="M201 825v127h96v-127h-96zM432 205v-36q0 -83 -50 -134t-133 -51t-132.5 50.5t-49.5 134.5v412q0 84 49.5 134.5t132.5 50.5t133 -51t50 -134v-35h-117v35q0 31 -17.5 49.5t-48.5 18.5q-30 0 -47.5 -18.5t-17.5 -49.5v-412q0 -31 17.5 -49.5t47.5 -18.5q31 0 48.5 18.5
t17.5 49.5v36h117z" />
    <glyph glyph-name="cdotaccent" unicode="&#x10b;" horiz-adv-x="425" 
d="M173 623v127h96v-127h-96zM394 180v-10q0 -83 -47 -133t-126 -50t-126.5 50t-47.5 133v208q0 82 47.5 132.5t126.5 50.5q78 0 125.5 -50.5t47.5 -132.5v-10h-109v18q0 30 -17 47.5t-47 17.5t-47.5 -17.5t-17.5 -47.5v-224q0 -30 17.5 -48t47.5 -18t47 18t17 48v18h109z
" />
    <glyph glyph-name="Ccaron" unicode="&#x10c;" horiz-adv-x="470" 
d="M202 832l-116 150h103l60 -83l58 83h103l-116 -150h-92zM432 205v-36q0 -83 -50 -134t-133 -51t-132.5 50.5t-49.5 134.5v412q0 84 49.5 134.5t132.5 50.5t133 -51t50 -134v-35h-117v35q0 31 -17.5 49.5t-48.5 18.5q-30 0 -47.5 -18.5t-17.5 -49.5v-412q0 -31 17.5 -49.5
t47.5 -18.5q31 0 48.5 18.5t17.5 49.5v36h117z" />
    <glyph glyph-name="ccaron" unicode="&#x10d;" horiz-adv-x="425" 
d="M174 630l-116 150h103l60 -83l58 83h103l-116 -150h-92zM394 180v-10q0 -83 -47 -133t-126 -50t-126.5 50t-47.5 133v208q0 82 47.5 132.5t126.5 50.5q78 0 125.5 -50.5t47.5 -132.5v-10h-109v18q0 30 -17 47.5t-47 17.5t-47.5 -17.5t-17.5 -47.5v-224q0 -30 17.5 -48
t47.5 -18t47 18t17 48v18h109z" />
    <glyph glyph-name="Dcaron" unicode="&#x10e;" horiz-adv-x="503" 
d="M204 832l-116 150h103l60 -83l58 83h103l-116 -150h-92zM78 0v750h180q83 0 133 -51t50 -134v-380q0 -83 -50 -134t-133 -51h-180zM195 117h63q31 0 48.5 18.5t17.5 49.5v380q0 31 -17.5 49.5t-48.5 18.5h-63v-516z" />
    <glyph glyph-name="dcaron" unicode="&#x10f;" horiz-adv-x="657" 
d="M290 521v229h109v-750h-109v27q-35 -40 -98 -40q-62 0 -101.5 41t-39.5 134v224q0 92 40 133.5t101 41.5q63 0 98 -40zM484 750h109l-40 -241h-109zM225 96q30 0 47.5 18t17.5 48v224q0 30 -17.5 47.5t-47.5 17.5t-47 -17.5t-17 -47.5v-224q0 -30 17 -48t47 -18z" />
    <glyph glyph-name="Dcroat" unicode="&#x110;" horiz-adv-x="503" 
d="M258 750q83 0 133 -51t50 -134v-380q0 -83 -50 -134t-133 -51h-180v326h-62v99h62v325h180zM324 185v380q0 31 -17.5 49.5t-48.5 18.5h-63v-208h66v-99h-66v-209h63q31 0 48.5 18.5t17.5 49.5z" />
    <glyph glyph-name="dcroat" unicode="&#x111;" horiz-adv-x="461" 
d="M467 695v-99h-68v-596h-109v27q-35 -40 -98 -40q-62 0 -101.5 41t-39.5 134v224q0 92 40 133.5t101 41.5q63 0 98 -40v75h-68v99h68v55h109v-55h68zM225 96q30 0 47.5 18t17.5 48v224q0 30 -17.5 47.5t-47.5 17.5t-47 -17.5t-17 -47.5v-224q0 -30 17 -48t47 -18z" />
    <glyph glyph-name="Emacron" unicode="&#x112;" horiz-adv-x="429" 
d="M97 898h234v-80h-234v80zM385 750v-117h-190v-184h163v-117h-163v-215h190v-117h-307v750h307z" />
    <glyph glyph-name="emacron" unicode="&#x113;" horiz-adv-x="439" 
d="M339 696v-80h-234v80h234zM394 248h-238v-86q0 -30 17.5 -48t47.5 -18t47 18t17 48v18h109v-10q0 -83 -47 -133t-126 -50t-126.5 50t-47.5 133v208q0 82 47.5 132.5t126.5 50.5q78 0 125.5 -50.5t47.5 -132.5v-130zM221 451q-30 0 -47.5 -17.5t-17.5 -47.5v-36h129v36
q0 30 -17 47.5t-47 17.5z" />
    <glyph glyph-name="Ebreve" unicode="&#x114;" horiz-adv-x="429" 
d="M213 853q-55 0 -89 32t-34 85v12h75v-12q0 -23 13.5 -36.5t34.5 -13.5t34 13.5t13 36.5v12h75v-12q0 -53 -33.5 -85t-88.5 -32zM385 750v-117h-190v-184h163v-117h-163v-215h190v-117h-307v750h307z" />
    <glyph glyph-name="ebreve" unicode="&#x115;" horiz-adv-x="439" 
d="M221 651q-55 0 -89 32t-34 85v12h75v-12q0 -23 13.5 -36.5t34.5 -13.5t34 13.5t13 36.5v12h75v-12q0 -53 -33.5 -85t-88.5 -32zM394 248h-238v-86q0 -30 17.5 -48t47.5 -18t47 18t17 48v18h109v-10q0 -83 -47 -133t-126 -50t-126.5 50t-47.5 133v208q0 82 47.5 132.5
t126.5 50.5q78 0 125.5 -50.5t47.5 -132.5v-130zM221 451q-30 0 -47.5 -17.5t-17.5 -47.5v-36h129v36q0 30 -17 47.5t-47 17.5z" />
    <glyph glyph-name="Edotaccent" unicode="&#x116;" horiz-adv-x="429" 
d="M165 825v127h96v-127h-96zM385 750v-117h-190v-184h163v-117h-163v-215h190v-117h-307v750h307z" />
    <glyph glyph-name="edotaccent" unicode="&#x117;" horiz-adv-x="439" 
d="M269 750v-127h-96v127h96zM394 248h-238v-86q0 -30 17.5 -48t47.5 -18t47 18t17 48v18h109v-10q0 -83 -47 -133t-126 -50t-126.5 50t-47.5 133v208q0 82 47.5 132.5t126.5 50.5q78 0 125.5 -50.5t47.5 -132.5v-130zM221 451q-30 0 -47.5 -17.5t-17.5 -47.5v-36h129v36
q0 30 -17 47.5t-47 17.5z" />
    <glyph glyph-name="Eogonek" unicode="&#x118;" horiz-adv-x="429" 
d="M385 633h-190v-184h163v-117h-163v-215h190v-117h-114q-58 -47 -58 -98q0 -25 18.5 -41.5t49.5 -16.5h18v-80h-26q-65 0 -102.5 33t-37.5 86q0 66 59 117h-114v750h307v-117z" />
    <glyph glyph-name="eogonek" unicode="&#x119;" horiz-adv-x="439" 
d="M394 248h-238v-86q0 -30 17.5 -48t47.5 -18t47 18t17 48v18h109v-10q0 -64 -29.5 -110t-81.5 -63q-54 -45 -54 -95q0 -25 18.5 -41.5t49.5 -16.5h18v-80h-26q-65 0 -102.5 33t-37.5 86q0 58 47 105q-69 8 -109 57t-40 125v208q0 82 47.5 132.5t126.5 50.5
q78 0 125.5 -50.5t47.5 -132.5v-130zM221 451q-30 0 -47.5 -17.5t-17.5 -47.5v-36h129v36q0 30 -17 47.5t-47 17.5z" />
    <glyph glyph-name="Ecaron" unicode="&#x11a;" horiz-adv-x="429" 
d="M166 832l-116 150h103l60 -83l58 83h103l-116 -150h-92zM385 750v-117h-190v-184h163v-117h-163v-215h190v-117h-307v750h307z" />
    <glyph glyph-name="ecaron" unicode="&#x11b;" horiz-adv-x="439" 
d="M266 630h-92l-116 150h103l60 -83l58 83h103zM394 248h-238v-86q0 -30 17.5 -48t47.5 -18t47 18t17 48v18h109v-10q0 -83 -47 -133t-126 -50t-126.5 50t-47.5 133v208q0 82 47.5 132.5t126.5 50.5q78 0 125.5 -50.5t47.5 -132.5v-130zM221 451q-30 0 -47.5 -17.5
t-17.5 -47.5v-36h129v36q0 30 -17 47.5t-47 17.5z" />
    <glyph glyph-name="Gcircumflex" unicode="&#x11c;" horiz-adv-x="488" 
d="M86 832l116 150h92l116 -150h-103l-58 83l-60 -83h-103zM249 -16q-83 0 -132.5 50.5t-49.5 134.5v412q0 84 49.5 134.5t132.5 50.5t133 -51t50 -134v-35h-117v35q0 31 -17.5 49.5t-48.5 18.5q-30 0 -47.5 -18.5t-17.5 -49.5v-412q0 -31 17.5 -49.5t47.5 -18.5
q31 0 48.5 18.5t17.5 49.5v85h-74v117h191v-202q0 -83 -50 -134t-133 -51z" />
    <glyph glyph-name="gcircumflex" unicode="&#x11d;" horiz-adv-x="454" 
d="M218 713l-60 -83h-103l116 150h92l116 -150h-103zM282 548h110v-550q0 -82 -48 -131.5t-126 -49.5q-79 0 -126.5 50t-47.5 133v19h109v-27q0 -30 17.5 -48t47.5 -18t47 18t17 48v105q-35 -40 -97 -40t-101.5 41t-39.5 134v154q0 92 40 133.5t101 41.5q62 0 97 -40v27z
M218 166q30 0 47 18t17 48v154q0 30 -17 47.5t-47 17.5t-47 -17.5t-17 -47.5v-154q0 -30 17 -48t47 -18z" />
    <glyph glyph-name="Gbreve" unicode="&#x11e;" horiz-adv-x="488" 
d="M249 853q-55 0 -89 32t-34 85v12h75v-12q0 -23 13.5 -36.5t34.5 -13.5t34 13.5t13 36.5v12h75v-12q0 -53 -33.5 -85t-88.5 -32zM249 -16q-83 0 -132.5 50.5t-49.5 134.5v412q0 84 49.5 134.5t132.5 50.5t133 -51t50 -134v-35h-117v35q0 31 -17.5 49.5t-48.5 18.5
q-30 0 -47.5 -18.5t-17.5 -49.5v-412q0 -31 17.5 -49.5t47.5 -18.5q31 0 48.5 18.5t17.5 49.5v85h-74v117h191v-202q0 -83 -50 -134t-133 -51z" />
    <glyph glyph-name="gbreve" unicode="&#x11f;" horiz-adv-x="454" 
d="M218 651q-55 0 -89 32t-34 85v12h75v-12q0 -23 13.5 -36.5t34.5 -13.5t34 13.5t13 36.5v12h75v-12q0 -53 -33.5 -85t-88.5 -32zM282 548h110v-550q0 -82 -48 -131.5t-126 -49.5q-79 0 -126.5 50t-47.5 133v19h109v-27q0 -30 17.5 -48t47.5 -18t47 18t17 48v105
q-35 -40 -97 -40t-101.5 41t-39.5 134v154q0 92 40 133.5t101 41.5q62 0 97 -40v27zM218 166q30 0 47 18t17 48v154q0 30 -17 47.5t-47 17.5t-47 -17.5t-17 -47.5v-154q0 -30 17 -48t47 -18z" />
    <glyph glyph-name="Gdotaccent" unicode="&#x120;" horiz-adv-x="488" 
d="M201 825v127h96v-127h-96zM249 -16q-83 0 -132.5 50.5t-49.5 134.5v412q0 84 49.5 134.5t132.5 50.5t133 -51t50 -134v-35h-117v35q0 31 -17.5 49.5t-48.5 18.5q-30 0 -47.5 -18.5t-17.5 -49.5v-412q0 -31 17.5 -49.5t47.5 -18.5q31 0 48.5 18.5t17.5 49.5v85h-74v117
h191v-202q0 -83 -50 -134t-133 -51z" />
    <glyph glyph-name="gdotaccent" unicode="&#x121;" horiz-adv-x="454" 
d="M266 750v-127h-96v127h96zM282 548h110v-550q0 -82 -48 -131.5t-126 -49.5q-79 0 -126.5 50t-47.5 133v19h109v-27q0 -30 17.5 -48t47.5 -18t47 18t17 48v105q-35 -40 -97 -40t-101.5 41t-39.5 134v154q0 92 40 133.5t101 41.5q62 0 97 -40v27zM218 166q30 0 47 18t17 48
v154q0 30 -17 47.5t-47 17.5t-47 -17.5t-17 -47.5v-154q0 -30 17 -48t47 -18z" />
    <glyph glyph-name="Gcommaaccent" unicode="&#x122;" horiz-adv-x="488" 
d="M249 -16q-83 0 -132.5 50.5t-49.5 134.5v412q0 84 49.5 134.5t132.5 50.5t133 -51t50 -134v-35h-117v35q0 31 -17.5 49.5t-48.5 18.5q-30 0 -47.5 -18.5t-17.5 -49.5v-412q0 -31 17.5 -49.5t47.5 -18.5q31 0 48.5 18.5t17.5 49.5v85h-74v117h191v-202q0 -83 -50 -134
t-133 -51zM169 -220l27 166h117l-73 -166h-71z" />
    <glyph glyph-name="gcommaaccent" unicode="&#x123;" horiz-adv-x="454" 
d="M282 548h110v-550q0 -82 -48 -131.5t-126 -49.5q-79 0 -126.5 50t-47.5 133v19h109v-27q0 -30 17.5 -48t47.5 -18t47 18t17 48v105q-35 -40 -97 -40t-101.5 41t-39.5 134v154q0 92 40 133.5t101 41.5q62 0 97 -40v27zM218 166q30 0 47 18t17 48v154q0 30 -17 47.5
t-47 17.5t-47 -17.5t-17 -47.5v-154q0 -30 17 -48t47 -18zM138 -403l27 166h117l-73 -166h-71z" />
    <glyph glyph-name="Hcircumflex" unicode="&#x124;" horiz-adv-x="503" 
d="M88 832l116 150h92l116 -150h-103l-58 83l-60 -83h-103zM78 0v750h117v-377h113v377h117v-750h-117v256h-113v-256h-117z" />
    <glyph glyph-name="hcircumflex" unicode="&#x125;" horiz-adv-x="466" 
d="M174 832l-58 83l-60 -83h-103l116 150h92l116 -150h-103zM270 561q59 0 98.5 -37.5t39.5 -114.5v-409h-109v386q0 30 -17 48t-46 18q-30 0 -47 -18t-17 -48v-386h-109v750h109v-229q35 40 98 40z" />
    <glyph glyph-name="Hbar" unicode="&#x126;" horiz-adv-x="503" 
d="M476 598v-99h-51v-499h-117v256h-113v-256h-117v499h-52v99h52v152h117v-152h113v152h117v-152h51zM308 373v126h-113v-126h113z" />
    <glyph glyph-name="hbar" unicode="&#x127;" horiz-adv-x="466" 
d="M270 561q59 0 98.5 -37.5t39.5 -114.5v-409h-109v386q0 30 -17 48t-46 18q-30 0 -47 -18t-17 -48v-386h-109v604h-69v99h69v47h109v-47h67v-99h-67v-83q35 40 98 40z" />
    <glyph glyph-name="Itilde" unicode="&#x128;" horiz-adv-x="272" 
d="M212 827q-38 0 -78 27q-29 21 -40 21q-14 0 -14 -17v-26h-88v33q0 38 19 59.5t50 21.5q42 0 76 -26q30 -22 43 -22t13 18v26h88v-35q0 -37 -19 -58.5t-50 -21.5zM195 0h-117v750h117v-750z" />
    <glyph glyph-name="itilde" unicode="&#x129;" 
d="M193 625q-37 0 -78 27q-29 21 -40 21q-14 0 -14 -17v-26h-88v33q0 38 19 59.5t50 21.5q42 0 76 -26q30 -22 43 -22t13 18v26h88v-35q0 -37 -19 -58.5t-50 -21.5zM63 0v548h109v-548h-109z" />
    <glyph glyph-name="Imacron" unicode="&#x12a;" horiz-adv-x="272" 
d="M21 898h234v-80h-234v80zM195 0h-117v750h117v-750z" />
    <glyph glyph-name="imacron" unicode="&#x12b;" 
d="M2 696h234v-80h-234v80zM63 0v548h109v-548h-109z" />
    <glyph glyph-name="Iogonek" unicode="&#x12e;" horiz-adv-x="272" 
d="M154 0q-58 -47 -58 -98q0 -25 18.5 -41.5t49.5 -16.5h18v-80h-26q-65 0 -102.5 33t-37.5 86q0 68 62 119v748h117v-750h-41z" />
    <glyph glyph-name="iogonek" unicode="&#x12f;" 
d="M166 750v-127h-96v127h96zM138 0q-58 -47 -58 -98q0 -25 18.5 -41.5t49.5 -16.5h18v-80h-26q-65 0 -102.5 33t-37.5 86q0 66 63 120v545h109v-548h-34z" />
    <glyph glyph-name="Idotaccent" unicode="&#x130;" horiz-adv-x="272" 
d="M89 825v127h96v-127h-96zM195 0h-117v750h117v-750z" />
    <glyph glyph-name="dotlessi" unicode="&#x131;" 
d="M63 0v548h109v-548h-109z" />
    <glyph glyph-name="IJ" unicode="&#x132;" horiz-adv-x="601" 
d="M195 0h-117v750h117v-750zM284 -7v117h63q30 0 47.5 18.5t17.5 49.5v572h117v-572q0 -84 -49.5 -134.5t-132.5 -50.5h-63z" />
    <glyph glyph-name="ij" unicode="&#x133;" horiz-adv-x="468" 
d="M63 594v126h109v-126h-109zM297 594v126h109v-126h-109zM63 0v548h109v-548h-109zM198 -183v109h34q30 0 47.5 18.5t17.5 49.5v554h109v-546q0 -84 -47.5 -134.5t-126.5 -50.5h-34z" />
    <glyph glyph-name="Jcircumflex" unicode="&#x134;" horiz-adv-x="329" 
d="M34 832l116 150h92l116 -150h-103l-58 83l-60 -83h-103zM12 -7v117h63q30 0 47.5 18.5t17.5 49.5v572h117v-572q0 -84 -49.5 -134.5t-132.5 -50.5h-63z" />
    <glyph glyph-name="jcircumflex" unicode="&#x135;" 
d="M-45 630l116 150h92l116 -150h-103l-58 83l-60 -83h-103zM-36 -183v109h34q30 0 47.5 18.5t17.5 49.5v554h109v-546q0 -84 -47.5 -134.5t-126.5 -50.5h-34z" />
    <glyph glyph-name="Kcommaaccent" unicode="&#x136;" horiz-adv-x="498" 
d="M480 750l-182 -273l181 -477h-126l-136 357l-22 -34v-323h-117v750h117v-236l159 236h126zM162 -220l27 166h117l-73 -166h-71z" />
    <glyph glyph-name="kcommaaccent" unicode="&#x137;" horiz-adv-x="440" 
d="M284 375l158 -375h-115l-114 276l-41 -55v-221h-109v750h109v-369l126 167h114zM135 -220l27 166h117l-73 -166h-71z" />
    <glyph glyph-name="kgreenlandic" unicode="&#x138;" horiz-adv-x="440" 
d="M442 0h-115l-155 357v-357h-109v548h109v-166l126 166h114l-136 -180z" />
    <glyph glyph-name="Lacute" unicode="&#x139;" horiz-adv-x="382" 
d="M137 810l61 172h117l-95 -172h-83zM195 750v-633h170v-117h-287v750h117z" />
    <glyph glyph-name="lacute" unicode="&#x13a;" 
d="M76 810l61 172h117l-95 -172h-83zM63 0v750h109v-750h-109z" />
    <glyph glyph-name="Lcommaaccent" unicode="&#x13b;" horiz-adv-x="382" 
d="M195 750v-633h170v-117h-287v750h117zM99 -220l27 166h117l-73 -166h-71z" />
    <glyph glyph-name="lcommaaccent" unicode="&#x13c;" 
d="M63 0v750h109v-750h-109zM38 -220l27 166h117l-73 -166h-71z" />
    <glyph glyph-name="Lcaron" unicode="&#x13d;" horiz-adv-x="382" 
d="M132 832l-116 150h103l60 -83l58 83h103l-116 -150h-92zM195 750v-633h170v-117h-287v750h117z" />
    <glyph glyph-name="lcaron" unicode="&#x13e;" horiz-adv-x="474" 
d="M63 0v750h109v-750h-109zM260 509l40 241h109l-40 -241h-109z" />
    <glyph glyph-name="Ldot" unicode="&#x13f;" horiz-adv-x="380" 
d="M195 750v-633h170v-117h-287v750h117zM245 315v120h101v-120h-101z" />
    <glyph glyph-name="ldot" unicode="&#x140;" horiz-adv-x="401" 
d="M63 0v750h109v-750h-109zM237 315v120h101v-120h-101z" />
    <glyph glyph-name="Lslash" unicode="&#x141;" horiz-adv-x="382" 
d="M195 117h170v-117h-287v304l-88 -30v102l88 30v344h117v-304l88 30v-102l-88 -30v-227z" />
    <glyph glyph-name="lslash" unicode="&#x142;" 
d="M261 469v-112l-89 -23v-334h-109v306l-89 -23v112l89 23v332h109v-304z" />
    <glyph glyph-name="Nacute" unicode="&#x143;" horiz-adv-x="513" 
d="M392 982l-95 -172h-83l61 172h117zM326 750h109v-750h-90l-158 436v-436h-109v750h89l159 -436v436z" />
    <glyph glyph-name="nacute" unicode="&#x144;" horiz-adv-x="464" 
d="M371 780l-95 -172h-83l61 172h117zM270 561q64 0 101 -46.5t37 -128.5v-386h-109v386q0 29 -17 47t-46 18q-30 0 -47 -17.5t-17 -47.5v-386h-109v548h109v-30q36 43 98 43z" />
    <glyph glyph-name="Ncommaaccent" unicode="&#x145;" horiz-adv-x="513" 
d="M326 750h109v-750h-90l-158 436v-436h-109v750h89l159 -436v436zM176 -220l27 166h117l-73 -166h-71z" />
    <glyph glyph-name="ncommaaccent" unicode="&#x146;" horiz-adv-x="464" 
d="M270 561q64 0 101 -46.5t37 -128.5v-386h-109v386q0 29 -17 47t-46 18q-30 0 -47 -17.5t-17 -47.5v-386h-109v548h109v-30q36 43 98 43zM155 -220l27 166h117l-73 -166h-71z" />
    <glyph glyph-name="Ncaron" unicode="&#x147;" horiz-adv-x="513" 
d="M301 832h-92l-116 150h103l60 -83l58 83h103zM326 750h109v-750h-90l-158 436v-436h-109v750h89l159 -436v436z" />
    <glyph glyph-name="ncaron" unicode="&#x148;" horiz-adv-x="464" 
d="M280 630h-92l-116 150h103l60 -83l58 83h103zM270 561q64 0 101 -46.5t37 -128.5v-386h-109v386q0 29 -17 47t-46 18q-30 0 -47 -17.5t-17 -47.5v-386h-109v548h109v-30q36 43 98 43z" />
    <glyph glyph-name="napostrophe" unicode="&#x149;" horiz-adv-x="655" 
d="M65 608v142h117v-142l-30 -99h-73l30 99h-44zM461 561q64 0 101 -46.5t37 -128.5v-386h-109v386q0 29 -17 47t-46 18q-30 0 -47 -17.5t-17 -47.5v-386h-109v548h109v-30q36 43 98 43z" />
    <glyph glyph-name="Omacron" unicode="&#x14c;" horiz-adv-x="499" 
d="M133 898h234v-80h-234v80zM249 -16q-83 0 -132.5 50.5t-49.5 134.5v412q0 84 49.5 134.5t132.5 50.5t133 -51t50 -134v-412q0 -83 -50 -134t-133 -51zM249 101q31 0 48.5 18.5t17.5 49.5v412q0 31 -17.5 49.5t-48.5 18.5q-30 0 -47.5 -18.5t-17.5 -49.5v-412
q0 -31 17.5 -49.5t47.5 -18.5z" />
    <glyph glyph-name="omacron" unicode="&#x14d;" horiz-adv-x="441" 
d="M105 696h234v-80h-234v80zM221 -13q-79 0 -126.5 50t-47.5 133v208q0 82 47.5 132.5t126.5 50.5q78 0 125.5 -50.5t47.5 -132.5v-208q0 -83 -47 -133t-126 -50zM221 96q30 0 47 18t17 48v224q0 30 -17 47.5t-47 17.5t-47.5 -17.5t-17.5 -47.5v-224q0 -30 17.5 -48
t47.5 -18z" />
    <glyph glyph-name="Obreve" unicode="&#x14e;" horiz-adv-x="499" 
d="M249 853q-55 0 -89 32t-34 85v12h75v-12q0 -23 13.5 -36.5t34.5 -13.5t34 13.5t13 36.5v12h75v-12q0 -53 -33.5 -85t-88.5 -32zM249 -16q-83 0 -132.5 50.5t-49.5 134.5v412q0 84 49.5 134.5t132.5 50.5t133 -51t50 -134v-412q0 -83 -50 -134t-133 -51zM249 101
q31 0 48.5 18.5t17.5 49.5v412q0 31 -17.5 49.5t-48.5 18.5q-30 0 -47.5 -18.5t-17.5 -49.5v-412q0 -31 17.5 -49.5t47.5 -18.5z" />
    <glyph glyph-name="obreve" unicode="&#x14f;" horiz-adv-x="441" 
d="M221 651q-55 0 -89 32t-34 85v12h75v-12q0 -23 13.5 -36.5t34.5 -13.5t34 13.5t13 36.5v12h75v-12q0 -53 -33.5 -85t-88.5 -32zM221 -13q-79 0 -126.5 50t-47.5 133v208q0 82 47.5 132.5t126.5 50.5q78 0 125.5 -50.5t47.5 -132.5v-208q0 -83 -47 -133t-126 -50zM221 96
q30 0 47 18t17 48v224q0 30 -17 47.5t-47 17.5t-47.5 -17.5t-17.5 -47.5v-224q0 -30 17.5 -48t47.5 -18z" />
    <glyph glyph-name="Ohungarumlaut" unicode="&#x150;" horiz-adv-x="499" 
d="M116 810l61 172h117l-95 -172h-83zM289 810l61 172h117l-95 -172h-83zM249 -16q-83 0 -132.5 50.5t-49.5 134.5v412q0 84 49.5 134.5t132.5 50.5t133 -51t50 -134v-412q0 -83 -50 -134t-133 -51zM249 101q31 0 48.5 18.5t17.5 49.5v412q0 31 -17.5 49.5t-48.5 18.5
q-30 0 -47.5 -18.5t-17.5 -49.5v-412q0 -31 17.5 -49.5t47.5 -18.5z" />
    <glyph glyph-name="ohungarumlaut" unicode="&#x151;" horiz-adv-x="441" 
d="M88 608l61 172h117l-95 -172h-83zM261 608l61 172h117l-95 -172h-83zM221 -13q-79 0 -126.5 50t-47.5 133v208q0 82 47.5 132.5t126.5 50.5q78 0 125.5 -50.5t47.5 -132.5v-208q0 -83 -47 -133t-126 -50zM221 96q30 0 47 18t17 48v224q0 30 -17 47.5t-47 17.5
t-47.5 -17.5t-17.5 -47.5v-224q0 -30 17.5 -48t47.5 -18z" />
    <glyph glyph-name="OE" unicode="&#x152;" horiz-adv-x="737" 
d="M249 -16q-83 0 -132.5 50.5t-49.5 134.5v412q0 84 49.5 134.5t132.5 50.5q86 0 137 -54v38h307v-117h-190v-184h163v-117h-163v-215h190v-117h-307v38q-51 -54 -137 -54zM249 101q31 0 48.5 18.5t17.5 49.5v412q0 31 -17.5 49.5t-48.5 18.5q-30 0 -47.5 -18.5
t-17.5 -49.5v-412q0 -31 17.5 -49.5t47.5 -18.5z" />
    <glyph glyph-name="oe" unicode="&#x153;" horiz-adv-x="677" 
d="M633 248h-239v-86q0 -30 17.5 -48t47.5 -18t47.5 18t17.5 48v18h109v-10q0 -83 -47.5 -133t-126.5 -50q-73 0 -119 43q-46 -43 -119 -43q-79 0 -126.5 50t-47.5 133v208q0 82 47.5 132.5t126.5 50.5q72 0 119 -44q47 44 119 44q79 0 126.5 -50.5t47.5 -132.5v-130z
M285 162v224q0 30 -17 47.5t-47 17.5t-47.5 -17.5t-17.5 -47.5v-224q0 -30 17.5 -48t47.5 -18t47 18t17 48zM394 386v-36h130v36q0 30 -17.5 47.5t-47.5 17.5t-47.5 -18t-17.5 -47z" />
    <glyph glyph-name="Racute" unicode="&#x154;" horiz-adv-x="506" 
d="M389 982l-95 -172h-83l61 172h117zM441 455q0 -86 -54 -137q54 -37 54 -105v-213h-117v213q0 28 -16.5 45t-44.5 17h-68v-275h-117v750h185q81 0 129.5 -49.5t48.5 -130.5v-115zM324 455v115q0 29 -16.5 46t-44.5 17h-68v-241h68q28 0 44.5 17t16.5 46z" />
    <glyph glyph-name="racute" unicode="&#x155;" horiz-adv-x="296" 
d="M318 780l-95 -172h-83l61 172h117zM172 515q37 40 98 40h25v-110h-59q-30 0 -47 -15.5t-17 -44.5v-385h-109v548h109v-33z" />
    <glyph glyph-name="Rcommaaccent" unicode="&#x156;" horiz-adv-x="506" 
d="M441 455q0 -86 -54 -137q54 -37 54 -105v-213h-117v213q0 28 -16.5 45t-44.5 17h-68v-275h-117v750h185q81 0 129.5 -49.5t48.5 -130.5v-115zM324 455v115q0 29 -16.5 46t-44.5 17h-68v-241h68q28 0 44.5 17t16.5 46zM173 -220l27 166h117l-73 -166h-71z" />
    <glyph glyph-name="rcommaaccent" unicode="&#x157;" horiz-adv-x="296" 
d="M270 555h25v-110h-59q-30 0 -47 -15.5t-17 -44.5v-385h-109v548h109v-33q37 40 98 40zM37 -220l27 166h117l-73 -166h-71z" />
    <glyph glyph-name="Rcaron" unicode="&#x158;" horiz-adv-x="506" 
d="M298 832h-92l-116 150h103l60 -83l58 83h103zM441 455q0 -86 -54 -137q54 -37 54 -105v-213h-117v213q0 28 -16.5 45t-44.5 17h-68v-275h-117v750h185q81 0 129.5 -49.5t48.5 -130.5v-115zM324 455v115q0 29 -16.5 46t-44.5 17h-68v-241h68q28 0 44.5 17t16.5 46z" />
    <glyph glyph-name="rcaron" unicode="&#x159;" horiz-adv-x="296" 
d="M227 630h-92l-116 150h103l60 -83l58 83h103zM172 515q37 40 98 40h25v-110h-59q-30 0 -47 -15.5t-17 -44.5v-385h-109v548h109v-33z" />
    <glyph glyph-name="Sacute" unicode="&#x15a;" horiz-adv-x="467" 
d="M192 810l61 172h117l-95 -172h-83zM235 -16q-84 0 -133.5 50.5t-49.5 134.5v36h117v-36q0 -31 17.5 -49.5t48.5 -18.5q30 0 47.5 18.5t17.5 49.5v71q0 31 -17.5 49.5t-47.5 18.5q-84 0 -133.5 50.5t-49.5 134.5v88q0 84 49.5 134.5t133.5 50.5q83 0 132.5 -50.5
t49.5 -134.5v-35h-117v35q0 31 -17.5 49.5t-47.5 18.5q-31 0 -48.5 -18.5t-17.5 -49.5v-88q0 -31 17.5 -49.5t48.5 -18.5q83 0 132.5 -50.5t49.5 -134.5v-71q0 -84 -49.5 -134.5t-132.5 -50.5z" />
    <glyph glyph-name="sacute" unicode="&#x15b;" horiz-adv-x="421" 
d="M169 608l61 172h117l-95 -172h-83zM212 -13q-79 0 -126.5 49t-47.5 130v12h109v-20q0 -28 17.5 -45t47.5 -17q29 0 45.5 17.5t16.5 45.5t-17 46.5t-46 18.5q-79 0 -126 45.5t-47 120.5q0 77 47 124t126 47q78 0 125 -49t47 -130v-12h-109v20q0 28 -17 44.5t-46 16.5
t-46.5 -17t-17.5 -44q0 -28 17.5 -46.5t46.5 -18.5q78 0 125 -46t47 -120q0 -77 -46.5 -124.5t-124.5 -47.5z" />
    <glyph glyph-name="Scircumflex" unicode="&#x15c;" horiz-adv-x="467" 
d="M71 832l116 150h92l116 -150h-103l-58 83l-60 -83h-103zM235 -16q-84 0 -133.5 50.5t-49.5 134.5v36h117v-36q0 -31 17.5 -49.5t48.5 -18.5q30 0 47.5 18.5t17.5 49.5v71q0 31 -17.5 49.5t-47.5 18.5q-84 0 -133.5 50.5t-49.5 134.5v88q0 84 49.5 134.5t133.5 50.5
q83 0 132.5 -50.5t49.5 -134.5v-35h-117v35q0 31 -17.5 49.5t-47.5 18.5q-31 0 -48.5 -18.5t-17.5 -49.5v-88q0 -31 17.5 -49.5t48.5 -18.5q83 0 132.5 -50.5t49.5 -134.5v-71q0 -84 -49.5 -134.5t-132.5 -50.5z" />
    <glyph glyph-name="scircumflex" unicode="&#x15d;" horiz-adv-x="421" 
d="M48 630l116 150h92l116 -150h-103l-58 83l-60 -83h-103zM212 -13q-79 0 -126.5 49t-47.5 130v12h109v-20q0 -28 17.5 -45t47.5 -17q29 0 45.5 17.5t16.5 45.5t-17 46.5t-46 18.5q-79 0 -126 45.5t-47 120.5q0 77 47 124t126 47q78 0 125 -49t47 -130v-12h-109v20
q0 28 -17 44.5t-46 16.5t-46.5 -17t-17.5 -44q0 -28 17.5 -46.5t46.5 -18.5q78 0 125 -46t47 -120q0 -77 -46.5 -124.5t-124.5 -47.5z" />
    <glyph glyph-name="Scedilla" unicode="&#x15e;" horiz-adv-x="467" 
d="M417 546h-117v35q0 31 -17.5 49.5t-47.5 18.5q-31 0 -48.5 -18.5t-17.5 -49.5v-88q0 -31 17.5 -49.5t48.5 -18.5q83 0 132.5 -50.5t49.5 -134.5v-71q0 -71 -36.5 -119t-100.5 -62v-40q50 6 82 -23t32 -72q0 -49 -31 -79t-82 -30h-82v81h82q32 0 32 28q0 13 -8.5 21
t-23.5 8h-45l-36 19v86q-69 10 -108.5 59t-39.5 123v36h117v-36q0 -31 17.5 -49.5t48.5 -18.5q30 0 47.5 18.5t17.5 49.5v71q0 31 -17.5 49.5t-47.5 18.5q-84 0 -133.5 50.5t-49.5 134.5v88q0 84 49.5 134.5t133.5 50.5q83 0 132.5 -50.5t49.5 -134.5v-35z" />
    <glyph glyph-name="scedilla" unicode="&#x15f;" horiz-adv-x="421" 
d="M383 370h-109v20q0 28 -17 44.5t-46 16.5t-46.5 -17t-17.5 -44q0 -28 17.5 -46.5t46.5 -18.5q78 0 125 -46t47 -120q0 -65 -34 -109.5t-92 -57.5v-44q50 6 82 -23t32 -72q0 -49 -31 -79t-82 -30h-82v81h82q32 0 32 28q0 13 -8.5 21t-23.5 8h-45l-36 19v89q-65 11 -102 58
t-37 118v12h109v-20q0 -28 17.5 -45t47.5 -17q29 0 45.5 17.5t16.5 45.5t-17 46.5t-46 18.5q-79 0 -126 45.5t-47 120.5q0 77 47 124t126 47q78 0 125 -49t47 -130v-12z" />
    <glyph glyph-name="Scaron" unicode="&#x160;" horiz-adv-x="467" 
d="M187 832l-116 150h103l60 -83l58 83h103l-116 -150h-92zM235 -16q-84 0 -133.5 50.5t-49.5 134.5v36h117v-36q0 -31 17.5 -49.5t48.5 -18.5q30 0 47.5 18.5t17.5 49.5v71q0 31 -17.5 49.5t-47.5 18.5q-84 0 -133.5 50.5t-49.5 134.5v88q0 84 49.5 134.5t133.5 50.5
q83 0 132.5 -50.5t49.5 -134.5v-35h-117v35q0 31 -17.5 49.5t-47.5 18.5q-31 0 -48.5 -18.5t-17.5 -49.5v-88q0 -31 17.5 -49.5t48.5 -18.5q83 0 132.5 -50.5t49.5 -134.5v-71q0 -84 -49.5 -134.5t-132.5 -50.5z" />
    <glyph glyph-name="scaron" unicode="&#x161;" horiz-adv-x="421" 
d="M164 630l-116 150h103l60 -83l58 83h103l-116 -150h-92zM212 -13q-79 0 -126.5 49t-47.5 130v12h109v-20q0 -28 17.5 -45t47.5 -17q29 0 45.5 17.5t16.5 45.5t-17 46.5t-46 18.5q-79 0 -126 45.5t-47 120.5q0 77 47 124t126 47q78 0 125 -49t47 -130v-12h-109v20
q0 28 -17 44.5t-46 16.5t-46.5 -17t-17.5 -44q0 -28 17.5 -46.5t46.5 -18.5q78 0 125 -46t47 -120q0 -77 -46.5 -124.5t-124.5 -47.5z" />
    <glyph glyph-name="uni0162" unicode="&#x162;" horiz-adv-x="374" 
d="M245 0h-17v-52q50 6 82 -23t32 -72q0 -49 -31 -79t-82 -30h-82v81h82q32 0 32 28q0 13 -8.5 21t-23.5 8h-45l-36 19v99h-20v633h-115v117h348v-117h-116v-633z" />
    <glyph glyph-name="uni0163" unicode="&#x163;" horiz-adv-x="339" 
d="M288 -52q50 6 82 -23t32 -72q0 -49 -31 -79t-82 -30h-82v81h82q32 0 32 28q0 13 -8.5 21t-23.5 8h-45l-36 19v100q-54 15 -84.5 59t-30.5 110v277h-92v101h92v132h110v-132h114v-101h-114v-277q0 -31 17 -49.5t47 -18.5h50v-109h-29v-45z" />
    <glyph glyph-name="Tcaron" unicode="&#x164;" horiz-adv-x="374" 
d="M140 832l-116 150h103l60 -83l58 83h103l-116 -150h-92zM128 0v633h-115v117h348v-117h-116v-633h-117z" />
    <glyph glyph-name="tcaron" unicode="&#x165;" horiz-adv-x="581" 
d="M367 509l40 241h109l-40 -241h-109zM267 -7q-80 0 -127 47t-47 130v277h-92v101h92v132h110v-132h114v-101h-114v-277q0 -31 17 -49.5t47 -18.5h50v-109h-50z" />
    <glyph glyph-name="Tbar" unicode="&#x166;" horiz-adv-x="374" 
d="M361 633h-116v-208h65v-99h-65v-326h-117v326h-63v99h63v208h-115v117h348v-117z" />
    <glyph glyph-name="tbar" unicode="&#x167;" horiz-adv-x="339" 
d="M317 447h-114v-122h112v-101h-112v-54q0 -31 17 -49.5t47 -18.5h50v-109h-50q-80 0 -127 47t-47 130v54h-78v101h78v122h-92v101h92v132h110v-132h114v-101z" />
    <glyph glyph-name="Utilde" unicode="&#x168;" horiz-adv-x="511" 
d="M330 827q-38 0 -78 27q-29 21 -40 21q-14 0 -14 -17v-26h-88v33q0 38 19 59.5t50 21.5q42 0 76 -26q30 -22 43 -22t13 18v26h88v-35q0 -37 -19 -58.5t-50 -21.5zM438 750v-581q0 -83 -50 -134t-133 -51t-132.5 50.5t-49.5 134.5v581h117v-581q0 -31 17.5 -49.5
t47.5 -18.5q31 0 48.5 18.5t17.5 49.5v581h117z" />
    <glyph glyph-name="utilde" unicode="&#x169;" horiz-adv-x="465" 
d="M175 656v-26h-88v33q0 38 19 59.5t50 21.5q42 0 76 -26q30 -22 43 -22t13 18v26h88v-35q0 -37 -19 -58.5t-50 -21.5q-37 0 -78 27q-29 21 -40 21q-14 0 -14 -17zM293 548h110v-548h-110v27q-35 -40 -98 -40q-61 0 -99.5 41t-38.5 134v386h109v-386q0 -30 17 -48t47 -18
t46.5 18t16.5 48v386z" />
    <glyph glyph-name="Umacron" unicode="&#x16a;" horiz-adv-x="511" 
d="M139 898h234v-80h-234v80zM438 750v-581q0 -83 -50 -134t-133 -51t-132.5 50.5t-49.5 134.5v581h117v-581q0 -31 17.5 -49.5t47.5 -18.5q31 0 48.5 18.5t17.5 49.5v581h117z" />
    <glyph glyph-name="umacron" unicode="&#x16b;" horiz-adv-x="465" 
d="M350 696v-80h-234v80h234zM293 548h110v-548h-110v27q-35 -40 -98 -40q-61 0 -99.5 41t-38.5 134v386h109v-386q0 -30 17 -48t47 -18t46.5 18t16.5 48v386z" />
    <glyph glyph-name="Ubreve" unicode="&#x16c;" horiz-adv-x="511" 
d="M255 853q-55 0 -89 32t-34 85v12h75v-12q0 -23 13.5 -36.5t34.5 -13.5t34 13.5t13 36.5v12h75v-12q0 -53 -33.5 -85t-88.5 -32zM438 750v-581q0 -83 -50 -134t-133 -51t-132.5 50.5t-49.5 134.5v581h117v-581q0 -31 17.5 -49.5t47.5 -18.5q31 0 48.5 18.5t17.5 49.5v581
h117z" />
    <glyph glyph-name="ubreve" unicode="&#x16d;" horiz-adv-x="465" 
d="M232 651q-55 0 -89 32t-34 85v12h75v-12q0 -23 13.5 -36.5t34.5 -13.5t34 13.5t13 36.5v12h75v-12q0 -53 -33.5 -85t-88.5 -32zM293 548h110v-548h-110v27q-35 -40 -98 -40q-61 0 -99.5 41t-38.5 134v386h109v-386q0 -30 17 -48t47 -18t46.5 18t16.5 48v386z" />
    <glyph glyph-name="Uring" unicode="&#x16e;" horiz-adv-x="511" 
d="M255 772q-43 0 -73.5 29t-30.5 75t30.5 75.5t73.5 29.5q44 0 74.5 -29.5t30.5 -75.5t-30.5 -75t-74.5 -29zM255 839q15 0 26.5 10.5t11.5 26.5q0 17 -11 27.5t-27 10.5q-15 0 -26 -10.5t-11 -27.5q0 -16 11 -26.5t26 -10.5zM438 750v-581q0 -83 -50 -134t-133 -51
t-132.5 50.5t-49.5 134.5v581h117v-581q0 -31 17.5 -49.5t47.5 -18.5q31 0 48.5 18.5t17.5 49.5v581h117z" />
    <glyph glyph-name="uring" unicode="&#x16f;" horiz-adv-x="465" 
d="M232 570q-43 0 -73.5 29t-30.5 75t30.5 75.5t73.5 29.5q44 0 74.5 -29.5t30.5 -75.5t-30.5 -75t-74.5 -29zM232 712q-15 0 -26 -10.5t-11 -27.5q0 -16 11 -26.5t26 -10.5t26.5 10.5t11.5 26.5q0 17 -11 27.5t-27 10.5zM293 548h110v-548h-110v27q-35 -40 -98 -40
q-61 0 -99.5 41t-38.5 134v386h109v-386q0 -30 17 -48t47 -18t46.5 18t16.5 48v386z" />
    <glyph glyph-name="Uhungarumlaut" unicode="&#x170;" horiz-adv-x="511" 
d="M122 810l61 172h117l-95 -172h-83zM295 810l61 172h117l-95 -172h-83zM438 750v-581q0 -83 -50 -134t-133 -51t-132.5 50.5t-49.5 134.5v581h117v-581q0 -31 17.5 -49.5t47.5 -18.5q31 0 48.5 18.5t17.5 49.5v581h117z" />
    <glyph glyph-name="uhungarumlaut" unicode="&#x171;" horiz-adv-x="465" 
d="M277 780l-95 -172h-83l61 172h117zM355 608h-83l61 172h117zM293 162v386h110v-548h-110v27q-35 -40 -98 -40q-61 0 -99.5 41t-38.5 134v386h109v-386q0 -30 17 -48t47 -18t46.5 18t16.5 48z" />
    <glyph glyph-name="Uogonek" unicode="&#x172;" horiz-adv-x="511" 
d="M321 750h117v-581q0 -77 -43 -126.5t-117 -57.5q-41 -39 -41 -83q0 -25 18.5 -41.5t49.5 -16.5h18v-80h-26q-65 0 -102.5 33t-37.5 86q0 59 48 107q-62 14 -97 61.5t-35 117.5v581h117v-581q0 -31 17.5 -49.5t47.5 -18.5q31 0 48.5 18.5t17.5 49.5v581z" />
    <glyph glyph-name="uogonek" unicode="&#x173;" horiz-adv-x="465" 
d="M369 0q-58 -47 -58 -98q0 -25 18.5 -41.5t49.5 -16.5h18v-80h-26q-65 0 -102.5 33t-37.5 86q0 68 62 119v25q-35 -40 -98 -40q-61 0 -99.5 41t-38.5 134v386h109v-386q0 -30 17 -48t47 -18t46.5 18t16.5 48v386h110v-548h-34z" />
    <glyph glyph-name="Wcircumflex" unicode="&#x174;" horiz-adv-x="672" 
d="M336 915l-60 -83h-103l116 150h92l116 -150h-103zM521 750h119l-96 -750h-126l-82 438l-83 -438h-126l-96 750h120l55 -495l82 495h96l82 -495z" />
    <glyph glyph-name="wcircumflex" unicode="&#x175;" horiz-adv-x="586" 
d="M294 713l-60 -83h-103l116 150h92l116 -150h-103zM456 548h114l-94 -548h-114l-68 329l-70 -329h-114l-94 548h114l46 -363l69 363h97l68 -363z" />
    <glyph glyph-name="Ycircumflex" unicode="&#x176;" horiz-adv-x="459" 
d="M230 915l-60 -83h-103l116 150h92l116 -150h-103zM332 750h120l-163 -396v-354h-117v354l-165 396h120l103 -271z" />
    <glyph glyph-name="ycircumflex" unicode="&#x177;" horiz-adv-x="423" 
d="M212 713l-60 -83h-103l116 150h92l116 -150h-103zM301 548h119l-201 -728h-112l49 177l-153 551h119l91 -365z" />
    <glyph glyph-name="Ydieresis" unicode="&#x178;" horiz-adv-x="459" 
d="M199 982v-127h-96v127h96zM359 982v-127h-96v127h96zM332 750h120l-163 -396v-354h-117v354l-165 396h120l103 -271z" />
    <glyph glyph-name="Zacute" unicode="&#x179;" horiz-adv-x="432" 
d="M352 982l-95 -172h-83l61 172h117zM399 750v-86l-240 -547h240v-117h-366l-1 86l241 547h-240v117h366z" />
    <glyph glyph-name="zacute" unicode="&#x17a;" horiz-adv-x="395" 
d="M334 780l-95 -172h-83l61 172h117zM369 548v-86l-208 -353h207v-109h-343v86l216 353h-214v109h342z" />
    <glyph glyph-name="Zdotaccent" unicode="&#x17b;" horiz-adv-x="432" 
d="M264 952v-127h-96v127h96zM399 750v-86l-240 -547h240v-117h-366l-1 86l241 547h-240v117h366z" />
    <glyph glyph-name="zdotaccent" unicode="&#x17c;" horiz-adv-x="395" 
d="M246 750v-127h-96v127h96zM369 548v-86l-208 -353h207v-109h-343v86l216 353h-214v109h342z" />
    <glyph glyph-name="Zcaron" unicode="&#x17d;" horiz-adv-x="432" 
d="M261 832h-92l-116 150h103l60 -83l58 83h103zM399 750v-86l-240 -547h240v-117h-366l-1 86l241 547h-240v117h366z" />
    <glyph glyph-name="zcaron" unicode="&#x17e;" horiz-adv-x="395" 
d="M243 630h-92l-116 150h103l60 -83l58 83h103zM369 548v-86l-208 -353h207v-109h-343v86l216 353h-214v109h342z" />
    <glyph glyph-name="longs" unicode="&#x17f;" horiz-adv-x="296" 
d="M102 0v447h-100v101h100v35q0 78 47.5 127.5t126.5 49.5h50v-109h-50q-30 0 -47.5 -18.5t-17.5 -49.5v-583h-109z" />
    <glyph glyph-name="florin" unicode="&#x192;" horiz-adv-x="517" 
d="M33 -180v109h61q29 0 49 18.5t23 49.5l37 350h-101v101h111l14 135q8 77 58 127t123 50h62v-109h-62q-29 0 -48.5 -18.5t-22.5 -49.5l-14 -135h147v-101h-158l-37 -350q-8 -78 -58 -127.5t-123 -49.5h-61z" />
    <glyph glyph-name="Scommaaccent" unicode="&#x218;" horiz-adv-x="467" 
d="M235 -16q-84 0 -133.5 50.5t-49.5 134.5v36h117v-36q0 -31 17.5 -49.5t48.5 -18.5q30 0 47.5 18.5t17.5 49.5v71q0 31 -17.5 49.5t-47.5 18.5q-84 0 -133.5 50.5t-49.5 134.5v88q0 84 49.5 134.5t133.5 50.5q83 0 132.5 -50.5t49.5 -134.5v-35h-117v35q0 31 -17.5 49.5
t-47.5 18.5q-31 0 -48.5 -18.5t-17.5 -49.5v-88q0 -31 17.5 -49.5t48.5 -18.5q83 0 132.5 -50.5t49.5 -134.5v-71q0 -84 -49.5 -134.5t-132.5 -50.5zM154 -220l27 166h117l-73 -166h-71z" />
    <glyph glyph-name="scommaaccent" unicode="&#x219;" horiz-adv-x="421" 
d="M212 -13q-79 0 -126.5 49t-47.5 130v12h109v-20q0 -28 17.5 -45t47.5 -17q29 0 45.5 17.5t16.5 45.5t-17 46.5t-46 18.5q-79 0 -126 45.5t-47 120.5q0 77 47 124t126 47q78 0 125 -49t47 -130v-12h-109v20q0 28 -17 44.5t-46 16.5t-46.5 -17t-17.5 -44q0 -28 17.5 -46.5
t46.5 -18.5q78 0 125 -46t47 -120q0 -77 -46.5 -124.5t-124.5 -47.5zM131 -220l27 166h117l-73 -166h-71z" />
    <glyph glyph-name="uni021A" unicode="&#x21a;" horiz-adv-x="374" 
d="M128 0v633h-115v117h348v-117h-116v-633h-117zM102 -220l27 166h117l-73 -166h-71z" />
    <glyph glyph-name="uni021B" unicode="&#x21b;" horiz-adv-x="339" 
d="M267 -7q-80 0 -127 47t-47 130v277h-92v101h92v132h110v-132h114v-101h-114v-277q0 -31 17 -49.5t47 -18.5h50v-109h-50zM162 -220l27 166h117l-73 -166h-71z" />
    <glyph glyph-name="uni0237" unicode="&#x237;" 
d="M-36 -183v109h34q30 0 47.5 18.5t17.5 49.5v554h109v-546q0 -84 -47.5 -134.5t-126.5 -50.5h-34z" />
    <glyph glyph-name="circumflex" unicode="&#x2c6;" horiz-adv-x="344" 
d="M10 630l116 150h92l116 -150h-103l-58 83l-60 -83h-103z" />
    <glyph glyph-name="caron" unicode="&#x2c7;" horiz-adv-x="344" 
d="M126 630l-116 150h103l60 -83l58 83h103l-116 -150h-92z" />
    <glyph glyph-name="uni02C9" unicode="&#x2c9;" horiz-adv-x="359" 
d="M63 750h234v-80h-234v80z" />
    <glyph glyph-name="breve" unicode="&#x2d8;" horiz-adv-x="330" 
d="M165 651q-55 0 -89 32t-34 85v12h75v-12q0 -23 13.5 -36.5t34.5 -13.5t34 13.5t13 36.5v12h75v-12q0 -53 -33.5 -85t-88.5 -32z" />
    <glyph glyph-name="dotaccent" unicode="&#x2d9;" horiz-adv-x="222" 
d="M63 623v127h96v-127h-96z" />
    <glyph glyph-name="ring" unicode="&#x2da;" horiz-adv-x="295" 
d="M147 571q-43 0 -73.5 29t-30.5 75t30.5 75.5t73.5 29.5q44 0 74.5 -29.5t30.5 -75.5t-30.5 -75t-74.5 -29zM147 638q15 0 26.5 10.5t11.5 26.5q0 17 -11 27.5t-27 10.5q-15 0 -26 -10.5t-11 -27.5q0 -16 11 -26.5t26 -10.5z" />
    <glyph glyph-name="ogonek" unicode="&#x2db;" horiz-adv-x="230" 
d="M174 -236q-65 0 -102.5 33t-37.5 86q0 88 115 157h23v-40q-58 -47 -58 -98q0 -25 18.5 -41.5t49.5 -16.5h18v-80h-26z" />
    <glyph glyph-name="tilde" unicode="&#x2dc;" horiz-adv-x="398" 
d="M275 661q-38 0 -78 27q-29 21 -40 21q-14 0 -14 -17v-26h-88v33q0 38 19 59.5t50 21.5q42 0 76 -26q30 -22 43 -22t13 18v26h88v-35q0 -37 -19 -58.5t-50 -21.5z" />
    <glyph glyph-name="hungarumlaut" unicode="&#x2dd;" horiz-adv-x="400" 
d="M32 608l61 172h117l-95 -172h-83zM205 608l61 172h117l-95 -172h-83z" />
    <glyph glyph-name="uni0326" unicode="&#x326;" horiz-adv-x="0" 
d="M-170 -220l27 166h117l-73 -166h-71z" />
    <glyph glyph-name="uni0394" unicode="&#x394;" horiz-adv-x="458" 
d="M19 0l148 750h126l146 -750h-420zM157 117h144l-71 415z" />
    <glyph glyph-name="uni03A9" unicode="&#x3a9;" horiz-adv-x="591" 
d="M497 117h64v-117h-235v117q30 0 47.5 18.5t17.5 49.5v366q0 44 -26 71t-69 27t-69.5 -27t-26.5 -71v-366q0 -31 17.5 -49.5t48.5 -18.5v-117h-235v117h63q-11 33 -11 68v366q0 97 58.5 156t154.5 59q95 0 153.5 -59t58.5 -156v-366q0 -35 -11 -68z" />
    <glyph glyph-name="pi" unicode="&#x3c0;" horiz-adv-x="531" 
d="M475 -7q-80 0 -127 47t-47 130v277h-98v-447h-110v447h-92v101h508v-101h-99v-277q0 -31 17.5 -49.5t47.5 -18.5h34v-109h-34z" />
    <glyph glyph-name="Wgrave" unicode="&#x1e80;" horiz-adv-x="672" 
d="M380 810h-83l-95 172h117zM521 750h119l-96 -750h-126l-82 438l-83 -438h-126l-96 750h120l55 -495l82 495h96l82 -495z" />
    <glyph glyph-name="wgrave" unicode="&#x1e81;" horiz-adv-x="586" 
d="M338 608h-83l-95 172h117zM456 548h114l-94 -548h-114l-68 329l-70 -329h-114l-94 548h114l46 -363l69 363h97l68 -363z" />
    <glyph glyph-name="Wacute" unicode="&#x1e82;" horiz-adv-x="672" 
d="M472 982l-95 -172h-83l61 172h117zM521 750h119l-96 -750h-126l-82 438l-83 -438h-126l-96 750h120l55 -495l82 495h96l82 -495z" />
    <glyph glyph-name="wacute" unicode="&#x1e83;" horiz-adv-x="586" 
d="M430 780l-95 -172h-83l61 172h117zM456 548h114l-94 -548h-114l-68 329l-70 -329h-114l-94 548h114l46 -363l69 363h97l68 -363z" />
    <glyph glyph-name="Wdieresis" unicode="&#x1e84;" horiz-adv-x="672" 
d="M305 982v-127h-96v127h96zM465 982v-127h-96v127h96zM521 750h119l-96 -750h-126l-82 438l-83 -438h-126l-96 750h120l55 -495l82 495h96l82 -495z" />
    <glyph glyph-name="wdieresis" unicode="&#x1e85;" horiz-adv-x="586" 
d="M263 780v-127h-96v127h96zM423 780v-127h-96v127h96zM456 548h114l-94 -548h-114l-68 329l-70 -329h-114l-94 548h114l46 -363l69 363h97l68 -363z" />
    <glyph glyph-name="endash" unicode="&#x2013;" horiz-adv-x="521" 
d="M63 216v117h395v-117h-395z" />
    <glyph glyph-name="emdash" unicode="&#x2014;" horiz-adv-x="621" 
d="M63 216v117h495v-117h-495z" />
    <glyph glyph-name="quoteleft" unicode="&#x2018;" horiz-adv-x="251" 
d="M69 509v142l29 99h73l-30 -99h45v-142h-117z" />
    <glyph glyph-name="quoteright" unicode="&#x2019;" horiz-adv-x="251" 
d="M79 509l30 99h-44v142h117v-142l-30 -99h-73z" />
    <glyph glyph-name="quotesinglbase" unicode="&#x201a;" horiz-adv-x="251" 
d="M79 -99l30 99h-44v142h117v-142l-30 -99h-73z" />
    <glyph glyph-name="quotedblleft" unicode="&#x201c;" horiz-adv-x="428" 
d="M69 509v142l29 99h73l-30 -99h45v-142h-117zM246 509v142l29 99h73l-30 -99h45v-142h-117z" />
    <glyph glyph-name="quotedblright" unicode="&#x201d;" horiz-adv-x="428" 
d="M79 509l30 99h-44v142h117v-142l-30 -99h-73zM256 509l30 99h-44v142h117v-142l-30 -99h-73z" />
    <glyph glyph-name="quotedblbase" unicode="&#x201e;" horiz-adv-x="428" 
d="M79 -99l30 99h-44v142h117v-142l-30 -99h-73zM256 -99l30 99h-44v142h117v-142l-30 -99h-73z" />
    <glyph glyph-name="dagger" unicode="&#x2020;" horiz-adv-x="436" 
d="M162 240v281h-121v104h121v125h112v-125h121v-104h-121v-281h-112z" />
    <glyph glyph-name="daggerdbl" unicode="&#x2021;" horiz-adv-x="483" 
d="M185 240v125h-121v104h121v52h-121v104h121v125h112v-125h121v-104h-121v-52h121v-104h-121v-125h-112z" />
    <glyph glyph-name="bullet" unicode="&#x2022;" horiz-adv-x="362" 
d="M181 156q-48 0 -82.5 35t-34.5 83t34 82.5t83 34.5q48 0 82.5 -34.5t34.5 -82.5t-34.5 -83t-82.5 -35z" />
    <glyph glyph-name="ellipsis" unicode="&#x2026;" horiz-adv-x="725" 
d="M87 0v132h117v-132h-117zM304 0v132h117v-132h-117zM521 0v132h117v-132h-117z" />
    <glyph glyph-name="perthousand" unicode="&#x2030;" horiz-adv-x="1001" 
d="M166 404q-56 0 -90 34t-34 90v113q0 55 34 89.5t90 34.5q55 0 88.5 -34t33.5 -90v-113q0 -56 -33.5 -90t-88.5 -34zM136 0l331 750h93l-331 -750h-93zM166 493q14 0 23.5 9.5t9.5 25.5v113q0 16 -9.5 26t-23.5 10q-16 0 -25.5 -10t-9.5 -26v-113q0 -16 9.5 -25.5
t25.5 -9.5zM531 -15q-55 0 -89 33.5t-34 89.5v114q0 56 34 90t89 34t88.5 -34t33.5 -90v-114q0 -55 -33.5 -89t-88.5 -34zM836 -15q-55 0 -89 34t-34 89v114q0 55 34 89.5t89 34.5t89 -34t34 -90v-114q0 -56 -33.5 -89.5t-89.5 -33.5zM531 73q15 0 24.5 9.5t9.5 25.5v114
q0 16 -9.5 25.5t-24.5 9.5q-16 0 -25.5 -9.5t-9.5 -25.5v-114q0 -16 9.5 -25.5t25.5 -9.5zM836 73q15 0 24.5 9.5t9.5 25.5v114q0 16 -9.5 25.5t-24.5 9.5q-16 0 -25 -9.5t-9 -25.5v-114q0 -16 9 -25.5t25 -9.5z" />
    <glyph glyph-name="guilsinglleft" unicode="&#x2039;" horiz-adv-x="314" 
d="M265 0l-248 216v69l248 216v-133l-134 -118l134 -117v-133z" />
    <glyph glyph-name="guilsinglright" unicode="&#x203a;" horiz-adv-x="314" 
d="M49 0v133l133 117l-133 118v133l248 -216v-69z" />
    <glyph glyph-name="fraction" unicode="&#x2044;" horiz-adv-x="240" 
d="M-92 0l331 750h93l-331 -750h-93z" />
    <glyph glyph-name="uni2070" unicode="&#x2070;" horiz-adv-x="323" 
d="M162 790q49 0 79.5 -30.5t30.5 -80.5v-248q0 -50 -30.5 -80.5t-79.5 -30.5q-50 0 -80.5 30.5t-30.5 80.5v248q0 50 30.5 80.5t80.5 30.5zM162 714q-16 0 -25.5 -10t-9.5 -25v-170l54 199q-8 6 -19 6zM162 396q15 0 24.5 10t9.5 25v171l-55 -200q7 -6 21 -6z" />
    <glyph glyph-name="uni2074" unicode="&#x2074;" horiz-adv-x="307" 
d="M163 330v79h-151v66l160 305h67v-294h35v-77h-35v-79h-76zM91 486h72v144z" />
    <glyph glyph-name="uni2075" unicode="&#x2075;" horiz-adv-x="313" 
d="M164 320q-50 0 -80.5 30.5t-30.5 80.5v23h76v-23q0 -15 9.5 -25t25.5 -10q15 0 24.5 10t9.5 25v85q0 16 -9.5 25.5t-25.5 9.5q-34 0 -34 -35v-5h-76v269h205v-76h-129v-89q15 12 40 12q47 0 76 -31t29 -80v-85q0 -50 -30.5 -80.5t-79.5 -30.5z" />
    <glyph glyph-name="uni2076" unicode="&#x2076;" horiz-adv-x="318" 
d="M162 320q-50 0 -80.5 30.5t-30.5 80.5v248q0 50 30.5 80.5t80.5 30.5q49 0 79.5 -30.5t30.5 -80.5v-23h-76v23q0 15 -9.5 25t-24.5 10q-16 0 -25.5 -10t-9.5 -25v-64q15 12 40 12q47 0 76 -31t29 -80v-85q0 -50 -30.5 -80.5t-79.5 -30.5zM162 396q15 0 24.5 10t9.5 25v85
q0 16 -9.5 25.5t-25.5 9.5q-34 0 -34 -35v-85q0 -15 9.5 -25t25.5 -10z" />
    <glyph glyph-name="uni2077" unicode="&#x2077;" horiz-adv-x="244" 
d="M39 330l113 374h-142v76h217v-71l-109 -379h-79z" />
    <glyph glyph-name="uni2078" unicode="&#x2078;" horiz-adv-x="318" 
d="M159 320q-50 0 -80 30.5t-30 80.5v56q0 44 24 73q-24 27 -24 73v46q0 50 30 80.5t80 30.5t80 -30.5t30 -80.5v-46q0 -46 -24 -73q24 -29 24 -73v-56q0 -50 -30 -80.5t-80 -30.5zM159 598q16 0 25 9.5t9 25.5v46q0 15 -9.5 25t-24.5 10t-24.5 -10t-9.5 -25v-46
q0 -16 9 -25.5t25 -9.5zM159 396q15 0 24.5 10t9.5 25v56q0 16 -9 25.5t-25 9.5t-25 -9.5t-9 -25.5v-56q0 -15 9.5 -25t24.5 -10z" />
    <glyph glyph-name="uni2079" unicode="&#x2079;" horiz-adv-x="318" 
d="M157 320q-50 0 -80.5 30.5t-30.5 80.5v23h76v-23q0 -15 9.5 -25t25.5 -10q15 0 24.5 10t9.5 25v64q-17 -12 -40 -12q-47 0 -76 31t-29 80v85q0 50 30.5 80.5t80.5 30.5q49 0 79.5 -30.5t30.5 -80.5v-248q0 -50 -30.5 -80.5t-79.5 -30.5zM156 559q16 0 25.5 9.5t9.5 25.5
v85q0 15 -9.5 25t-24.5 10q-16 0 -25.5 -10t-9.5 -25v-85q0 -35 34 -35z" />
    <glyph glyph-name="uni2080" unicode="&#x2080;" horiz-adv-x="323" 
d="M162 430q49 0 79.5 -30.5t30.5 -80.5v-248q0 -50 -30.5 -80.5t-79.5 -30.5q-50 0 -80.5 30.5t-30.5 80.5v248q0 50 30.5 80.5t80.5 30.5zM162 354q-16 0 -25.5 -10t-9.5 -25v-170l54 199q-7 6 -19 6zM162 36q15 0 24.5 10t9.5 25v171l-55 -200q7 -6 21 -6z" />
    <glyph glyph-name="uni2081" unicode="&#x2081;" horiz-adv-x="217" 
d="M81 -30v322h-69v76h19q23 0 36.5 12t13.5 33v7h76v-450h-76z" />
    <glyph glyph-name="uni2082" unicode="&#x2082;" horiz-adv-x="294" 
d="M35 -30v70q0 39 15 70t36 49t42.5 33.5t36.5 32.5t15 37v57q0 15 -9.5 25t-25.5 10q-15 0 -24.5 -10t-9.5 -25v-23h-76v23q0 50 30.5 80.5t79.5 30.5q50 0 80.5 -30.5t30.5 -80.5v-57q0 -31 -14.5 -56t-35 -41.5t-41.5 -32t-35.5 -35.5t-14.5 -43v-8h141v-76h-221z" />
    <glyph glyph-name="uni2083" unicode="&#x2083;" horiz-adv-x="300" 
d="M142 -40q-50 0 -80.5 30.5t-30.5 80.5v23h76v-23q0 -15 9.5 -25t25.5 -10q15 0 24.5 10t9.5 25v58q0 15 -9.5 25t-24.5 10h-46v76h46q15 0 24.5 9.5t9.5 25.5v44q0 15 -9.5 25t-24.5 10q-16 0 -25.5 -10t-9.5 -25v-23h-76v23q0 50 30.5 80.5t80.5 30.5q49 0 79.5 -30.5
t30.5 -80.5v-44q0 -47 -25 -73q25 -28 25 -73v-58q0 -50 -30.5 -80.5t-79.5 -30.5z" />
    <glyph glyph-name="uni2084" unicode="&#x2084;" horiz-adv-x="307" 
d="M163 -30v79h-151v66l160 305h67v-294h35v-77h-35v-79h-76zM91 126h72v144z" />
    <glyph glyph-name="uni2085" unicode="&#x2085;" horiz-adv-x="313" 
d="M164 -40q-50 0 -80.5 30.5t-30.5 80.5v23h76v-23q0 -15 9.5 -25t25.5 -10q15 0 24.5 10t9.5 25v85q0 16 -9.5 25.5t-25.5 9.5q-34 0 -34 -35v-5h-76v269h205v-76h-129v-89q15 12 40 12q47 0 76 -31t29 -80v-85q0 -50 -30.5 -80.5t-79.5 -30.5z" />
    <glyph glyph-name="uni2086" unicode="&#x2086;" horiz-adv-x="318" 
d="M162 -40q-50 0 -80.5 30.5t-30.5 80.5v248q0 50 30.5 80.5t80.5 30.5q49 0 79.5 -30.5t30.5 -80.5v-23h-76v23q0 15 -9.5 25t-24.5 10q-16 0 -25.5 -10t-9.5 -25v-64q15 12 40 12q47 0 76 -31t29 -80v-85q0 -50 -30.5 -80.5t-79.5 -30.5zM162 36q15 0 24.5 10t9.5 25v85
q0 16 -9.5 25.5t-25.5 9.5q-34 0 -34 -35v-85q0 -15 9.5 -25t25.5 -10z" />
    <glyph glyph-name="uni2087" unicode="&#x2087;" horiz-adv-x="244" 
d="M39 -30l113 374h-142v76h217v-71l-109 -379h-79z" />
    <glyph glyph-name="uni2088" unicode="&#x2088;" horiz-adv-x="318" 
d="M159 -40q-50 0 -80 30.5t-30 80.5v56q0 44 24 73q-24 27 -24 73v46q0 50 30 80.5t80 30.5t80 -30.5t30 -80.5v-46q0 -46 -24 -73q24 -29 24 -73v-56q0 -50 -30 -80.5t-80 -30.5zM159 238q16 0 25 9.5t9 25.5v46q0 15 -9.5 25t-24.5 10t-24.5 -10t-9.5 -25v-46
q0 -16 9 -25.5t25 -9.5zM159 36q15 0 24.5 10t9.5 25v56q0 16 -9 25.5t-25 9.5t-25 -9.5t-9 -25.5v-56q0 -15 9.5 -25t24.5 -10z" />
    <glyph glyph-name="uni2089" unicode="&#x2089;" horiz-adv-x="318" 
d="M157 -40q-50 0 -80.5 30.5t-30.5 80.5v23h76v-23q0 -15 9.5 -25t25.5 -10q15 0 24.5 10t9.5 25v64q-17 -12 -40 -12q-47 0 -76 31t-29 80v85q0 50 30.5 80.5t80.5 30.5q49 0 79.5 -30.5t30.5 -80.5v-248q0 -50 -30.5 -80.5t-79.5 -30.5zM156 199q16 0 25.5 9.5t9.5 25.5
v85q0 15 -9.5 25t-24.5 10q-16 0 -25.5 -10t-9.5 -25v-85q0 -35 34 -35z" />
    <glyph glyph-name="franc" unicode="&#x20a3;" horiz-adv-x="470" 
d="M422 633h-190v-260h163v-117h-163v-75h61v-102h-61v-79h-117v79h-68v102h68v569h307v-117z" />
    <glyph glyph-name="lira" unicode="&#x20a4;" horiz-adv-x="542" 
d="M499 545h-117v35q0 31 -17.5 49.5t-47.5 18.5q-31 0 -48.5 -18.5t-17.5 -49.5v-153h113v-102h-113v-56h113v-101h-113v-66h197v-102h-381v102h67v66h-67v101h67v56h-67v102h67v153q0 83 50 134t133 51t132.5 -50.5t49.5 -134.5v-35z" />
    <glyph glyph-name="peseta" unicode="&#x20a7;" horiz-adv-x="558" 
d="M519 571v-102h-46q-2 -79 -50.5 -126.5t-127.5 -47.5h-68v-295h-117v469h-54v102h54v179h185q81 0 129.5 -49t48.5 -130h46zM227 633v-62h129q0 28 -16.5 45t-44.5 17h-68zM295 412q27 0 43 15t18 42h-129v-57h68z" />
    <glyph glyph-name="Euro" unicode="&#x20ac;" horiz-adv-x="545" 
d="M487 545h-117v35q0 31 -17.5 49.5t-48.5 18.5t-48.5 -18.5t-17.5 -49.5v-71h114v-101h-114v-65h114v-102h-114v-71q0 -31 17.5 -49.5t48.5 -18.5t48.5 18.5t17.5 49.5v35h117v-35q0 -83 -50 -134t-133 -51t-133 51t-50 134v71h-67v102h67v65h-67v101h67v71q0 83 50 134
t133 51t133 -51t50 -134v-35z" />
    <glyph glyph-name="uni2113" unicode="&#x2113;" horiz-adv-x="594" 
d="M334 -13q-109 0 -167 123q-67 -32 -121 -47l-19 82q65 19 116 43q-14 53 -14 123q0 169 71.5 285.5t174.5 116.5q71 0 118.5 -56.5t47.5 -140.5q0 -60 -25.5 -117t-70 -103t-92.5 -81.5t-105 -66.5q32 -81 93 -81q40 0 70.5 32t38.5 80l82 -9q-13 -80 -70 -131.5
t-128 -51.5zM235 238q213 129 213 278q0 48 -21.5 81.5t-55.5 33.5q-56 0 -99 -84.5t-47 -204.5q0 -55 10 -104z" />
    <glyph glyph-name="trademark" unicode="&#x2122;" horiz-adv-x="692" 
d="M110 300v374h-68v76h212v-76h-68v-374h-76zM293 300v450h68l85 -320l84 320h69v-450h-70v208l-58 -208h-50l-58 208v-208h-70z" />
    <glyph glyph-name="estimated" unicode="&#x212e;" horiz-adv-x="697" 
d="M356 -16q-133 0 -219 83t-86 204t86.5 205.5t216.5 84.5q131 0 218 -84t87 -205v-7h-488q-3 0 -3 -5v-155q0 -8 8 -18q73 -85 180 -85q62 0 105 23.5t84 71.5h47q-46 -56 -100 -84.5t-136 -28.5zM171 279h368q2 0 2 7v156q0 10 -7 19q-43 43 -81 63t-99 20
q-107 0 -177 -86q-9 -10 -9 -19v-153q0 -7 3 -7z" />
    <glyph glyph-name="oneeighth" unicode="&#x215b;" horiz-adv-x="775" 
d="M81 300v324h-69v76h19q23 0 36.5 12t13.5 33v7h76v-452h-76zM125 0l331 750h93l-331 -750h-93zM616 -10q-50 0 -80 30.5t-30 80.5v56q0 44 24 73q-24 27 -24 73v46q0 50 30 80.5t80 30.5t80 -30.5t30 -80.5v-46q0 -46 -24 -73q24 -29 24 -73v-56q0 -50 -30 -80.5
t-80 -30.5zM616 268q16 0 25 9.5t9 25.5v46q0 15 -9.5 25t-24.5 10t-24.5 -10t-9.5 -25v-46q0 -16 9 -25.5t25 -9.5zM616 66q15 0 24.5 10t9.5 25v56q0 16 -9 25.5t-25 9.5t-25 -9.5t-9 -25.5v-56q0 -15 9.5 -25t24.5 -10z" />
    <glyph glyph-name="threeeighths" unicode="&#x215c;" horiz-adv-x="858" 
d="M142 290q-50 0 -80.5 30.5t-30.5 80.5v23h76v-23q0 -15 9.5 -25t25.5 -10q15 0 24.5 10t9.5 25v58q0 15 -9.5 25t-24.5 10h-46v76h46q15 0 24.5 9.5t9.5 25.5v44q0 15 -9.5 25t-24.5 10q-16 0 -25.5 -10t-9.5 -25v-23h-76v23q0 50 30.5 80.5t80.5 30.5q49 0 79.5 -30.5
t30.5 -80.5v-44q0 -47 -25 -73q25 -28 25 -73v-58q0 -50 -30.5 -80.5t-79.5 -30.5zM208 0l331 750h93l-331 -750h-93zM699 -10q-50 0 -80 30.5t-30 80.5v56q0 44 24 73q-24 27 -24 73v46q0 50 30 80.5t80 30.5t80 -30.5t30 -80.5v-46q0 -46 -24 -73q24 -29 24 -73v-56
q0 -50 -30 -80.5t-80 -30.5zM699 268q16 0 25 9.5t9 25.5v46q0 15 -9.5 25t-24.5 10t-24.5 -10t-9.5 -25v-46q0 -16 9 -25.5t25 -9.5zM699 66q15 0 24.5 10t9.5 25v56q0 16 -9 25.5t-25 9.5t-25 -9.5t-9 -25.5v-56q0 -15 9.5 -25t24.5 -10z" />
    <glyph glyph-name="fiveeighths" unicode="&#x215d;" horiz-adv-x="871" 
d="M164 290q-50 0 -80.5 30.5t-30.5 80.5v23h76v-23q0 -15 9.5 -25t25.5 -10q15 0 24.5 10t9.5 25v85q0 16 -9.5 25.5t-25.5 9.5q-34 0 -34 -35v-5h-76v269h205v-76h-129v-89q15 12 40 12q47 0 76 -31t29 -80v-85q0 -50 -30.5 -80.5t-79.5 -30.5zM221 0l331 750h93
l-331 -750h-93zM712 -10q-50 0 -80 30.5t-30 80.5v56q0 44 24 73q-24 27 -24 73v46q0 50 30 80.5t80 30.5t80 -30.5t30 -80.5v-46q0 -46 -24 -73q24 -29 24 -73v-56q0 -50 -30 -80.5t-80 -30.5zM712 268q16 0 25 9.5t9 25.5v46q0 15 -9.5 25t-24.5 10t-24.5 -10t-9.5 -25
v-46q0 -16 9 -25.5t25 -9.5zM712 66q15 0 24.5 10t9.5 25v56q0 16 -9 25.5t-25 9.5t-25 -9.5t-9 -25.5v-56q0 -15 9.5 -25t24.5 -10z" />
    <glyph glyph-name="seveneighths" unicode="&#x215e;" horiz-adv-x="802" 
d="M39 300l113 374h-142v76h217v-71l-109 -379h-79zM152 0l331 750h93l-331 -750h-93zM643 -10q-50 0 -80 30.5t-30 80.5v56q0 44 24 73q-24 27 -24 73v46q0 50 30 80.5t80 30.5t80 -30.5t30 -80.5v-46q0 -46 -24 -73q24 -29 24 -73v-56q0 -50 -30 -80.5t-80 -30.5zM643 268
q16 0 25 9.5t9 25.5v46q0 15 -9.5 25t-24.5 10t-24.5 -10t-9.5 -25v-46q0 -16 9 -25.5t25 -9.5zM643 66q15 0 24.5 10t9.5 25v56q0 16 -9 25.5t-25 9.5t-25 -9.5t-9 -25.5v-56q0 -15 9.5 -25t24.5 -10z" />
    <glyph glyph-name="arrowleft" unicode="&#x2190;" horiz-adv-x="553" 
d="M498 354v-121h-279v-128l-189 189l189 190v-130h279z" />
    <glyph glyph-name="arrowup" unicode="&#x2191;" horiz-adv-x="430" 
d="M405 339h-128v-279h-122v279h-129l190 189z" />
    <glyph glyph-name="arrowright" unicode="&#x2192;" horiz-adv-x="553" 
d="M522 294l-189 -189v128h-278v121h278v130z" />
    <glyph glyph-name="arrowdown" unicode="&#x2193;" horiz-adv-x="430" 
d="M277 249h128l-189 -189l-190 189h129v279h122v-279z" />
    <glyph glyph-name="arrowboth" unicode="&#x2194;" horiz-adv-x="654" 
d="M219 105l-189 189l189 190v-130h216v130l189 -190l-189 -189v128h-216v-128z" />
    <glyph glyph-name="arrowupdn" unicode="&#x2195;" horiz-adv-x="445" 
d="M222 0l-189 189h128v216h-128l189 189l190 -189h-130v-216h130z" />
    <glyph glyph-name="uni2196" unicode="&#x2196;" horiz-adv-x="480" 
d="M451 170l-85 -85l-198 197l-90 -90v267l268 1l-92 -92z" />
    <glyph glyph-name="uni2197" unicode="&#x2197;" horiz-adv-x="480" 
d="M402 459v-267l-90 90l-198 -197l-85 85l197 198l-92 92z" />
    <glyph glyph-name="uni2198" unicode="&#x2198;" horiz-adv-x="480" 
d="M312 263l90 90v-267l-268 -1l92 92l-197 198l85 85z" />
    <glyph glyph-name="uni2199" unicode="&#x2199;" horiz-adv-x="480" 
d="M451 375l-197 -198l92 -92l-268 1v267l90 -90l198 197z" />
    <glyph glyph-name="partialdiff" unicode="&#x2202;" horiz-adv-x="488" 
d="M264 750q61 0 98 -39.5t37 -104.5v-606h-109v27q-35 -40 -98 -40q-61 0 -100.5 41t-39.5 134v124q0 92 39.5 133.5t100.5 41.5q63 0 98 -40v185q0 29 -18 47.5t-47 18.5h-26v78h65zM225 96q30 0 47.5 18t17.5 48v124q0 30 -17.5 47.5t-47.5 17.5t-47 -17.5t-17 -47.5
v-124q0 -30 17 -48t47 -18z" />
    <glyph glyph-name="emptyset" unicode="&#x2205;" horiz-adv-x="698" 
d="M548 527q99 -86 99 -234q0 -136 -85 -221t-213 -85q-52 0 -103 16l-32 -56h-117l60 105q-108 88 -108 241q0 137 85.5 220.5t214.5 83.5q57 0 111 -19l33 57h117zM162 293q0 -86 54 -140l187 325q-24 7 -54 7q-81 0 -134 -52.5t-53 -139.5zM349 99q79 0 132.5 54
t53.5 140q0 80 -46 132l-185 -321q25 -5 45 -5z" />
    <glyph glyph-name="product" unicode="&#x220f;" horiz-adv-x="633" 
d="M137 -120v753h-111v117h581v-117h-111v-753h-117v753h-125v-753h-117z" />
    <glyph glyph-name="summation" unicode="&#x2211;" horiz-adv-x="455" 
d="M47 -120v86l140 349l-141 349v86h367v-117h-241l128 -318l-131 -318h245v-117h-367z" />
    <glyph glyph-name="minus" unicode="&#x2212;" horiz-adv-x="582" 
d="M93 216v117h396v-117h-396z" />
    <glyph glyph-name="uni2215" unicode="&#x2215;" horiz-adv-x="433" 
d="M28 -50l268 830h118l-268 -830h-118z" />
    <glyph glyph-name="uni2219" unicode="&#x2219;" horiz-adv-x="414" 
d="M230 132q-59 0 -100.5 42t-41.5 101q0 58 41.5 99.5t100.5 41.5q58 0 100 -41.5t42 -99.5t-42 -100.5t-100 -42.5z" />
    <glyph glyph-name="radical" unicode="&#x221a;" horiz-adv-x="580" 
d="M143 0l-111 417h116l60 -241l137 574h208v-105h-116l-165 -645h-129z" />
    <glyph glyph-name="infinity" unicode="&#x221e;" horiz-adv-x="742" 
d="M526 447q66 0 108 -42.5t42 -110.5q0 -67 -42 -109.5t-108 -42.5h-15q-71 0 -140 89q-69 -89 -141 -89h-14q-66 0 -108 42.5t-42 109.5q0 68 42 110.5t108 42.5h14q73 0 141 -86q68 86 140 86h15zM242 228q36 0 88 68q-54 65 -88 65h-14q-27 0 -43.5 -19t-16.5 -48
q0 -28 16.5 -47t43.5 -19h14zM514 228q27 0 43.5 19t16.5 47q0 29 -16.5 48t-43.5 19h-14q-34 0 -88 -65q52 -68 88 -68h14z" />
    <glyph glyph-name="integral" unicode="&#x222b;" horiz-adv-x="387" 
d="M24 -180v109h50q30 0 47.5 18.5t17.5 49.5v586q0 78 47.5 127.5t126.5 49.5h50v-109h-50q-30 0 -47.5 -18.5t-17.5 -49.5v-586q0 -78 -47.5 -127.5t-126.5 -49.5h-50z" />
    <glyph glyph-name="approxequal" unicode="&#x2248;" horiz-adv-x="581" 
d="M65 321v28q0 64 34.5 99.5t100.5 35.5q51 0 96 -27t64 -27q38 0 38 37v23h112v-30q0 -63 -31.5 -99t-87.5 -36q-35 0 -66 15.5t-56 31.5t-47 16q-21 0 -33 -12t-12 -34v-21h-112zM65 50v28q0 64 34.5 99.5t100.5 35.5q51 0 96 -27t64 -27q38 0 38 37v23h112v-30
q0 -63 -31.5 -99t-87.5 -36q-35 0 -66 15.5t-56 31.5t-47 16q-21 0 -33 -12t-12 -34v-21h-112z" />
    <glyph glyph-name="notequal" unicode="&#x2260;" horiz-adv-x="484" 
d="M416 316h-126l-30 -83h156v-117h-199l-42 -116h-74l42 116h-73v117h116l30 83h-146v117h188l42 115h74l-42 -115h84v-117z" />
    <glyph glyph-name="lessequal" unicode="&#x2264;" horiz-adv-x="452" 
d="M384 148l-337 232v83l337 228v-124l-211 -145l211 -147v-127zM47 0v107h337v-107h-337z" />
    <glyph glyph-name="greaterequal" unicode="&#x2265;" horiz-adv-x="453" 
d="M67 148v127l211 147l-211 145v124l338 -228v-83zM67 0v107h338v-107h-338z" />
    <glyph glyph-name="lozenge" unicode="&#x25ca;" horiz-adv-x="470" 
d="M172 0l-136 375l136 375h128l134 -375l-134 -375h-128zM236 153l79 222l-79 222l-81 -222z" />
    <glyph glyph-name="uniF8FF" unicode="&#xf8ff;" horiz-adv-x="722" 
d="M362 277v206h23v-131l73 77h28l-54 -58l58 -94h-28l-46 76l-31 -32v-44h-23zM139 277q-45 0 -45 42v90h-35v20h35v37h23v-37h39v-20h-39v-90q0 -20 24 -20h15v-22h-17zM253 273q-34 0 -55 22t-21 59q0 35 21 57t55 22q35 0 56 -22t21 -58t-21 -58t-56 -22zM578 273
q-35 0 -56 22t-21 59q0 35 21 57t55 22q35 0 56 -22t21 -58t-21 -58t-55 -22zM253 293q25 0 39.5 16.5t14.5 44.5q0 26 -14.5 42.5t-39.5 16.5q-24 0 -39 -16.5t-15 -42.5q0 -28 15 -44.5t39 -16.5zM578 293q25 0 39 16.5t14 44.5q0 27 -14.5 43t-38.5 16q-25 0 -39.5 -16.5
t-14.5 -42.5q0 -28 14.5 -44.5t39.5 -16.5zM139 53q-45 0 -45 42v90h-35v20h35v37h23v-37h39v-20h-39v-90q0 -20 24 -20h15v-22h-17zM345 5v200h23v-22q20 26 52 26q31 0 50 -22t19 -58t-19 -58t-50 -22q-34 0 -52 26v-70h-23zM589 49q-35 0 -56 22t-21 58t20.5 58t54.5 22
q33 0 52.5 -21t19.5 -56q0 -9 -1 -13h-123q3 -23 17.5 -36.5t36.5 -13.5q16 0 28.5 8t15.5 20h24q-4 -22 -22.5 -35t-45.5 -13zM181 0v22h17q23 0 30 16l6 14l-63 153h26l51 -126l46 126h26l-66 -166q-9 -22 -21 -30.5t-35 -8.5h-17zM416 69q22 0 36 16t14 44t-14 44t-36 16
q-21 0 -34.5 -16t-13.5 -43v-2q0 -27 13.5 -43t34.5 -16zM535 139h102q0 23 -13.5 36.5t-36.5 13.5q-47 0 -52 -50z" />
    <glyph glyph-name="G.ss03" horiz-adv-x="488" 
d="M249 -16q-83 0 -132.5 50.5t-49.5 134.5v412q0 84 49.5 134.5t132.5 50.5t133 -51t50 -134v-35h-117v35q0 31 -17.5 49.5t-48.5 18.5q-30 0 -47.5 -18.5t-17.5 -49.5v-412q0 -31 17.5 -49.5t47.5 -18.5q31 0 48.5 18.5t17.5 49.5v185h-74v117h191v-302q0 -83 -50 -134
t-133 -51z" />
    <glyph glyph-name="Gbreve.ss03" horiz-adv-x="488" 
d="M249 853q-55 0 -89 32t-34 85v12h75v-12q0 -23 13.5 -36.5t34.5 -13.5t34 13.5t13 36.5v12h75v-12q0 -53 -33.5 -85t-88.5 -32zM249 -16q-83 0 -132.5 50.5t-49.5 134.5v412q0 84 49.5 134.5t132.5 50.5t133 -51t50 -134v-35h-117v35q0 31 -17.5 49.5t-48.5 18.5
q-30 0 -47.5 -18.5t-17.5 -49.5v-412q0 -31 17.5 -49.5t47.5 -18.5q31 0 48.5 18.5t17.5 49.5v185h-74v117h191v-302q0 -83 -50 -134t-133 -51z" />
    <glyph glyph-name="Gcircumflex.ss03" horiz-adv-x="488" 
d="M86 832l116 150h92l116 -150h-103l-58 83l-60 -83h-103zM249 -16q-83 0 -132.5 50.5t-49.5 134.5v412q0 84 49.5 134.5t132.5 50.5t133 -51t50 -134v-35h-117v35q0 31 -17.5 49.5t-48.5 18.5q-30 0 -47.5 -18.5t-17.5 -49.5v-412q0 -31 17.5 -49.5t47.5 -18.5
q31 0 48.5 18.5t17.5 49.5v185h-74v117h191v-302q0 -83 -50 -134t-133 -51z" />
    <glyph glyph-name="Gcommaaccent.ss03" horiz-adv-x="488" 
d="M249 -16q-83 0 -132.5 50.5t-49.5 134.5v412q0 84 49.5 134.5t132.5 50.5t133 -51t50 -134v-35h-117v35q0 31 -17.5 49.5t-48.5 18.5q-30 0 -47.5 -18.5t-17.5 -49.5v-412q0 -31 17.5 -49.5t47.5 -18.5q31 0 48.5 18.5t17.5 49.5v185h-74v117h191v-302q0 -83 -50 -134
t-133 -51zM169 -220l27 166h117l-73 -166h-71z" />
    <glyph glyph-name="Gdotaccent.ss03" horiz-adv-x="488" 
d="M201 825v127h96v-127h-96zM249 -16q-83 0 -132.5 50.5t-49.5 134.5v412q0 84 49.5 134.5t132.5 50.5t133 -51t50 -134v-35h-117v35q0 31 -17.5 49.5t-48.5 18.5q-30 0 -47.5 -18.5t-17.5 -49.5v-412q0 -31 17.5 -49.5t47.5 -18.5q31 0 48.5 18.5t17.5 49.5v185h-74v117
h191v-302q0 -83 -50 -134t-133 -51z" />
    <glyph glyph-name="IJ.ss04" horiz-adv-x="727" 
d="M195 0h-117v750h117v-750zM473 -7q-83 0 -133 51t-50 134v10h117v-10q0 -31 17.5 -49.5t48.5 -18.5t48.5 18.5t17.5 49.5v572h117v-572q0 -83 -50 -134t-133 -51z" />
    <glyph glyph-name="J.ss04" horiz-adv-x="455" 
d="M201 -7q-83 0 -133 51t-50 134v10h117v-10q0 -31 17.5 -49.5t48.5 -18.5t48.5 18.5t17.5 49.5v572h117v-572q0 -83 -50 -134t-133 -51z" />
    <glyph glyph-name="Jcircumflex.ss04" horiz-adv-x="455" 
d="M161 832l116 150h92l116 -150h-103l-58 83l-60 -83h-103zM201 -7q-83 0 -133 51t-50 134v10h117v-10q0 -31 17.5 -49.5t48.5 -18.5t48.5 18.5t17.5 49.5v572h117v-572q0 -83 -50 -134t-133 -51z" />
    <glyph glyph-name="a.ss01" horiz-adv-x="461" 
d="M290 548h109v-548h-109v27q-35 -40 -98 -40q-62 0 -101.5 41t-39.5 134v224q0 92 40 133.5t101 41.5q63 0 98 -40v27zM225 96q30 0 47.5 18t17.5 48v224q0 30 -17.5 47.5t-47.5 17.5t-47 -17.5t-17 -47.5v-224q0 -30 17 -48t47 -18z" />
    <glyph glyph-name="aacute.ss01" horiz-adv-x="461" 
d="M367 780l-95 -172h-83l61 172h117zM290 548h109v-548h-109v27q-35 -40 -98 -40q-62 0 -101.5 41t-39.5 134v224q0 92 40 133.5t101 41.5q63 0 98 -40v27zM225 96q30 0 47.5 18t17.5 48v224q0 30 -17.5 47.5t-47.5 17.5t-47 -17.5t-17 -47.5v-224q0 -30 17 -48t47 -18z
" />
    <glyph glyph-name="abreve.ss01" horiz-adv-x="461" 
d="M231 651q-55 0 -89 32t-34 85v12h75v-12q0 -23 13.5 -36.5t34.5 -13.5t34 13.5t13 36.5v12h75v-12q0 -53 -33.5 -85t-88.5 -32zM290 548h109v-548h-109v27q-35 -40 -98 -40q-62 0 -101.5 41t-39.5 134v224q0 92 40 133.5t101 41.5q63 0 98 -40v27zM225 96q30 0 47.5 18
t17.5 48v224q0 30 -17.5 47.5t-47.5 17.5t-47 -17.5t-17 -47.5v-224q0 -30 17 -48t47 -18z" />
    <glyph glyph-name="acircumflex.ss01" horiz-adv-x="461" 
d="M231 713l-60 -83h-103l116 150h92l116 -150h-103zM290 548h109v-548h-109v27q-35 -40 -98 -40q-62 0 -101.5 41t-39.5 134v224q0 92 40 133.5t101 41.5q63 0 98 -40v27zM225 96q30 0 47.5 18t17.5 48v224q0 30 -17.5 47.5t-47.5 17.5t-47 -17.5t-17 -47.5v-224
q0 -30 17 -48t47 -18z" />
    <glyph glyph-name="adieresis.ss01" horiz-adv-x="461" 
d="M200 780v-127h-96v127h96zM360 780v-127h-96v127h96zM290 548h109v-548h-109v27q-35 -40 -98 -40q-62 0 -101.5 41t-39.5 134v224q0 92 40 133.5t101 41.5q63 0 98 -40v27zM225 96q30 0 47.5 18t17.5 48v224q0 30 -17.5 47.5t-47.5 17.5t-47 -17.5t-17 -47.5v-224
q0 -30 17 -48t47 -18z" />
    <glyph glyph-name="agrave.ss01" horiz-adv-x="461" 
d="M275 608h-83l-95 172h117zM290 548h109v-548h-109v27q-35 -40 -98 -40q-62 0 -101.5 41t-39.5 134v224q0 92 40 133.5t101 41.5q63 0 98 -40v27zM225 96q30 0 47.5 18t17.5 48v224q0 30 -17.5 47.5t-47.5 17.5t-47 -17.5t-17 -47.5v-224q0 -30 17 -48t47 -18z" />
    <glyph glyph-name="amacron.ss01" horiz-adv-x="461" 
d="M349 696v-80h-234v80h234zM290 548h109v-548h-109v27q-35 -40 -98 -40q-62 0 -101.5 41t-39.5 134v224q0 92 40 133.5t101 41.5q63 0 98 -40v27zM225 96q30 0 47.5 18t17.5 48v224q0 30 -17.5 47.5t-47.5 17.5t-47 -17.5t-17 -47.5v-224q0 -30 17 -48t47 -18z" />
    <glyph glyph-name="aogonek.ss01" horiz-adv-x="444" 
d="M365 0q-58 -47 -58 -98q0 -25 18.5 -41.5t49.5 -16.5h18v-80h-26q-65 0 -102.5 33t-37.5 86q0 66 63 120v24q-35 -40 -98 -40q-62 0 -101.5 41t-39.5 134v224q0 92 40 133.5t101 41.5q63 0 98 -40v27h109v-548h-34zM225 96q30 0 47.5 18t17.5 48v224q0 30 -17.5 47.5
t-47.5 17.5t-47 -17.5t-17 -47.5v-224q0 -30 17 -48t47 -18z" />
    <glyph glyph-name="aring.ss01" horiz-adv-x="461" 
d="M231 570q-43 0 -73.5 29t-30.5 75t30.5 75.5t73.5 29.5q44 0 74.5 -29.5t30.5 -75.5t-30.5 -75t-74.5 -29zM231 712q-15 0 -26 -10.5t-11 -27.5q0 -16 11 -26.5t26 -10.5t26.5 10.5t11.5 26.5q0 17 -11 27.5t-27 10.5zM290 548h109v-548h-109v27q-35 -40 -98 -40
q-62 0 -101.5 41t-39.5 134v224q0 92 40 133.5t101 41.5q63 0 98 -40v27zM225 96q30 0 47.5 18t17.5 48v224q0 30 -17.5 47.5t-47.5 17.5t-47 -17.5t-17 -47.5v-224q0 -30 17 -48t47 -18z" />
    <glyph glyph-name="atilde.ss01" horiz-adv-x="461" 
d="M174 656v-26h-88v33q0 38 19 59.5t50 21.5q42 0 76 -26q30 -22 43 -22t13 18v26h88v-35q0 -37 -19 -58.5t-50 -21.5q-38 0 -78 27q-29 21 -40 21q-14 0 -14 -17zM290 548h109v-548h-109v27q-35 -40 -98 -40q-62 0 -101.5 41t-39.5 134v224q0 92 40 133.5t101 41.5
q63 0 98 -40v27zM225 96q30 0 47.5 18t17.5 48v224q0 30 -17.5 47.5t-47.5 17.5t-47 -17.5t-17 -47.5v-224q0 -30 17 -48t47 -18z" />
    <glyph glyph-name="y.ss02" horiz-adv-x="456" 
d="M284 548h109v-550q0 -82 -47.5 -131.5t-126.5 -49.5t-126.5 50t-47.5 133v19h110v-27q0 -30 17 -48t47 -18t47.5 18t17.5 48v105q-35 -40 -98 -40q-61 0 -100.5 41t-39.5 134v316h109v-316q0 -30 17.5 -48t47.5 -18t47 18t17 48v316z" />
    <glyph glyph-name="yacute.ss02" horiz-adv-x="456" 
d="M356 780l-95 -172h-83l61 172h117zM284 548h109v-550q0 -82 -47.5 -131.5t-126.5 -49.5t-126.5 50t-47.5 133v19h110v-27q0 -30 17 -48t47 -18t47.5 18t17.5 48v105q-35 -40 -98 -40q-61 0 -100.5 41t-39.5 134v316h109v-316q0 -30 17.5 -48t47.5 -18t47 18t17 48v316z
" />
    <glyph glyph-name="ycircumflex.ss02" horiz-adv-x="456" 
d="M220 713l-60 -83h-103l116 150h92l116 -150h-103zM284 548h109v-550q0 -82 -47.5 -131.5t-126.5 -49.5t-126.5 50t-47.5 133v19h110v-27q0 -30 17 -48t47 -18t47.5 18t17.5 48v105q-35 -40 -98 -40q-61 0 -100.5 41t-39.5 134v316h109v-316q0 -30 17.5 -48t47.5 -18
t47 18t17 48v316z" />
    <glyph glyph-name="ydieresis.ss02" horiz-adv-x="456" 
d="M189 780v-127h-96v127h96zM349 780v-127h-96v127h96zM284 548h109v-550q0 -82 -47.5 -131.5t-126.5 -49.5t-126.5 50t-47.5 133v19h110v-27q0 -30 17 -48t47 -18t47.5 18t17.5 48v105q-35 -40 -98 -40q-61 0 -100.5 41t-39.5 134v316h109v-316q0 -30 17.5 -48t47.5 -18
t47 18t17 48v316z" />
    <glyph glyph-name="longs_t" horiz-adv-x="635" 
d="M102 0v447h-100v101h100v35q0 78 47.5 127.5t126.5 49.5h50v-109h-50q-30 0 -47.5 -18.5t-17.5 -49.5v-583h-109zM563 -7q-80 0 -127 47t-47 130v277h-92v101h92v132h110v-132h114v-101h-114v-277q0 -31 17 -49.5t47 -18.5h50v-109h-50z" />
    <glyph glyph-name="zero.tf" horiz-adv-x="480" 
d="M240 766q81 0 130 -50.5t49 -134.5v-412q0 -84 -49 -134.5t-130 -50.5q-82 0 -131 51t-49 134v412q0 83 49 134t131 51zM240 649q-30 0 -47 -18.5t-17 -49.5v-322l101 379q-16 11 -37 11zM240 101q29 0 46 18.5t17 49.5v319l-100 -377q17 -10 37 -10z" />
    <glyph glyph-name="one.tf" horiz-adv-x="480" 
d="M30 0v117h152v430h-126v117h28q46 0 72 20t26 55v11h117v-633h151v-117h-420z" />
    <glyph glyph-name="two.tf" horiz-adv-x="480" 
d="M429 490q0 -51 -26.5 -93t-64.5 -72t-76.5 -58t-65 -63t-26.5 -74v-13h259v-117h-382v106q0 55 19.5 101.5t49 75t64 56.5t64 48t49 47t19.5 56v91q0 31 -20.5 49.5t-53.5 18.5t-53.5 -18.5t-20.5 -49.5v-35h-117v35q0 83 52.5 134t138.5 51t138.5 -51t52.5 -134v-91z
" />
    <glyph glyph-name="three.tf" horiz-adv-x="480" 
d="M416 581v-69q0 -75 -46 -126q46 -51 46 -127v-90q0 -83 -52 -134t-137 -51t-136.5 51t-51.5 134v36h117v-36q0 -31 19 -49.5t52 -18.5t52.5 18.5t19.5 49.5v90q0 31 -19.5 49.5t-52.5 18.5h-73v117h73q33 0 52.5 18.5t19.5 49.5v69q0 31 -19.5 49.5t-52.5 18.5t-52 -18.5
t-19 -49.5v-35h-117v35q0 83 51.5 134t136.5 51t137 -51t52 -134z" />
    <glyph glyph-name="four.tf" horiz-adv-x="480" 
d="M392 255h61v-116h-61v-139h-117v139h-258v102l270 509h105v-495zM275 255v267l-135 -267h135z" />
    <glyph glyph-name="five.tf" horiz-adv-x="480" 
d="M258 496q78 0 127.5 -51t49.5 -134v-142q0 -83 -50.5 -134t-133.5 -51q-84 0 -134 50.5t-50 134.5v36h117v-36q0 -31 18 -49.5t49 -18.5t49 18.5t18 49.5v142q0 31 -18.5 49.5t-50.5 18.5q-30 0 -47.5 -18.5t-17.5 -49.5v-8h-117v447h345v-117h-228v-160q28 23 74 23z
" />
    <glyph glyph-name="six.tf" horiz-adv-x="480" 
d="M427 546h-117v35q0 31 -17.5 49.5t-48.5 18.5q-30 0 -47.5 -18.5t-17.5 -49.5v-108q29 23 73 23q78 0 126.5 -51t48.5 -134v-142q0 -83 -50 -134t-133 -51q-82 0 -132 51t-50 134v412q0 83 50 134t132 51q83 0 133 -51t50 -134v-35zM243 379q-29 0 -46.5 -18.5
t-17.5 -49.5v-142q0 -31 17.5 -49.5t47.5 -18.5q31 0 48.5 18.5t17.5 49.5v142q0 31 -18 49.5t-49 18.5z" />
    <glyph glyph-name="seven.tf" horiz-adv-x="480" 
d="M31 750h408v-108l-214 -642h-123l218 633h-289v117z" />
    <glyph glyph-name="eight.tf" horiz-adv-x="480" 
d="M422 581v-71q0 -77 -43 -126q43 -49 43 -127v-88q0 -84 -49.5 -134.5t-132.5 -50.5t-132.5 50.5t-49.5 134.5v88q0 76 43 127q-43 49 -43 126v71q0 84 49.5 134.5t132.5 50.5t132.5 -50.5t49.5 -134.5zM305 510v71q0 31 -17.5 49.5t-47.5 18.5t-47.5 -18.5t-17.5 -49.5
v-71q0 -31 17.5 -49.5t47.5 -18.5t47.5 18.5t17.5 49.5zM305 169v88q0 31 -17.5 49.5t-47.5 18.5t-47.5 -18.5t-17.5 -49.5v-88q0 -31 17.5 -49.5t47.5 -18.5t47.5 18.5t17.5 49.5z" />
    <glyph glyph-name="nine.tf" horiz-adv-x="480" 
d="M236 766q83 0 132.5 -50.5t49.5 -134.5v-412q0 -84 -49.5 -134.5t-132.5 -50.5t-132.5 50.5t-49.5 134.5v36h117v-36q0 -31 17.5 -49.5t47.5 -18.5t47.5 18.5t17.5 49.5v108q-29 -23 -73 -23q-77 0 -125.5 51t-48.5 134v142q0 84 49.5 134.5t132.5 50.5zM237 371
q30 0 47 18.5t17 49.5v142q0 31 -17.5 49.5t-47.5 18.5t-47.5 -18.5t-17.5 -49.5v-142q0 -31 17.5 -49.5t48.5 -18.5z" />
    <glyph glyph-name="zero.dnom" horiz-adv-x="323" 
d="M162 460q49 0 79.5 -30.5t30.5 -80.5v-248q0 -50 -30.5 -80.5t-79.5 -30.5q-50 0 -80.5 30.5t-30.5 80.5v248q0 50 30.5 80.5t80.5 30.5zM162 384q-16 0 -25.5 -10t-9.5 -25v-170l54 199q-8 6 -19 6zM162 66q15 0 24.5 10t9.5 25v171l-55 -200q7 -6 21 -6z" />
    <glyph glyph-name="one.dnom" horiz-adv-x="217" 
d="M81 0v322h-69v76h19q23 0 36.5 12t13.5 33v7h76v-450h-76z" />
    <glyph glyph-name="two.dnom" horiz-adv-x="294" 
d="M35 0v70q0 39 15 70t36 49t42.5 33.5t36.5 32.5t15 37v57q0 15 -9.5 25t-25.5 10q-15 0 -24.5 -10t-9.5 -25v-23h-76v23q0 50 30.5 80.5t79.5 30.5q50 0 80.5 -30.5t30.5 -80.5v-57q0 -31 -14.5 -56t-35 -41.5t-41.5 -32t-35.5 -35.5t-14.5 -43v-8h141v-76h-221z" />
    <glyph glyph-name="three.dnom" horiz-adv-x="300" 
d="M142 -10q-50 0 -80.5 30.5t-30.5 80.5v23h76v-23q0 -15 9.5 -25t25.5 -10q15 0 24.5 10t9.5 25v58q0 15 -9.5 25t-24.5 10h-46v76h46q15 0 24.5 9.5t9.5 25.5v44q0 15 -9.5 25t-24.5 10q-16 0 -25.5 -10t-9.5 -25v-23h-76v23q0 50 30.5 80.5t80.5 30.5q49 0 79.5 -30.5
t30.5 -80.5v-44q0 -47 -25 -73q25 -28 25 -73v-58q0 -50 -30.5 -80.5t-79.5 -30.5z" />
    <glyph glyph-name="four.dnom" horiz-adv-x="307" 
d="M163 0v79h-151v66l160 305h67v-294h35v-77h-35v-79h-76zM91 156h72v144z" />
    <glyph glyph-name="five.dnom" horiz-adv-x="313" 
d="M164 -10q-50 0 -80.5 30.5t-30.5 80.5v23h76v-23q0 -15 9.5 -25t25.5 -10q15 0 24.5 10t9.5 25v85q0 16 -9.5 25.5t-25.5 9.5q-34 0 -34 -35v-5h-76v269h205v-76h-129v-89q15 12 40 12q47 0 76 -31t29 -80v-85q0 -50 -30.5 -80.5t-79.5 -30.5z" />
    <glyph glyph-name="six.dnom" horiz-adv-x="318" 
d="M162 -10q-50 0 -80.5 30.5t-30.5 80.5v248q0 50 30.5 80.5t80.5 30.5q49 0 79.5 -30.5t30.5 -80.5v-23h-76v23q0 15 -9.5 25t-24.5 10q-16 0 -25.5 -10t-9.5 -25v-64q15 12 40 12q47 0 76 -31t29 -80v-85q0 -50 -30.5 -80.5t-79.5 -30.5zM162 66q15 0 24.5 10t9.5 25v85
q0 16 -9.5 25.5t-25.5 9.5q-34 0 -34 -35v-85q0 -15 9.5 -25t25.5 -10z" />
    <glyph glyph-name="seven.dnom" horiz-adv-x="244" 
d="M39 0l113 374h-142v76h217v-71l-109 -379h-79z" />
    <glyph glyph-name="eight.dnom" horiz-adv-x="318" 
d="M159 -10q-50 0 -80 30.5t-30 80.5v56q0 44 24 73q-24 27 -24 73v46q0 50 30 80.5t80 30.5t80 -30.5t30 -80.5v-46q0 -46 -24 -73q24 -29 24 -73v-56q0 -50 -30 -80.5t-80 -30.5zM159 268q16 0 25 9.5t9 25.5v46q0 15 -9.5 25t-24.5 10t-24.5 -10t-9.5 -25v-46
q0 -16 9 -25.5t25 -9.5zM159 66q15 0 24.5 10t9.5 25v56q0 16 -9 25.5t-25 9.5t-25 -9.5t-9 -25.5v-56q0 -15 9.5 -25t24.5 -10z" />
    <glyph glyph-name="nine.dnom" horiz-adv-x="318" 
d="M157 -10q-50 0 -80.5 30.5t-30.5 80.5v23h76v-23q0 -15 9.5 -25t25.5 -10q15 0 24.5 10t9.5 25v64q-17 -12 -40 -12q-47 0 -76 31t-29 80v85q0 50 30.5 80.5t80.5 30.5q49 0 79.5 -30.5t30.5 -80.5v-248q0 -50 -30.5 -80.5t-79.5 -30.5zM156 229q16 0 25.5 9.5t9.5 25.5
v85q0 15 -9.5 25t-24.5 10q-16 0 -25.5 -10t-9.5 -25v-85q0 -35 34 -35z" />
    <glyph glyph-name="zero.numr" horiz-adv-x="323" 
d="M162 760q49 0 79.5 -30.5t30.5 -80.5v-248q0 -50 -30.5 -80.5t-79.5 -30.5q-50 0 -80.5 30.5t-30.5 80.5v248q0 50 30.5 80.5t80.5 30.5zM162 684q-16 0 -25.5 -10t-9.5 -25v-170l54 199q-8 6 -19 6zM162 366q15 0 24.5 10t9.5 25v171l-55 -200q7 -6 21 -6z" />
    <glyph glyph-name="one.numr" horiz-adv-x="217" 
d="M81 300v324h-69v76h19q23 0 36.5 12t13.5 33v7h76v-452h-76z" />
    <glyph glyph-name="two.numr" horiz-adv-x="294" 
d="M35 300v70q0 39 15 70t36 49t42.5 33.5t36.5 32.5t15 37v57q0 15 -9.5 25t-25.5 10q-15 0 -24.5 -10t-9.5 -25v-23h-76v23q0 50 30.5 80.5t79.5 30.5q50 0 80.5 -30.5t30.5 -80.5v-57q0 -31 -14.5 -56t-35 -41.5t-41.5 -32t-35.5 -35.5t-14.5 -43v-8h141v-76h-221z" />
    <glyph glyph-name="three.numr" horiz-adv-x="300" 
d="M142 290q-50 0 -80.5 30.5t-30.5 80.5v23h76v-23q0 -15 9.5 -25t25.5 -10q15 0 24.5 10t9.5 25v58q0 15 -9.5 25t-24.5 10h-46v76h46q15 0 24.5 9.5t9.5 25.5v44q0 15 -9.5 25t-24.5 10q-16 0 -25.5 -10t-9.5 -25v-23h-76v23q0 50 30.5 80.5t80.5 30.5q49 0 79.5 -30.5
t30.5 -80.5v-44q0 -47 -25 -73q25 -28 25 -73v-58q0 -50 -30.5 -80.5t-79.5 -30.5z" />
    <glyph glyph-name="four.numr" horiz-adv-x="307" 
d="M163 300v79h-151v66l160 305h67v-294h35v-77h-35v-79h-76zM91 456h72v144z" />
    <glyph glyph-name="five.numr" horiz-adv-x="313" 
d="M164 290q-50 0 -80.5 30.5t-30.5 80.5v23h76v-23q0 -15 9.5 -25t25.5 -10q15 0 24.5 10t9.5 25v85q0 16 -9.5 25.5t-25.5 9.5q-34 0 -34 -35v-5h-76v269h205v-76h-129v-89q15 12 40 12q47 0 76 -31t29 -80v-85q0 -50 -30.5 -80.5t-79.5 -30.5z" />
    <glyph glyph-name="six.numr" horiz-adv-x="318" 
d="M162 290q-50 0 -80.5 30.5t-30.5 80.5v248q0 50 30.5 80.5t80.5 30.5q49 0 79.5 -30.5t30.5 -80.5v-23h-76v23q0 15 -9.5 25t-24.5 10q-16 0 -25.5 -10t-9.5 -25v-64q15 12 40 12q47 0 76 -31t29 -80v-85q0 -50 -30.5 -80.5t-79.5 -30.5zM162 366q15 0 24.5 10t9.5 25v85
q0 16 -9.5 25.5t-25.5 9.5q-34 0 -34 -35v-85q0 -15 9.5 -25t25.5 -10z" />
    <glyph glyph-name="seven.numr" horiz-adv-x="244" 
d="M39 300l113 374h-142v76h217v-71l-109 -379h-79z" />
    <glyph glyph-name="eight.numr" horiz-adv-x="318" 
d="M159 290q-50 0 -80 30.5t-30 80.5v56q0 44 24 73q-24 27 -24 73v46q0 50 30 80.5t80 30.5t80 -30.5t30 -80.5v-46q0 -46 -24 -73q24 -29 24 -73v-56q0 -50 -30 -80.5t-80 -30.5zM159 568q16 0 25 9.5t9 25.5v46q0 15 -9.5 25t-24.5 10t-24.5 -10t-9.5 -25v-46
q0 -16 9 -25.5t25 -9.5zM159 366q15 0 24.5 10t9.5 25v56q0 16 -9 25.5t-25 9.5t-25 -9.5t-9 -25.5v-56q0 -15 9.5 -25t24.5 -10z" />
    <glyph glyph-name="nine.numr" horiz-adv-x="318" 
d="M157 290q-50 0 -80.5 30.5t-30.5 80.5v23h76v-23q0 -15 9.5 -25t25.5 -10q15 0 24.5 10t9.5 25v64q-17 -12 -40 -12q-47 0 -76 31t-29 80v85q0 50 30.5 80.5t80.5 30.5q49 0 79.5 -30.5t30.5 -80.5v-248q0 -50 -30.5 -80.5t-79.5 -30.5zM156 529q16 0 25.5 9.5t9.5 25.5
v85q0 15 -9.5 25t-24.5 10q-16 0 -25.5 -10t-9.5 -25v-85q0 -35 34 -35z" />
    <glyph glyph-name="acute.case" horiz-adv-x="227" 
d="M42 608l61 172h117l-95 -172h-83z" />
    <glyph glyph-name="breve.case" horiz-adv-x="330" 
d="M168 651q-55 0 -89 32t-34 85v12h75v-12q0 -23 13.5 -36.5t34.5 -13.5t34 13.5t13 36.5v12h75v-12q0 -53 -33.5 -85t-88.5 -32z" />
    <glyph glyph-name="caron.case" horiz-adv-x="344" 
d="M140 630l-116 150h103l60 -83l58 83h103l-116 -150h-92z" />
    <glyph glyph-name="circumflex.case" horiz-adv-x="344" 
d="M24 630l116 150h92l116 -150h-103l-58 83l-60 -83h-103z" />
    <glyph glyph-name="dieresis.case" horiz-adv-x="382" 
d="M77 653v127h96v-127h-96zM237 653v127h96v-127h-96z" />
    <glyph glyph-name="dotaccent.case" horiz-adv-x="222" 
d="M77 623v127h96v-127h-96z" />
    <glyph glyph-name="grave.case" horiz-adv-x="227" 
d="M126 608l-95 172h117l61 -172h-83z" />
    <glyph glyph-name="hungarumlaut.case" horiz-adv-x="400" 
d="M45 608l61 172h117l-95 -172h-83zM218 608l61 172h117l-95 -172h-83z" />
    <glyph glyph-name="macron.case" horiz-adv-x="359" 
d="M73 750h234v-80h-234v80z" />
    <glyph glyph-name="ring.case" horiz-adv-x="295" 
d="M161 571q-43 0 -73.5 29t-30.5 75t30.5 75.5t73.5 29.5q44 0 74.5 -29.5t30.5 -75.5t-30.5 -75t-74.5 -29zM161 638q15 0 26.5 10.5t11.5 26.5q0 17 -11 27.5t-27 10.5q-15 0 -26 -10.5t-11 -27.5q0 -16 11 -26.5t26 -10.5z" />
    <glyph glyph-name="tilde.case" horiz-adv-x="398" 
d="M279 661q-37 0 -78 27q-29 21 -40 21q-14 0 -14 -17v-26h-88v33q0 38 19 59.5t50 21.5q42 0 76 -26q30 -22 43 -22t13 18v26h88v-35q0 -37 -19 -58.5t-50 -21.5z" />
    <glyph glyph-name="caron.salt" 
d="M43 509l40 241h109l-40 -241h-109z" />
    </font>
</defs>
</svg>
