<?xml version="1.0" encoding="utf-8"?>
<!-- Generator: Adobe Illustrator 24.1.3, SVG Export Plug-In . SVG Version: 6.00 Build 0)  -->
<svg version="1.1" id="CARD" xmlns="http://www.w3.org/2000/svg" xmlns:xlink="http://www.w3.org/1999/xlink" x="0px" y="0px"
	 width="200px" height="50px" viewBox="0 0 200 50" enable-background="new 0 0 200 50" xml:space="preserve">
<path id="SILVER_2_" fill="#8C96A0" d="M100,0l95,0c2.8,0,5,2.2,5,5v40c0,2.8-2.2,5-5,5h-95V0z"/>
<radialGradient id="SVGID_1_" cx="100" cy="20" r="50" gradientTransform="matrix(2 0 0 0.5 -100 15)" gradientUnits="userSpaceOnUse">
	<stop  offset="0" style="stop-color:#FBFBFC"/>
	<stop  offset="1" style="stop-color:#FBFBFC;stop-opacity:0"/>
</radialGradient>
<ellipse fill="url(#SVGID_1_)" cx="100" cy="25" rx="100" ry="25"/>
<g id="PIMCORE_1_">
	<path fill="#6428B4" d="M100,50H6c-3.3,0-6-2.7-6-6V5c0-2.8,2.2-5,5-5h95V50z"/>
	<path fill="#FFFFFF" d="M86.5,14h-4.2c-0.1,0-0.3,0.1-0.3,0.3V16h6v0.5c0,0.8-0.7,1.5-1.5,1.5H82v1.7c0,0.1,0.1,0.3,0.3,0.3H88v0.5
		c0,0.8-0.7,1.5-1.5,1.5h-5c-0.8,0-1.5-0.7-1.5-1.5v-7c0-0.8,0.7-1.5,1.5-1.5H88v0.5C88,13.3,87.3,14,86.5,14z M76.1,18.6L78,22
		h-1.7c-0.4,0-0.7-0.2-0.9-0.5L74,19h-4v1.5c0,0.8-0.7,1.5-1.5,1.5H68v-8.5c0-0.8,0.7-1.5,1.5-1.5l4.9,0c1.9,0,3.6,1.5,3.6,3.5
		C78,16.8,77.2,18.1,76.1,18.6z M70,14.3V17h4.5c0.9,0,1.5-0.7,1.5-1.6c0-0.8-0.7-1.4-1.5-1.4l-4.2,0C70.1,14,70,14.1,70,14.3z
		 M37.6,12.4l-3.4,3.4c-0.1,0.1-0.3,0.1-0.4,0l-3.4-3.4c-0.3-0.3-0.6-0.4-1-0.4h0c-0.8,0-1.4,0.6-1.4,1.4V22h0.5
		c0.8,0,1.5-0.7,1.5-1.5v-5.4c0-0.1,0.1-0.2,0.2-0.1l2.7,2.7c0.6,0.6,1.5,0.6,2.1,0l2.7-2.7c0.1-0.1,0.2,0,0.2,0.1V22h0.5
		c0.8,0,1.5-0.7,1.5-1.5v-7.1c0-0.8-0.6-1.4-1.4-1.4h0C38.2,12,37.9,12.1,37.6,12.4z M26,21v-9h-1c-0.6,0-1,0.4-1,1v9h1
		C25.6,22,26,21.6,26,21z M22,15.6c0,1.9-1.6,3.4-3.5,3.4H14v1.5c0,0.8-0.7,1.5-1.5,1.5H12v-8.5c0-0.8,0.7-1.5,1.5-1.5h4.9
		C20.4,12,22,13.6,22,15.6z M20,15.6c0-0.9-0.6-1.6-1.5-1.6h-4.2c-0.2,0-0.3,0.1-0.3,0.3V17l4.5,0C19.3,17,20,16.4,20,15.6z M66,17
		c0,2.8-2.2,5-5,5c-1.7,0-3.3-0.9-4.2-2.2l-0.6-1l-1.4,2.1C53.6,22.8,51.4,24,49,24c-3.9,0-7-3.1-7-7c0-3.9,3.1-7,7-7
		c2.4,0,4.6,1.2,5.8,3.1l0.2,0.3l-1.2,1.8l-0.7-1C52.2,12.9,50.7,12,49,12c-2.8,0-5,2.2-5,5s2.2,5,5,5c1.7,0,3.3-0.9,4.2-2.2
		l3.7-5.5c0.9-1.4,2.4-2.2,4.2-2.2C63.8,12,66,14.2,66,17z M64,17c0-1.7-1.3-3-3-3c-1,0-2,0.5-2.5,1.3L57.4,17l1.1,1.6
		C59,19.5,60,20,61,20C62.7,20,64,18.7,64,17z M91.3,13.2l0.2,0.3h-0.2c0,0,0,0,0,0l-0.2-0.3h-0.4v0.2c0,0.1,0,0.1-0.1,0.1h-0.1
		v-0.8c0-0.1,0.1-0.1,0.1-0.1h0.5c0.2,0,0.3,0.1,0.3,0.3C91.5,13,91.4,13.1,91.3,13.2z M90.7,12.7V13h0.4c0.1,0,0.2-0.1,0.1-0.2
		c0-0.1-0.1-0.1-0.1-0.1L90.7,12.7C90.7,12.7,90.7,12.7,90.7,12.7z M91,12.2c-0.4,0-0.8,0.4-0.8,0.8c0,0.4,0.4,0.8,0.8,0.8
		s0.8-0.4,0.8-0.8C91.8,12.6,91.4,12.2,91,12.2 M91,12c0.6,0,1,0.4,1,1s-0.4,1-1,1s-1-0.4-1-1S90.4,12,91,12L91,12z"/>
</g>
<g id="STRATEGIC_3_">
	<g id="_x31__4_">
		<polygon fill="#FFFFFF" points="49,33.5 54,30 51.8,35.5 56,39 50.7,39 49,44 47.3,39 42,39 46.2,35.5 44,30 		"/>
	</g>
</g>
<g>
	<path fill="#190A2D" d="M109.5,19.7l1.7-1c0.4,0.9,1.1,1.5,2.3,1.5c1.2,0,1.6-0.5,1.6-1.1c0-0.7-0.7-1-2.2-1.5c-1.5-0.4-3-1.1-3-3
		c0-1.9,1.6-3,3.3-3c1.6,0,2.9,0.8,3.6,2.2l-1.7,1c-0.4-0.8-0.9-1.3-1.9-1.3c-0.8,0-1.3,0.4-1.3,1c0,0.6,0.4,0.9,1.9,1.4
		c1.6,0.5,3.3,1,3.3,3.1c0,1.9-1.5,3-3.6,3C111.4,22.2,110.1,21.2,109.5,19.7z"/>
	<path fill="#190A2D" d="M121,12v10h-2V12H121z"/>
	<path fill="#190A2D" d="M129.3,20.1V22h-5.8V12h2v8.1H129.3z"/>
	<path fill="#190A2D" d="M129.4,12h2.1l2.4,7.7l2.4-7.7h2.2l-3.4,10h-2.4L129.4,12z"/>
	<path fill="#190A2D" d="M146.5,20.1V22h-6.2V12h6.1v1.9h-4.1V16h3.8v1.9h-3.8v2.2H146.5z"/>
	<path fill="#190A2D" d="M152,18.5h-1.5V22h-2V12h4c1.8,0,3.3,1.5,3.3,3.3c0,1.3-0.8,2.4-1.9,2.9l2.2,3.8h-2.1L152,18.5z
		 M150.5,16.8h2c0.7,0,1.4-0.7,1.4-1.5c0-0.8-0.6-1.5-1.4-1.5h-2V16.8z"/>
	<path fill="#190A2D" d="M117.2,31.4c0,1.9-1.5,3.4-3.4,3.4H112V38h-2V28h3.7C115.7,28,117.2,29.5,117.2,31.4z M115.2,31.4
		c0-0.9-0.6-1.5-1.5-1.5H112v3h1.8C114.6,32.9,115.2,32.2,115.2,31.4z"/>
	<path fill="#190A2D" d="M124,36.2h-4l-0.6,1.8h-2.1l3.5-10h2.4l3.5,10h-2.1L124,36.2z M123.4,34.4l-1.4-4.1l-1.4,4.1H123.4z"/>
	<path fill="#190A2D" d="M131.9,34.5h-1.5V38h-2V28h4c1.8,0,3.3,1.5,3.3,3.3c0,1.3-0.8,2.4-1.9,2.9L136,38h-2.1L131.9,34.5z
		 M130.4,32.8h2c0.7,0,1.4-0.7,1.4-1.5c0-0.8-0.6-1.5-1.4-1.5h-2V32.8z"/>
	<path fill="#190A2D" d="M144.3,29.9h-2.7V38h-2v-8.1H137V28h7.4V29.9z"/>
	<path fill="#190A2D" d="M153.9,28v10h-1.5l-4.3-6.1V38h-2V28h1.5l4.3,6.1V28H153.9z"/>
	<path fill="#190A2D" d="M162.7,36.1V38h-6.2V28h6.1v1.9h-4.1V32h3.8v1.9h-3.8v2.2H162.7z"/>
	<path fill="#190A2D" d="M168.2,34.5h-1.5V38h-2V28h4c1.8,0,3.3,1.5,3.3,3.3c0,1.3-0.8,2.4-1.9,2.9l2.2,3.8h-2.1L168.2,34.5z
		 M166.7,32.8h2c0.7,0,1.4-0.7,1.4-1.5c0-0.8-0.6-1.5-1.4-1.5h-2V32.8z"/>
</g>
</svg>
